#N canvas 827 239 527 327 12;
#X declare -path ~/Sync/work/projects/drumcode/pd;
#X declare -path FluidCorpusManipulation;
#X obj 79 79 adc~ 1;
#X obj 79 121 meter~;
#X obj 408 121 meter~;
#X obj 408 79 adc~ 2;
#X obj 459 299 dc.trigger~;
#X obj 653 79 declare -path ~/Sync/work/projects/drumcode/pd;
#X obj 653 42 declare -path FluidCorpusManipulation;
#X obj 548 241 hsl 128 17 0 1 0 0 empty empty empty -2 -8 0 10 #e4e4e4 #4d4d4d #000000 0 1;
#X obj 279 629 bng 25 250 50 0 empty empty empty 17 7 0 10 #e4e4e4 #4d4d4d #000000;
#X floatatom 588 271 5 0 0 0 - - - 12;
#X msg 410 557 0;
#X obj 411 735 hsl 128 17 0 1 0 0 empty empty empty -2 -8 0 10 #e4e4e4 #4d4d4d #000000 0 1;
#X obj 524 507 array define \$0-loudness-stats;
#X obj 408 588 array get;
#X msg 447 557 symbol \$1;
#X obj 408 519 t b a;
#X obj 408 700 dc.calibrate;
#X obj 504 636 tgl 25 0 empty empty empty 17 7 0 10 #e4e4e4 #4d4d4d #000000 0 1;
#X text 828 401 get the loudness \, or the peak information. Needs some testing which performs more true to the real life sound, f 28;
#X floatatom 442 636 5 0 0 0 - - - 12;
#X text 724 472 high percentile \, mid (50th percentile \, is the median) or mean?, f 21;
#X obj 408 473 fluid.bufstats -select high -stats \$0-loudness-stats;
#X text 1099 318 spread -> Literally how flat your spectrum is. White noise occupies equal energy in each frequency bin of a spectral analysis and is therefore very flat. A single sinusoidal peak will be not flat at all. It might be useful for differentiating noisy and tonal sounds.;
#X text 1099 263 centroid -> Centroid is the centre of gravity or centre of mass in the spectrum. If you had to balance the spectrum on the tip of your finger \, where would you place it?;
#X obj 1046 690 array get;
#X msg 1106 659 symbol \$1;
#X msg 1048 659 0;
#X obj 1046 505 fluid.bufflatten -destination \$0-spec-stats;
#X obj 1159 539 array define \$0-spec-stats;
#X obj 1046 621 t b b a;
#X obj 1046 473 fluid.bufstats -select mean;
#X obj 1049 924 hsl 128 17 0 1 0 0 empty empty empty -2 -8 0 10 #e4e4e4 #4d4d4d #000000 0 1;
#X obj 1046 889 dc.calibrate;
#X floatatom 986 847 5 0 0 0 - - - 12;
#X text 1562 307 -select centroid flatness;
#X obj 1046 737 unjoin 7, f 79;
#X msg 1078 659 7;
#X text 1179 718 centroid spread skew kurtosis rolloff flatness crest;
#X floatatom 1148 789 5 0 0 0 - - - 12;
#X obj 1151 882 hsl 128 17 0 1 0 0 empty empty empty -2 -8 0 10 #e4e4e4 #4d4d4d #000000 0 1;
#X obj 1148 847 dc.calibrate;
#X obj 1084 789 tgl 25 0 empty empty empty 17 7 0 10 #e4e4e4 #4d4d4d #000000 0 1;
#X obj 408 402 fluid.bufloudness -truepeak 0 -numchans 1 -blocking 1 -select loudness -windowsize 256 -hopsize 64 -kweighting 0;
#X obj 1046 402 fluid.bufspectralshape -numchans 1 -fftsettings 256 64 512 -blocking 1 -select centroid flatness, f 46;
#X obj 1562 402 fluid.bufmfcc 13 -startcoeff 1 -fftsettings 256 64 512 -maxfreq 18000 -minfreq 40 -blocking 1;
#X obj 1562 461 fluid.bufstats -select mean;
#N canvas 0 0 450 250 (subpatch) 0;
#X array \$0-mfcc-stats 13 float 2;
#X coords 0 40 13 -40 183 120 1;
#X restore 1559 559 graph;
#X obj 1562 499 fluid.bufflatten -destination \$0-mfcc-stats;
#X obj 808 806 list.seq;
#X obj 327 829 dc.osc.message /note;
#X obj 327 742 bng 25 250 50 0 empty empty empty 17 7 0 10 #e4e4e4 #4d4d4d #000000;
#X obj 279 879 dc.osc.message /snare;
#X obj 279 680 t b b;
#X obj 279 922 dc.osc.send;
#X obj 327 789 dc.step 0 3 5 6 9 11 12;
#X obj 504 829 dc.osc.message /vol;
#X obj 279 563 t b a;
#X obj 504 789 scale 0 1 600 9000;
#X obj 79 299 dc.trigger~;
#X obj 79 361 dc.osc.message /kick;
#X obj 648 606 dc.timer;
#X obj 648 642 dc.speed;
#X obj 648 678 dc.slide;
#X obj 648 752 dc.osc.message /speed;
#X obj 647 715 scale 0 1 100 5000;
#X obj 501 118 dc.audio.onoff~;
#X obj 408 361 dc.trigger.frame~ 256;
#X connect 0 0 1 0;
#X connect 1 0 58 0;
#X connect 2 0 4 0;
#X connect 2 0 66 0;
#X connect 3 0 2 0;
#X connect 4 0 66 1;
#X connect 7 0 4 1;
#X connect 8 0 52 0;
#X connect 9 0 4 3;
#X connect 10 0 13 0;
#X connect 11 0 57 0;
#X connect 13 0 19 0;
#X connect 13 0 56 0;
#X connect 14 0 13 2;
#X connect 15 0 10 0;
#X connect 15 1 14 0;
#X connect 16 0 11 0;
#X connect 17 0 16 1;
#X connect 21 0 15 0;
#X connect 24 0 35 0;
#X connect 25 0 24 2;
#X connect 26 0 24 0;
#X connect 27 0 29 0;
#X connect 29 0 26 0;
#X connect 29 1 36 0;
#X connect 29 2 25 0;
#X connect 30 0 27 0;
#X connect 32 0 31 0;
#X connect 35 0 33 0;
#X connect 35 0 32 0;
#X connect 35 1 38 0;
#X connect 36 0 24 1;
#X connect 38 0 40 0;
#X connect 40 0 39 0;
#X connect 41 0 40 1;
#X connect 41 0 32 1;
#X connect 42 0 21 0;
#X connect 43 0 30 0;
#X connect 44 0 45 0;
#X connect 45 0 47 0;
#X connect 50 0 54 0;
#X connect 52 0 51 0;
#X connect 52 1 50 0;
#X connect 54 0 49 0;
#X connect 56 0 8 0;
#X connect 56 1 16 0;
#X connect 57 0 55 0;
#X connect 58 0 59 0;
#X connect 60 0 61 0;
#X connect 61 0 62 0;
#X connect 62 0 64 0;
#X connect 64 0 63 0;
#X connect 66 0 42 0;
#X connect 66 0 43 0;
#X connect 66 0 44 0;
#X connect 66 0 60 0;
