#N canvas 827 239 734 565 12;
#X msg 111 770 devices;
#X obj 146 905 print;
#X obj 55 905 print;
#X msg 138 802 ports;
#X obj 146 872 route ports;
#X msg 86 742 devices usb;
#X obj 55 841 comport 0 115200;
#X obj 59 61 vsl 17 128 0 255 0 0 empty empty empty 0 -9 0 10 #e4e4e4 #4d4d4d #373737 0 1;
#X obj 84 61 vsl 17 128 0 255 0 0 empty empty empty 0 -9 0 10 #e4e4e4 #4d4d4d #373737 0 1;
#X obj 109 61 vsl 17 128 0 255 0 0 empty empty empty 0 -9 0 10 #e4e4e4 #4d4d4d #373737 0 1;
#X obj 134 61 vsl 17 128 0 255 0 0 empty empty empty 0 -9 0 10 #e4e4e4 #4d4d4d #373737 0 1;
#X obj 55 216 pak i i i i;
#X obj 55 673 zl 520 join, f 20;
#X obj 55 438 t l l, f 20;
#X obj 55 469 zl 512 len;
#X obj 55 499 + 1;
#X obj 55 531 t b f f;
#X obj 69 572 % 256;
#X obj 132 572 / 256;
#X obj 113 320 iter;
#X obj 55 291 t b l;
#X obj 113 375 clip 0 255;
#X obj 55 410 zl 512 group;
#X obj 55 641 pack 126 6 1 0 0;
#X obj 132 601 i;
#X obj 113 348 i;
#X obj 55 702 list append 231;
#X msg 188 770 close;
#X msg 201 802 open 0;
#X obj 55 261 speedlim 25;
#X connect 0 0 6 0;
#X connect 3 0 6 0;
#X connect 4 0 1 0;
#X connect 5 0 6 0;
#X connect 6 0 2 0;
#X connect 6 1 4 0;
#X connect 7 0 11 0;
#X connect 8 0 11 1;
#X connect 9 0 11 2;
#X connect 10 0 11 3;
#X connect 11 0 29 0;
#X connect 12 0 26 0;
#X connect 13 0 14 0;
#X connect 13 1 12 1;
#X connect 14 0 15 0;
#X connect 15 0 16 0;
#X connect 16 0 23 0;
#X connect 16 1 17 0;
#X connect 16 2 18 0;
#X connect 17 0 23 2;
#X connect 18 0 24 0;
#X connect 19 0 25 0;
#X connect 20 0 22 0;
#X connect 20 1 19 0;
#X connect 21 0 22 0;
#X connect 22 0 13 0;
#X connect 23 0 12 0;
#X connect 24 0 23 3;
#X connect 25 0 21 0;
#X connect 26 0 6 0;
#X connect 27 0 6 0;
#X connect 28 0 6 0;
#X connect 29 0 20 0;
