#N canvas 827 239 734 565 12;
#X declare -path drumcode/pd;
#X floatatom 307 139 5 0 0 0 - - - 12;
#X floatatom 179 79 5 0 0 0 - - - 12;
#X floatatom 234 79 5 0 0 0 - - - 12;
#X text 179 58 beats;
#X text 234 58 unit;
#X floatatom 64 244 5 0 0 0 - - - 12;
#X floatatom 117 244 5 0 0 0 - - - 12;
#X floatatom 173 244 5 0 0 0 - - - 12;
#X obj 179 109 pak 4 4;
#X obj 179 139 prepend timesig;
#X obj 393 79 declare -path drumcode/pd;
#X obj 176 277 hsl 128 17 0 1 0 0 empty empty empty -2 -8 0 10 #e4e4e4 #4d4d4d #373737 0 1;
#X obj 64 139 tgl 25 0 empty empty empty 17 7 0 10 #e4e4e4 #4d4d4d #373737 0 1;
#X msg 111 139 reset;
#X text 307 108 bpm;
#X text 64 108 on/off;
#X obj 60 606 dac~;
#X msg 64 379 72;
#X obj 64 438 dc.synth~;
#X msg 117 379 67;
#X obj 65 484 gain~ 1 0 20 0 0.702521;
#A saved;
#X obj 173 347 t b;
#X msg 173 379 79;
#X obj 597 79 dc.audio.onoff~;
#X obj 393 233 bng 25 250 50 0 empty empty empty 17 7 0 10 #e4e4e4 #4d4d4d #373737;
#X floatatom 550 233 5 0 0 0 - - - 12;
#X obj 393 277 dc.step 60 63 67 69;
#X floatatom 550 310 5 0 0 0 - - - 12;
#X floatatom 393 313 5 0 0 0 - - - 12;
#X floatatom 393 159 5 0 0 0 - - - 12;
#X msg 414 492 1 2 3;
#X obj 307 379 bng 25 250 50 0 empty empty empty 17 7 0 10 #e4e4e4 #4d4d4d #373737;
#X obj 346 452 t b l b;
#X obj 346 628 print;
#X floatatom 346 379 5 0 0 0 - - - 12;
#X msg 395 379 10 20;
#X msg 453 379 10 20 30;
#X obj 381 530 unmerge 3;
#X obj 381 561 merge 3;
#X obj 346 595 list store;
#X obj 64 191 dc.transport 70;
#X obj 393 191 dc.metronome 16;
#X obj 64 285 bng 25 250 50 0 empty empty empty 17 7 0 10 #e4e4e4 #4d4d4d #373737;
#X obj 117 285 bng 25 250 50 0 empty empty empty 17 7 0 10 #e4e4e4 #4d4d4d #373737;
#X connect 0 0 40 1;
#X connect 1 0 8 0;
#X connect 2 0 8 1;
#X connect 5 0 42 0;
#X connect 6 0 43 0;
#X connect 7 0 11 0;
#X connect 8 0 9 0;
#X connect 9 0 40 0;
#X connect 12 0 40 0;
#X connect 13 0 40 0;
#X connect 17 0 18 0;
#X connect 18 0 20 0;
#X connect 19 0 18 0;
#X connect 20 0 16 0;
#X connect 20 0 16 1;
#X connect 21 0 22 0;
#X connect 22 0 18 0;
#X connect 24 0 26 0;
#X connect 25 0 27 0;
#X connect 26 0 28 0;
#X connect 29 0 41 0;
#X connect 30 0 37 0;
#X connect 31 0 32 0;
#X connect 32 0 39 0;
#X connect 32 1 37 0;
#X connect 32 2 30 0;
#X connect 34 0 32 0;
#X connect 35 0 32 0;
#X connect 36 0 32 0;
#X connect 37 0 38 0;
#X connect 37 1 38 1;
#X connect 37 2 38 2;
#X connect 38 0 39 1;
#X connect 39 0 33 0;
#X connect 40 0 5 0;
#X connect 40 1 6 0;
#X connect 40 2 7 0;
#X connect 41 0 24 0;
#X connect 41 1 25 0;
#X connect 42 0 17 0;
#X connect 43 0 19 0;
