#N canvas 827 239 527 327 12;
#X declare -path ~/Sync/work/projects/drumcode/pd;
#X declare -path FluidCorpusManipulation;
#X obj 59 139 adc~ 1;
#X obj 59 175 meter~;
#X obj 59 95 declare -path ~/Sync/work/projects/drumcode/pd;
#X obj 186 139 dc.audio.onoff~;
#X obj 59 59 declare -path FluidCorpusManipulation;
#X obj 141 349 dc.trigger~;
#X obj 161 315 hsl 128 17 0 1 0 0 empty empty empty -2 -8 0 10 #e4e4e4 #4d4d4d #373737 0 1;
#X obj 59 389 dc.trigger.frame~;
#X msg 61 558 0;
#X obj 59 618 dbtoa;
#X obj 62 677 hsl 128 17 0 1 0 0 empty empty empty -2 -8 0 10 #e4e4e4 #4d4d4d #000000 0 1;
#X obj 182 493 array define \$0-loudness-stats;
#X obj 59 459 fluid.bufstats -select mean -stats \$0-loudness-stats;
#X obj 59 589 array get;
#X msg 98 558 symbol \$1;
#X obj 59 520 t b a;
#X obj 59 427 fluid.bufloudness -truepeak 0 -numchans 1 -kweighting 1 -blocking 1 -select loudness, f 74;
#X connect 0 0 1 0;
#X connect 1 0 5 0;
#X connect 1 0 7 0;
#X connect 5 0 7 1;
#X connect 6 0 5 1;
#X connect 7 0 16 0;
#X connect 8 0 13 0;
#X connect 9 0 10 0;
#X connect 12 0 15 0;
#X connect 13 0 9 0;
#X connect 14 0 13 2;
#X connect 15 0 8 0;
#X connect 15 1 14 0;
#X connect 16 0 12 0;
