#N canvas 827 239 734 565 12;
#X declare -path drumcode/pd;
#X declare -path FluidCorpusManipulation;
#X obj 59 59 adc~;
#X obj 59 104 meter~;
#X obj 139 59 declare -path drumcode/pd;
#X obj 59 280 dc.trigger~;
#X obj 59 324 bng 25 250 50 0 empty empty empty 17 7 0 10 #e4e4e4 #4d4d4d #373737;
#X msg 139 221 -wait \$1;
#X floatatom 139 191 5 0 0 0 - - - 12;
#X obj 479 59 adc~ 1;
#X obj 599 59 dc.audio.onoff~;
#X obj 479 97 meter~;
#X obj 179 330 dc.trigger.frame~;
#X obj 179 280 adc~ 1;
#X obj 323 366 declare -path FluidCorpusManipulation;
#X obj 302 532 array define \$0-loudness-stats;
#X floatatom 108 730 5 0 0 0 - - - 12;
#X obj 319 744 dc.calibrate;
#X obj 374 708 tgl 25 0 empty empty empty 17 7 0 10 #e4e4e4 #4d4d4d #373737 0 1;
#X obj 323 792 vsl 17 128 0 1 0 0 empty empty empty 0 -9 0 10 #e4e4e4 #4d4d4d #373737 0 1;
#X floatatom 361 790 5 0 0 0 - - - 12;
#X floatatom 172 730 5 0 0 0 - - - 12;
#X obj 179 500 fluid.bufstats -select high -stats \$0-loudness-stats;
#X obj 179 447 fluid.bufloudness -select peak -hopsize 64 -kweighting 0 -truepeak 0 -windowsize 256 -blocking 1 -numchans 1, f 54;
#X obj 360 611 clone 2 fluid.multiarray pitch-stats;
#X obj 179 563 _lookup-buffer;
#X connect 0 0 1 0;
#X connect 1 0 3 0;
#X connect 3 0 4 0;
#X connect 3 1 10 1;
#X connect 5 0 3 0;
#X connect 6 0 5 0;
#X connect 7 0 9 0;
#X connect 10 0 21 0;
#X connect 11 0 10 0;
#X connect 15 0 17 0;
#X connect 15 0 18 0;
#X connect 16 0 15 1;
#X connect 20 0 23 0;
#X connect 21 0 20 0;
#X connect 23 0 19 0;
#X connect 23 0 15 0;
