#N canvas 827 239 734 565 12;
#X declare -path FluidCorpusManipulation;
#X obj 239 70 bng 25 250 50 0 empty empty empty 17 7 0 10 #e4e4e4 #4d4d4d #000000;
#X obj 239 107 openpanel 1;
#X obj 279 219 file glob;
#X msg 279 252 \$2 \$1;
#X obj 279 284 route 0;
#X msg 279 181 symbol \$1/*.wav;
#X obj 239 350 zl.group;
#X obj 239 139 t b l;
#X obj 250 566 soundfiler;
#X msg 250 533 read -resize \$1 \$2-buf;
#X obj 239 841 array define \$0-buf;
#X obj 250 459 pack s \$0;
#X obj 39 459 symbol;
#X obj 39 494 file splitname;
#X obj 39 561 file splitext;
#X msg 39 527 symbol \$2;
#X obj 239 793 text define _dc-buffers;
#X obj 239 708 text insert _dc-buffers;
#X msg 723 676 6;
#X obj 239 676 prepend list;
#X obj 721 753 text get _dc-buffers;
#X obj 756 832 print;
#X obj 721 722 text search _dc-buffers 0;
#X msg 782 625 clap_po_2;
#X obj 782 665 symbol;
#X msg 239 760 clear;
#X obj 239 381 iter;
#X msg 871 625 kick_po;
#X msg 871 665 snare_po;
#X obj 729 937 bng 25 250 50 0 empty empty empty 17 7 0 10 #e4e4e4 #4d4d4d #000000;
#X floatatom 729 1021 5 0 0 0 - - - 12;
#X obj 735 977 array size \$0-buf;
#X msg 39 596 \$1;
#X text 326 565 size in samples \, samplerate \, headersize \, channels;
#X text 130 493 get the filename (without path and extension), f 14;
#X text 363 218 search folder for all files ending on .wav, f 22;
#X text 285 380 iterate over all files found;
#X text 317 349 group the files;
#X text 326 642 join as list and store;
#X text 403 532 load the file into the buffer (give unique name);
#X obj 239 643 join 4;
#X msg 340 596 \$2-buf;
#X obj 239 419 t a a;
#X obj 250 494 t l l;
#X text 399 595 store the unique buffer name as well, f 32;
#X obj 721 799 zl.ecils 1;
#X text 370 840 store audio in buffer;
#X obj 723 350 declare -path FluidCorpusManipulation;
#X connect 0 0 1 0;
#X connect 1 0 7 0;
#X connect 2 0 3 0;
#X connect 3 0 4 0;
#X connect 4 0 6 0;
#X connect 5 0 2 0;
#X connect 6 0 26 0;
#X connect 7 0 6 0;
#X connect 7 1 5 0;
#X connect 8 0 40 1;
#X connect 8 1 40 2;
#X connect 9 0 8 0;
#X connect 11 0 43 0;
#X connect 12 0 13 0;
#X connect 13 0 15 0;
#X connect 14 0 32 0;
#X connect 15 0 14 0;
#X connect 18 0 22 0;
#X connect 19 0 17 0;
#X connect 20 0 45 0;
#X connect 22 0 20 0;
#X connect 23 0 24 0;
#X connect 24 0 22 0;
#X connect 25 0 16 0;
#X connect 26 0 42 0;
#X connect 27 0 24 0;
#X connect 28 0 24 0;
#X connect 29 0 31 0;
#X connect 31 0 30 0;
#X connect 32 0 40 0;
#X connect 40 0 19 0;
#X connect 41 0 40 3;
#X connect 42 0 12 0;
#X connect 42 1 11 0;
#X connect 43 0 9 0;
#X connect 43 1 41 0;
#X connect 45 1 21 0;
