#N canvas 827 239 734 565 12;
#X declare -path drumcode/pd;
#X obj 125 43 adc~ 1;
#X obj 125 80 meter~;
#X obj 185 280 abs~;
#X obj 83 362 slide~ 20 690;
#X obj 81 400 atodb~;
#X obj 300 400 atodb~;
#X obj 125 235 cross~ 1700;
#X floatatom 195 185 5 0 0 0 - - - 12;
#X obj 186 445 -~;
#X obj 186 534 *~;
#X obj 79 741 minmax~;
#X obj 206 600 edge~;
#X obj 277 44 declare -path drumcode/pd;
#X floatatom 81 805 5 0 0 0 - - - 12;
#X obj 83 885 vsl 17 128 0 1 0 0 empty empty empty 0 -9 0 10 #e4e4e4 #4d4d4d #373737 0 1;
#X obj 187 486 thresh~ 3.8 5.5;
#X obj 301 362 slide~ 1215 1215;
#X obj 358 443 numbox~ 4 15 100 #E4E4E4 #4D4D4D 10 0 0 0;
#X obj 301 484 >~ -60;
#X obj 206 699 t b b;
#X obj 126 599 change~;
#X obj 126 638 ==~ 1;
#X obj 206 666 onebang 1;
#X obj 253 633 delay 44;
#X obj 79 841 scale -40 -10 0 1;
#X obj 80 533 clip~ -60 0;
#X obj 258 935 snapshot~;
#X obj 262 1040 vsl 17 128 0 1 0 0 empty empty empty 0 -9 0 10 #e4e4e4 #4d4d4d #373737 0 1;
#X floatatom 258 966 5 0 0 0 - - - 12;
#X obj 259 780 sah~ 0.5;
#X obj 340 779 edge~;
#X obj 296 737 delay~ 140 140;
#X obj 289 832 change~;
#X obj 289 860 edge~;
#X msg 379 888 offset \$1;
#X obj 382 830 blocksize~;
#X obj 381 859 - 1;
#X obj 396 792 loadbang;
#X text 364 561 inspired and based on discussion and post from tremblap/constanza/harker at flucoma forum https://discourse.flucoma.org/t/real-time-onset-detection-example/163/16, f 39;
#X obj 259 1002 scale -40 0 0 1;
#X connect 0 0 1 0;
#X connect 1 0 6 0;
#X connect 2 0 3 0;
#X connect 2 0 16 0;
#X connect 3 0 4 0;
#X connect 4 0 8 0;
#X connect 4 0 25 0;
#X connect 5 0 8 1;
#X connect 5 0 17 0;
#X connect 5 0 18 0;
#X connect 6 1 2 0;
#X connect 7 0 6 1;
#X connect 8 0 15 0;
#X connect 9 0 20 0;
#X connect 9 0 11 0;
#X connect 10 1 29 0;
#X connect 10 3 13 0;
#X connect 11 0 22 0;
#X connect 13 0 24 0;
#X connect 15 0 9 0;
#X connect 16 0 5 0;
#X connect 18 0 9 1;
#X connect 19 0 10 0;
#X connect 20 0 21 0;
#X connect 21 0 10 1;
#X connect 21 0 31 0;
#X connect 22 0 23 0;
#X connect 22 0 19 0;
#X connect 23 0 22 1;
#X connect 24 0 14 0;
#X connect 25 0 10 0;
#X connect 26 0 28 0;
#X connect 28 0 39 0;
#X connect 29 0 26 0;
#X connect 29 0 32 0;
#X connect 31 0 29 1;
#X connect 31 0 30 0;
#X connect 32 0 33 0;
#X connect 33 0 26 0;
#X connect 34 0 26 0;
#X connect 35 0 36 0;
#X connect 36 0 34 0;
#X connect 37 0 35 0;
#X connect 39 0 27 0;
