#N canvas 827 239 734 565 12;
#X declare -path drumcode/pd;
#X declare -path cyclone;
#X declare -path else;
#X obj 125 43 adc~ 1;
#X obj 125 80 meter~;
#X obj 185 280 abs~;
#X obj 83 362 slide~ 20 690;
#X obj 81 400 atodb~;
#X obj 300 400 atodb~;
#X obj 125 235 cross~ 1700;
#X floatatom 195 185 5 0 0 0 - - - 12;
#X obj 186 445 -~;
#X obj 186 534 *~;
#X obj 79 741 minmax~;
#X obj 206 600 edge~;
#X obj 277 44 declare -path drumcode/pd;
#X floatatom 81 805 5 0 0 0 - - - 12;
#X obj 83 885 vsl 17 128 0 1 0 0 empty empty empty 0 -9 0 10 #e4e4e4 #4d4d4d #373737 0 1;
#X obj 187 486 thresh~ 3.8 5.5;
#X obj 301 362 slide~ 1215 1215;
#X obj 358 443 numbox~ 4 15 100 #E4E4E4 #4D4D4D 10 0 0 0;
#X obj 301 484 >~ -60;
#X obj 206 699 t b b;
#X obj 126 599 change~;
#X obj 126 638 ==~ 1;
#X obj 206 666 onebang 1;
#X obj 253 633 delay 44;
#X obj 79 841 scale -40 -10 0 1;
#X obj 80 533 clip~ -60 0;
#X obj 258 935 snapshot~;
#X obj 262 1040 vsl 17 128 0 1 0 0 empty empty empty 0 -9 0 10 #e4e4e4 #4d4d4d #373737 0 1;
#X floatatom 258 966 5 0 0 0 - - - 12;
#X obj 259 780 sah~ 0.5;
#X obj 340 779 edge~;
#X obj 296 737 delay~ 140 140;
#X obj 289 832 change~;
#X obj 289 860 edge~;
#X msg 379 888 offset \$1;
#X obj 382 830 blocksize~;
#X obj 381 859 - 1;
#X obj 396 792 loadbang;
#X text 352 576 inspired and based on discussion and post from tremblap/constanza/harker at flucoma forum https://discourse.flucoma.org/t/real-time-onset-detection-example/163/16, f 39;
#X obj 259 1002 scale -40 0 0 1;
#X obj 731 44 adc~ 1;
#X obj 731 81 meter~;
#X obj 819 259 dc.trigger~;
#X obj 822 79 hsl 128 17 0 127 0 0 empty empty empty -2 -8 0 10 #e4e4e4 #4d4d4d #373737 0 1;
#X obj 821 105 / 127;
#X obj 873 105 hsl 128 17 0 127 0 0 empty empty empty -2 -8 0 10 #e4e4e4 #4d4d4d #373737 0 1;
#X obj 872 131 / 127;
#X obj 1039 219 dc.trigger.display;
#X obj 525 79 declare -path cyclone;
#X obj 525 108 declare -path else;
#X floatatom 942 145 5 0 0 0 - - - 12;
#X msg 941 176 -wait \$1;
#X obj 803 674 dc.synth~;
#X obj 804 710 gain~ 1 0 20 0 1;
#A saved;
#X obj 799 880 dac~;
#X msg 803 400 48;
#X obj 803 303 dc.peak~;
#X obj 803 356 bng 25 250 50 0 empty empty empty 17 7 0 10 #e4e4e4 #4d4d4d #373737;
#X floatatom 850 355 5 0 0 0 - - - 12;
#X obj 734 314 bng 25 250 50 0 empty empty empty 17 7 0 10 #e4e4e4 #4d4d4d #373737;
#X obj 799 833 tanh~;
#X obj 850 400 dc.calibrate;
#X obj 850 444 scale 0 1 0 1;
#X floatatom 956 400 5 0 0 0 - - - 12;
#X obj 854 515 vsl 17 128 0 127 0 0 empty empty empty 0 -9 0 10 #e4e4e4 #4d4d4d #373737 0 1;
#X obj 968 600 clip 0 127;
#X obj 905 341 tgl 25 0 empty empty empty 17 7 0 10 #e4e4e4 #4d4d4d #373737 0 1;
#X obj 850 474 * 127;
#X obj 656 552 dc.note.scale minor e;
#X obj 656 521 scale 0 127 48 60;
#X obj 1114 599 atodb;
#X floatatom 1117 552 5 0 0 0 - - - 12;
#X floatatom 1112 645 5 0 0 0 - - - 12;
#X obj 1117 513 scale 0 127 0 1;
#X obj 1119 341 vsl 17 128 0 127 0 0 empty empty empty 0 -9 0 10 #e4e4e4 #4d4d4d #373737 0 1;
#X connect 0 0 1 0;
#X connect 1 0 6 0;
#X connect 2 0 3 0;
#X connect 2 0 16 0;
#X connect 3 0 4 0;
#X connect 4 0 8 0;
#X connect 4 0 25 0;
#X connect 5 0 8 1;
#X connect 5 0 17 0;
#X connect 5 0 18 0;
#X connect 6 1 2 0;
#X connect 7 0 6 1;
#X connect 8 0 15 0;
#X connect 9 0 20 0;
#X connect 9 0 11 0;
#X connect 10 1 29 0;
#X connect 10 3 13 0;
#X connect 11 0 22 0;
#X connect 13 0 24 0;
#X connect 15 0 9 0;
#X connect 16 0 5 0;
#X connect 18 0 9 1;
#X connect 19 0 10 0;
#X connect 20 0 21 0;
#X connect 21 0 10 1;
#X connect 21 0 31 0;
#X connect 22 0 23 0;
#X connect 22 0 19 0;
#X connect 23 0 22 1;
#X connect 24 0 14 0;
#X connect 25 0 10 0;
#X connect 26 0 28 0;
#X connect 28 0 39 0;
#X connect 29 0 26 0;
#X connect 29 0 32 0;
#X connect 31 0 29 1;
#X connect 31 0 30 0;
#X connect 32 0 33 0;
#X connect 33 0 26 0;
#X connect 34 0 26 0;
#X connect 35 0 36 0;
#X connect 36 0 34 0;
#X connect 37 0 35 0;
#X connect 39 0 27 0;
#X connect 40 0 41 0;
#X connect 41 0 42 0;
#X connect 41 0 56 0;
#X connect 42 0 59 0;
#X connect 42 1 56 1;
#X connect 42 2 47 0;
#X connect 43 0 44 0;
#X connect 44 0 42 1;
#X connect 45 0 46 0;
#X connect 46 0 42 2;
#X connect 50 0 51 0;
#X connect 51 0 42 0;
#X connect 52 0 53 0;
#X connect 53 0 60 0;
#X connect 56 0 57 0;
#X connect 56 1 58 0;
#X connect 57 0 55 0;
#X connect 58 0 61 0;
#X connect 60 0 54 1;
#X connect 60 0 54 0;
#X connect 61 0 62 0;
#X connect 62 0 67 0;
#X connect 63 0 62 5;
#X connect 64 0 52 1;
#X connect 64 0 52 3;
#X connect 66 0 61 1;
#X connect 67 0 64 0;
#X connect 67 0 69 0;
#X connect 68 0 52 0;
#X connect 69 0 68 0;
#X connect 70 0 72 0;
#X connect 71 0 70 0;
#X connect 73 0 71 0;
#X connect 74 0 73 0;
