#N canvas 559 99 900 695 12;
#X declare -path else;
#X declare -path cyclone;
#X obj 459 103 bng 21 250 50 0 empty empty empty 0 -11 0 12 #fcfcfc #000000 #000000;
#X obj 539 39 declare -path else;
#X obj 59 179 edge~;
#X obj 31 212 bng 25 250 50 0 empty empty empty 17 7 0 10 #e4e4e4 #4d4d4d #373737;
#X obj 199 93 adc~ 1;
#X obj 536 218 edge~;
#X obj 536 254 bng 25 250 50 0 empty empty empty 17 7 0 10 #e4e4e4 #4d4d4d #373737;
#X obj 199 193 scope~ 69 64 256 3 128 -1 1 0 0 0 0 77 77 77 228 228 228 183 183 183 0 empty;
#X obj 457 160 click~;
#X obj 43 298 timer;
#X floatatom 43 328 5 0 0 0 - - - 12;
#X obj 43 356 ms2samps;
#X floatatom 43 392 5 0 0 0 - - - 12;
#X obj 301 122 add~;
#X obj 301 93 sig~ 1;
#X obj 301 183 sah~;
#X obj 301 218 cyclone/snapshot~ 5;
#X floatatom 301 298 5 0 0 0 - - - 12;
#X obj 609 130 dsponoff~;
#X obj 539 68 declare -path cyclone;
#X obj 457 218 dac~ 3;
#X obj 59 139 greaterthan~ 0.5;
#X obj 536 376 dac~ 3;
#X obj 536 335 click~;
#X obj 379 334 blocksize~;
#X floatatom 379 364 5 0 0 0 - - - 12;
#X obj 379 298 bng 25 250 50 0 empty empty empty 17 7 0 10 #e4e4e4 #4d4d4d #373737;
#X obj 379 391 * 2;
#X obj 301 358 -;
#X floatatom 302 426 5 0 0 0 - - - 12;
#X floatatom 220 460 5 0 0 0 - - - 12;
#X obj 220 424 samps2ms;
#X text 219 518 Measure added latency from MOTU M4: 105 samples: ~ 2.381ms;
#X connect 0 0 8 0;
#X connect 2 0 3 0;
#X connect 2 0 9 1;
#X connect 4 0 7 0;
#X connect 4 0 21 0;
#X connect 5 0 6 0;
#X connect 6 0 9 0;
#X connect 8 0 5 0;
#X connect 8 0 13 1;
#X connect 8 0 20 0;
#X connect 9 0 10 0;
#X connect 10 0 11 0;
#X connect 11 0 12 0;
#X connect 13 0 15 0;
#X connect 14 0 13 0;
#X connect 15 0 16 0;
#X connect 16 0 17 0;
#X connect 17 0 28 0;
#X connect 21 0 2 0;
#X connect 21 0 15 1;
#X connect 23 0 22 0;
#X connect 24 0 25 0;
#X connect 25 0 27 0;
#X connect 26 0 24 0;
#X connect 27 0 28 1;
#X connect 28 0 29 0;
#X connect 28 0 31 0;
#X connect 31 0 30 0;
