#N canvas 827 239 734 565 12;
#X declare -path drumcode/pd;
#X declare -path cyclone;
#X declare -path else;
#X obj 219 39 declare -path drumcode/pd;
#X obj 474 120 adc~;
#X obj 474 159 meter~;
#X obj 474 315 dc.trigger~;
#X obj 344 549 int;
#X msg 344 909 0 0 0 0 0 0 0 0;
#X obj 344 883 prepend set;
#X floatatom 293 699 5 0 0 0 - - - 12;
#X msg 512 658 1;
#X msg 328 494 0;
#X msg 219 909 0 0 0 0 0 0 0 0;
#X obj 219 883 prepend set;
#X obj 219 461 buddy;
#X obj 219 517 t b;
#X obj 471 494 timer;
#X obj 474 435 t b b;
#X obj 326 461 t b b b;
#X obj 509 590 >;
#X obj 205 72 send bpm;
#X floatatom 205 125 5 0 0 0 - - - 12;
#X obj 605 372 receive bpm;
#X obj 605 412 !/ 240000;
#X obj 605 556 / 2;
#X obj 605 494 pak f f;
#X obj 205 159 send quantize;
#X obj 679 449 receive quantize;
#X floatatom 631 449 5 0 0 0 - - - 12;
#X obj 605 525 /;
#X obj 512 778 zl.mth;
#X obj 512 747 zl.reg;
#X obj 344 732 zl.slice 8;
#X obj 344 698 zl.join;
#X obj 567 698 t b b;
#X msg 580 732 0 1;
#X msg 512 909 1 0 1 0 1 0 1 0;
#X obj 512 883 prepend set;
#X obj 509 626 sel 1;
#X obj 219 840 zl.rev;
#X obj 59 512 dc.synth~;
#X obj 57 680 dac~;
#X msg 59 472 72;
#X msg 102 472 79;
#X obj 57 389 bng 25 250 50 0 empty empty empty 17 7 0 10 #e4e4e4 #4d4d4d #373737;
#X floatatom 605 604 5 0 0 0 - - - 12;
#X obj 263 418 t b b;
#X obj 219 804 zl.reg;
#X obj 551 233 hsl 128 17 0 1 0 0 empty empty empty -2 -8 0 10 #e4e4e4 #4d4d4d #373737 0 1;
#X floatatom 453 536 5 0 0 0 - - - 12;
#X obj 474 399 bng 25 250 50 0 empty empty empty 17 7 0 10 #e4e4e4 #4d4d4d #373737;
#X obj 605 261 key;
#X obj 605 293 sel 32;
#X obj 738 549 cputime;
#X obj 766 493 bng 25 250 50 0 empty empty empty 17 7 0 10 #e4e4e4 #4d4d4d #373737;
#X obj 721 485 bng 25 250 50 0 empty empty empty 17 7 0 10 #e4e4e4 #4d4d4d #373737;
#X floatatom 737 599 5 0 0 0 - - - 12;
#X obj 747 94 declare -path cyclone;
#X obj 747 131 declare -path else;
#X obj -27 39 tgl 25 0 empty empty empty 17 7 0 10 #e4e4e4 #4d4d4d #373737 0 1;
#X floatatom 166 25 5 0 0 0 - - - 12;
#X obj 94 100 print;
#X obj 57 213 bng 25 250 50 0 empty empty empty 17 7 0 10 #e4e4e4 #4d4d4d #373737;
#X obj 57 72 metronome -name dc;
#X obj 57 180 clock -s dc;
#X obj 102 389 bng 25 250 50 0 empty empty empty 17 7 0 10 #e4e4e4 #4d4d4d #373737;
#X obj 102 356 clock -s dc;
#X msg 154 321 0.25;
#X obj -52 422 bng 25 250 50 0 empty empty empty 17 7 0 10 #e4e4e4 #4d4d4d #373737;
#X obj -52 389 clock -s dc;
#X msg 2 353 2;
#X obj 52 104 bng 25 250 50 0 empty empty empty 17 7 0 10 #e4e4e4 #4d4d4d #373737;
#X obj 59 626 *~;
#X obj 147 514 vsl 17 128 -70 3 0 0 empty empty empty 0 -9 0 10 #e4e4e4 #4d4d4d #373737 0 1;
#X obj 143 658 dbtoa;
#X obj -335 236 metro;
#X obj -335 180 tgl 25 0 empty empty empty 17 7 0 10 #e4e4e4 #4d4d4d #373737 0 1;
#X floatatom -266 180 13 0 0 0 - - - 24;
#X obj -335 279 timer;
#X floatatom -335 553 18 0 0 0 - - - 12;
#X floatatom -266 44 5 0 0 0 - - - 12;
#X obj -266 86 !/ 60000;
#X obj -266 117 / 480;
#X obj -287 315 counter;
#X obj -287 415 % 480;
#X obj -287 447 sel 0;
#X obj -287 484 bng 25 250 50 0 empty empty empty 17 7 0 10 #e4e4e4 #4d4d4d #373737;
#X obj -208 447 sel 0;
#X obj -208 484 bng 25 250 50 0 empty empty empty 17 7 0 10 #e4e4e4 #4d4d4d #373737;
#X obj -208 415 % 1920;
#X obj -287 358 t f f f;
#X obj -130 447 sel 0;
#X obj -130 484 bng 25 250 50 0 empty empty empty 17 7 0 10 #e4e4e4 #4d4d4d #373737;
#X obj -130 415 % 240;
#X obj -193 82 send bpm;
#X obj 547 517 -;
#X floatatom 547 549 5 0 0 0 - - - 12;
#X connect 1 0 2 0;
#X connect 2 0 3 0;
#X connect 3 0 48 0;
#X connect 4 0 31 0;
#X connect 6 0 5 0;
#X connect 7 0 30 1;
#X connect 8 0 4 1;
#X connect 9 0 4 1;
#X connect 11 0 10 0;
#X connect 13 0 45 0;
#X connect 14 0 17 0;
#X connect 14 0 47 0;
#X connect 14 0 93 0;
#X connect 15 1 14 1;
#X connect 16 0 9 0;
#X connect 16 1 4 0;
#X connect 16 2 14 0;
#X connect 17 0 36 0;
#X connect 19 0 24 0;
#X connect 20 0 21 0;
#X connect 21 0 26 0;
#X connect 21 0 23 0;
#X connect 22 0 17 1;
#X connect 22 0 43 0;
#X connect 22 0 93 1;
#X connect 23 0 27 0;
#X connect 25 0 23 1;
#X connect 27 0 22 0;
#X connect 28 1 31 1;
#X connect 28 1 35 0;
#X connect 28 1 45 1;
#X connect 29 0 28 0;
#X connect 30 0 6 0;
#X connect 30 0 31 1;
#X connect 30 0 29 1;
#X connect 30 0 45 1;
#X connect 31 0 30 0;
#X connect 32 0 29 0;
#X connect 32 1 33 0;
#X connect 33 0 28 1;
#X connect 35 0 34 0;
#X connect 36 0 8 0;
#X connect 36 1 32 0;
#X connect 37 0 11 0;
#X connect 38 0 70 0;
#X connect 40 0 38 0;
#X connect 41 0 38 0;
#X connect 42 0 40 0;
#X connect 44 0 16 0;
#X connect 44 1 12 1;
#X connect 45 0 37 0;
#X connect 46 0 3 1;
#X connect 48 0 15 0;
#X connect 49 0 50 0;
#X connect 50 0 48 0;
#X connect 51 0 54 0;
#X connect 52 0 51 1;
#X connect 53 0 51 0;
#X connect 57 0 61 0;
#X connect 57 0 62 0;
#X connect 57 0 64 0;
#X connect 57 0 67 0;
#X connect 58 0 18 0;
#X connect 58 0 61 1;
#X connect 60 0 42 0;
#X connect 61 0 69 0;
#X connect 61 1 59 0;
#X connect 62 0 60 0;
#X connect 63 0 41 0;
#X connect 63 0 12 0;
#X connect 64 0 63 0;
#X connect 65 0 64 1;
#X connect 66 0 44 0;
#X connect 67 0 66 0;
#X connect 68 0 67 1;
#X connect 70 0 39 1;
#X connect 71 0 72 0;
#X connect 72 0 70 1;
#X connect 73 0 76 1;
#X connect 73 0 76 0;
#X connect 74 0 73 0;
#X connect 75 0 73 1;
#X connect 76 0 77 0;
#X connect 76 0 81 0;
#X connect 78 0 79 0;
#X connect 78 0 92 0;
#X connect 79 0 80 0;
#X connect 80 0 75 0;
#X connect 81 0 88 0;
#X connect 82 0 83 0;
#X connect 83 0 84 0;
#X connect 84 0 40 0;
#X connect 85 0 86 0;
#X connect 86 0 41 0;
#X connect 86 0 13 0;
#X connect 87 0 85 0;
#X connect 88 0 87 0;
#X connect 88 1 82 0;
#X connect 88 2 91 0;
#X connect 89 0 90 0;
#X connect 90 0 44 0;
#X connect 91 0 89 0;
#X connect 93 0 94 0;
