#N canvas 827 239 527 327 12;
#X declare -path ~/Sync/work/projects/drumcode/pd;
#X obj 683 242 bng 25 250 50 0 empty empty empty 17 7 0 10 #e4e4e4 #4d4d4d #000000;
#X obj 689 25 declare -path ~/Sync/work/projects/drumcode/pd;
#X floatatom 683 324 5 0 0 0 - - - 12;
#X obj 683 283 dc.timer;
#X obj 683 444 list;
#X obj 683 501 print;
#X obj 683 362 split 30 2000;
#X msg 747 396 bang;
#X obj 645 444 t l;
#X obj 799 581 metro 400;
#X obj 852 530 dc.step;
#X obj 799 362 tgl 25 0 empty empty empty 17 7 0 10 #e4e4e4 #4d4d4d #000000 0 1;
#X obj 800 773 gain~ 1 0 20 0 0.850193;
#A saved;
#X obj 795 905 dac~;
#X obj 799 726 dc.beep~;
#X msg 799 687 70;
#X obj 799 620 t b b;
#X obj 799 444 t b b;
#X obj 799 404 sel 1;
#X obj 950 412 zl.rev;
#X msg 950 477 359 1291;
#X obj 950 444 prepend set;
#X floatatom 895 620 5 0 0 0 - - - 12;
#X obj 847 412 bng 25 250 50 0 empty empty empty 17 7 0 10 #e4e4e4 #4d4d4d #000000;
#X obj 907 575 print;
#X obj 63 196 phasor~;
#X floatatom 63 25 5 0 0 0 - - - 12;
#X floatatom 63 89 5 0 0 0 - - - 12;
#X obj 63 56 / 240;
#X obj 63 767 scope~ 200 100 256 3 128 -1 1 0 0 0 0 77 77 77 228 228 228 183 183 183 0 empty;
#X obj 112 588 gain~ 1 0 20 0 0.657319;
#A saved;
#X obj 107 712 dac~;
#X obj 111 463 bng 25 250 50 0 empty empty empty 17 7 0 10 #e4e4e4 #4d4d4d #000000;
#X obj 111 543 dc.beep~;
#X msg 111 504 70;
#X floatatom 141 389 5 0 0 0 - - - 12;
#X obj 404 25 adc~;
#X obj 404 225 dc.trigger~;
#X obj 404 71 meter~;
#X msg 407 321 1;
#X obj 363 627 int;
#X floatatom 377 382 5 0 0 0 - - - 12;
#X msg 349 575 0;
#X obj 347 522 t b b;
#X obj 363 664 zl.join;
#X obj 363 703 zl.slice 16;
#X msg 363 800 0 0 0 0 0 0 0 0 0 0 0 0 0 0 0 0;
#X obj 363 765 prepend set;
#X obj 208 455 bng 25 250 50 0 empty empty empty 17 7 0 10 #e4e4e4 #4d4d4d #000000;
#X msg 396 864 0 0 0 0 0 0 0 0 0 0 0 0 0 0 0 0;
#X obj 396 835 prepend set;
#X obj 208 543 dc.beep~;
#X msg 208 504 77;
#X obj 122 25 tgl 25 0 empty empty empty 17 7 0 10 #e4e4e4 #4d4d4d #000000 0 1;
#X obj 122 60 sel 1;
#X obj 63 150 f;
#X msg 137 147 0;
#X obj 122 105 t b b;
#X obj 404 257 bng 25 250 50 0 empty empty empty 17 7 0 10 #e4e4e4 #4d4d4d #000000;
#X obj 363 732 zl.rev;
#N canvas 733 172 450 300 div~ 0;
#X obj 111 355 delta~;
#X obj 111 423 edge~;
#X obj 111 388 <~;
#X obj 111 283 *~;
#X obj 111 321 %~ 1;
#X obj 63 196 inlet~;
#X obj 122 241 inlet~;
#X obj 111 463 outlet;
#X connect 0 0 2 0;
#X connect 1 0 7 0;
#X connect 2 0 1 0;
#X connect 3 0 4 0;
#X connect 4 0 0 0;
#X connect 5 0 3 0;
#X connect 6 0 3 1;
#X restore 111 418 pd div~;
#N canvas 733 172 450 300 div~ 0;
#X obj 111 355 delta~;
#X obj 111 423 edge~;
#X obj 111 321 %~ 1;
#X obj 63 196 inlet~;
#X obj 119 199 inlet~;
#X obj 111 463 outlet;
#X obj 111 283 *~ 1;
#X obj 111 388 <~ 0;
#X connect 0 0 7 0;
#X connect 1 0 5 0;
#X connect 2 0 0 0;
#X connect 3 0 6 0;
#X connect 4 0 6 1;
#X connect 6 0 2 0;
#X connect 7 0 1 0;
#X restore 208 418 pd div~;
#X floatatom 238 389 5 0 0 0 - - - 12;
#N canvas 733 172 450 300 div~ 0;
#X obj 111 355 delta~;
#X obj 111 423 edge~;
#X obj 111 321 %~ 1;
#X obj 63 196 inlet~;
#X obj 147 196 inlet~;
#X obj 111 463 outlet;
#X obj 111 388 <~ 0;
#X obj 111 283 *~;
#X connect 0 0 6 0;
#X connect 1 0 5 0;
#X connect 2 0 0 0;
#X connect 3 0 7 0;
#X connect 4 0 7 1;
#X connect 6 0 1 0;
#X connect 7 0 2 0;
#X restore 347 412 pd div~;
#X obj 347 444 bng 25 250 50 0 empty empty empty 17 7 0 10 #e4e4e4 #4d4d4d #000000;
#X obj 297 765 delay 5;
#X obj 347 483 delay 4;
#X obj 409 943 sum;
#X obj 363 1012 spigot;
#X obj 363 902 t l l;
#X obj 409 974 > 3;
#X msg 363 1085 1 0 1 0 1 0 0 0 1 0 0 0 1 0 1 0;
#X obj 363 1056 prepend set;
#X obj 411 575 send sixteenth;
#X obj 557 1085 dc.step;
#X obj 560 1244 gain~ 1 0 20 0 0;
#A saved;
#X obj 555 1368 dac~;
#X obj 559 1199 dc.beep~;
#X obj 557 1120 sel 1;
#X obj 647 992 receive sixteenth;
#X obj 607 1115 tgl 25 0 empty empty empty 17 7 0 10 #e4e4e4 #4d4d4d #000000 0 1;
#X msg 559 1160 60;
#X connect 0 0 3 0;
#X connect 2 0 6 0;
#X connect 3 0 2 0;
#X connect 4 0 8 0;
#X connect 4 0 5 0;
#X connect 4 0 19 0;
#X connect 6 0 4 0;
#X connect 6 1 7 0;
#X connect 7 0 4 1;
#X connect 8 0 4 1;
#X connect 9 0 16 0;
#X connect 10 0 9 1;
#X connect 10 0 22 0;
#X connect 10 0 24 0;
#X connect 11 0 18 0;
#X connect 12 0 13 0;
#X connect 12 0 13 1;
#X connect 14 0 12 0;
#X connect 15 0 14 0;
#X connect 16 0 10 0;
#X connect 16 1 15 0;
#X connect 17 0 9 0;
#X connect 17 1 10 0;
#X connect 18 0 17 0;
#X connect 18 1 9 0;
#X connect 19 0 21 0;
#X connect 20 0 10 1;
#X connect 21 0 20 0;
#X connect 23 0 10 0;
#X connect 25 0 29 0;
#X connect 25 0 60 0;
#X connect 25 0 61 0;
#X connect 25 0 63 0;
#X connect 26 0 28 0;
#X connect 27 0 55 0;
#X connect 28 0 27 0;
#X connect 30 0 31 0;
#X connect 30 0 31 1;
#X connect 32 0 34 0;
#X connect 33 0 30 0;
#X connect 34 0 33 0;
#X connect 35 0 60 1;
#X connect 36 0 38 0;
#X connect 37 0 58 0;
#X connect 38 0 37 0;
#X connect 39 0 40 1;
#X connect 40 0 44 0;
#X connect 41 0 63 1;
#X connect 42 0 40 1;
#X connect 43 0 42 0;
#X connect 43 0 73 0;
#X connect 43 1 40 0;
#X connect 44 0 45 0;
#X connect 45 0 44 1;
#X connect 45 0 59 0;
#X connect 46 0 50 0;
#X connect 46 0 69 0;
#X connect 47 0 46 0;
#X connect 48 0 52 0;
#X connect 48 0 65 0;
#X connect 48 0 20 0;
#X connect 50 0 49 0;
#X connect 51 0 30 0;
#X connect 52 0 51 0;
#X connect 53 0 54 0;
#X connect 54 0 57 0;
#X connect 54 1 25 0;
#X connect 55 0 25 0;
#X connect 56 0 25 1;
#X connect 57 0 55 0;
#X connect 57 1 56 0;
#X connect 58 0 39 0;
#X connect 58 0 0 0;
#X connect 59 0 47 0;
#X connect 60 0 32 0;
#X connect 61 0 48 0;
#X connect 62 0 61 1;
#X connect 63 0 64 0;
#X connect 64 0 66 0;
#X connect 65 0 46 0;
#X connect 66 0 43 0;
#X connect 67 0 70 0;
#X connect 68 0 72 0;
#X connect 68 0 74 1;
#X connect 69 0 68 0;
#X connect 69 1 67 0;
#X connect 70 0 68 1;
#X connect 72 0 71 0;
#X connect 74 0 78 0;
#X connect 74 0 80 0;
#X connect 75 0 76 0;
#X connect 75 0 76 1;
#X connect 77 0 75 0;
#X connect 78 0 81 0;
#X connect 79 0 74 0;
#X connect 81 0 77 0;
