#N canvas 827 239 734 565 12;
#X declare -path drumcode/pd;
#X obj 59 59 declare -path drumcode/pd;
#X obj 59 100 tgl 25 0 empty empty empty 17 7 0 10 #e4e4e4 #4d4d4d #373737 0 1;
#X floatatom 59 180 5 0 0 0 - - - 12;
#X floatatom 129 180 5 0 0 0 - - - 12;
#X obj 59 281 dc.gain~;
#X obj 59 436 dac~;
#X obj 59 140 dc.transport 90 -name foo;
#X obj 59 240 dc.clicktrack~ -name foo;
#X obj 389 281 timer;
#X obj 404 59 adc~ 1;
#X obj 404 100 dc.trigger~;
#X obj 455 140 dc.trigger.display;
#X obj 404 140 bng 25 250 50 0 empty empty empty 17 7 0 10 #e4e4e4 #4d4d4d #373737;
#X obj 254 240 t b b b;
#X floatatom 389 314 5 0 0 0 - - - 12;
#X text 303 381 if larger than half quantize time trigger 1 for next beat, f 20;
#X obj 389 436 >;
#X floatatom 480 275 5 0 0 0 - - - 12;
#X floatatom 129 100 5 0 0 0 - - - 12;
#X floatatom 480 446 5 0 0 0 - - - 12;
#X obj 480 305 !/ 240000;
#X obj 480 418 / 2;
#X obj 480 359 pak f 16;
#X obj 480 386 / 1;
#X floatatom 561 305 5 0 0 0 - - - 12;
#X obj 335 579 int 0;
#X msg 392 530 1;
#X obj 322 499 t b b;
#X msg 324 524 0;
#X obj 335 652 zl.slice 16;
#X obj 335 619 zl.join;
#X listbox 351 783 22 0 0 0 - - - 16;
#X obj 254 209 dc.metronome 16 -name foo;
#X obj 389 499 sel 1 0;
#X text 467 592 set previous to 1 if trigger was detected after the beat, f 18;
#X obj 420 619 zl.reg;
#X obj 71 524 dc.metronome 1 -name foo;
#X text 212 576 set step to 1 if trigger detected before the next hit, f 17;
#X obj 613 567 uzi;
#X msg 615 595 0;
#X obj 613 623 zl.group;
#X text 651 595 init with empty array;
#X obj 453 531 t f f;
#X obj 455 500 nbx 4 18 -1e+37 1e+37 0 0 empty empty empty 0 -8 0 10 #e4e4e4 #4d4d4d #373737 0 256;
#X floatatom 254 177 5 0 0 0 - - - 12;
#X obj 243 278 bng 25 250 50 0 empty empty empty 17 7 0 10 #e4e4e4 #4d4d4d #373737;
#X obj 406 468 tgl 25 0 empty empty empty 17 7 0 10 #e4e4e4 #4d4d4d #373737 0 1;
#X obj 512 489 print;
#X obj 420 654 replace 1 1;
#X obj 281 774 zl.reg;
#X obj 336 733 t l l;
#X obj 337 700 zl.rev;
#X listbox 286 833 22 0 0 0 - - - 16;
#X obj 97 723 buddy;
#X obj 256 60 dc.audio.onoff~;
#X obj 700 59 adc~ 1;
#X obj 700 100 dc.trigger~;
#X obj 700 169 dc.pattern.analysis -name foo;
#X listbox 700 240 23 0 0 0 - - - 16;
#X listbox 862 205 23 0 0 0 - - - 16;
#X floatatom 803 100 5 0 0 0 - - - 12;
#X floatatom 862 100 5 0 0 0 - - - 12;
#X obj 662 149 bng 25 250 50 0 empty empty empty 17 7 0 10 #e4e4e4 #4d4d4d #373737;
#X obj 97 754 t b;
#X obj 185 656 blocksize~;
#X obj 185 619 bng 25 250 50 0 empty empty empty 17 7 0 10 #e4e4e4 #4d4d4d #373737;
#X floatatom 185 689 5 0 0 0 - - - 12;
#X obj 71 656 delay 0;
#X obj 185 716 samps2ms;
#X connect 1 0 6 0;
#X connect 4 0 5 1;
#X connect 6 0 2 0;
#X connect 6 1 3 0;
#X connect 7 0 4 0;
#X connect 8 0 14 0;
#X connect 9 0 10 0;
#X connect 10 0 12 0;
#X connect 10 2 11 0;
#X connect 12 0 8 1;
#X connect 13 0 45 0;
#X connect 13 1 27 0;
#X connect 13 2 8 0;
#X connect 14 0 16 0;
#X connect 16 0 33 0;
#X connect 16 0 46 0;
#X connect 17 0 20 0;
#X connect 18 0 6 1;
#X connect 19 0 16 1;
#X connect 20 0 22 0;
#X connect 21 0 19 0;
#X connect 22 0 23 0;
#X connect 23 0 21 0;
#X connect 24 0 22 1;
#X connect 25 0 30 0;
#X connect 26 0 25 1;
#X connect 27 0 28 0;
#X connect 27 1 25 0;
#X connect 28 0 25 1;
#X connect 29 0 35 1;
#X connect 29 0 30 1;
#X connect 29 0 51 0;
#X connect 30 0 29 0;
#X connect 32 0 13 0;
#X connect 33 0 26 0;
#X connect 33 1 35 0;
#X connect 33 1 47 0;
#X connect 35 0 48 0;
#X connect 36 0 67 0;
#X connect 38 0 39 0;
#X connect 38 1 40 0;
#X connect 39 0 40 0;
#X connect 40 0 29 0;
#X connect 42 0 29 1;
#X connect 42 1 38 0;
#X connect 43 0 42 0;
#X connect 44 0 24 0;
#X connect 44 0 32 0;
#X connect 45 0 53 1;
#X connect 48 0 30 1;
#X connect 48 0 51 0;
#X connect 49 0 52 0;
#X connect 50 0 49 1;
#X connect 50 1 31 0;
#X connect 51 0 50 0;
#X connect 53 0 63 0;
#X connect 55 0 56 0;
#X connect 56 0 62 0;
#X connect 56 0 57 0;
#X connect 57 0 58 0;
#X connect 57 1 59 0;
#X connect 60 0 57 1;
#X connect 61 0 57 2;
#X connect 63 0 49 0;
#X connect 64 0 66 0;
#X connect 65 0 64 0;
#X connect 66 0 68 0;
#X connect 67 0 53 0;
#X connect 68 0 67 1;
