#N canvas 827 239 734 565 12;
#X declare -path drumcode/pd;
#X obj 59 59 declare -path drumcode/pd;
#X obj 59 100 tgl 25 0 empty empty empty 17 7 0 10 #e4e4e4 #4d4d4d #373737 0 1;
#X floatatom 59 180 5 0 0 0 - - - 12;
#X floatatom 129 180 5 0 0 0 - - - 12;
#X obj 59 299 dc.gain~;
#X obj 59 454 dac~;
#X obj 59 140 dc.transport 90 -name foo;
#X obj 59 258 dc.clicktrack~ -name foo;
#X floatatom 129 100 5 0 0 0 - - - 12;
#X obj 256 60 dc.audio.onoff~;
#X obj 256 140 adc~ 1;
#X obj 256 181 dc.trigger~;
#X listbox 182 482 23 0 0 0 - - - 16;
#X listbox 359 436 23 0 0 0 - - - 16;
#X obj 256 220 bng 25 250 50 0 empty empty empty 17 7 0 10 #e4e4e4 #4d4d4d #373737;
#X obj 307 220 dc.trigger.display;
#N canvas 733 172 450 300 dc.pattern.gate 0;
#X obj 151 488 sum;
#X obj 139 459 t l l;
#X obj 127 554 gate;
#X obj 152 514 > 2;
#X obj 256 396 inlet;
#X obj 179 619 outlet;
#X connect 0 0 3 0;
#X connect 1 0 2 1;
#X connect 1 1 0 0;
#X connect 2 0 5 0;
#X connect 3 0 2 0;
#X connect 4 0 1 0;
#X restore 210 436 pd dc.pattern.gate;
#X obj 256 396 dc.rhythm.analyse -name foo;
#X obj 335 357 nbx 4 18 -1e+37 1e+37 0 1 empty empty empty 0 -8 0 10 #e4e4e4 #4d4d4d #373737 8 256;
#X obj 415 357 nbx 4 18 -1e+37 1e+37 0 1 empty empty empty 0 -8 0 10 #e4e4e4 #4d4d4d #373737 8 256;
#X obj 129 212 bng 25 250 50 0 empty empty empty 17 7 0 10 #e4e4e4 #4d4d4d #373737;
#X obj 256 558 dc.rhythm.match 1 0 1 1;
#X obj 256 593 tgl 25 0 empty empty empty 17 7 0 10 #e4e4e4 #4d4d4d #373737 0 1;
#X msg 379 526 0 1 1 0;
#X connect 1 0 6 0;
#X connect 3 0 20 0;
#X connect 4 0 5 1;
#X connect 6 0 2 0;
#X connect 6 1 3 0;
#X connect 7 0 4 0;
#X connect 8 0 6 1;
#X connect 10 0 11 0;
#X connect 11 0 14 0;
#X connect 11 2 15 0;
#X connect 14 0 17 0;
#X connect 17 0 12 0;
#X connect 17 0 21 0;
#X connect 17 1 13 0;
#X connect 18 0 17 1;
#X connect 19 0 17 2;
#X connect 21 0 22 0;
#X connect 23 0 21 1;
