#N canvas 85 57 807 882 12;
#X declare -path FluidCorpusManipulation;
#X declare -path cyclone;
#X declare -path else;
#X declare -path ~/Sync/work/projects/drumcode/pd;
#X obj 266 40 declare -path FluidCorpusManipulation;
#X obj 55 39 adc~ 1;
#X obj 93 91 scope~ 130 130 16 3 256 -1 1 0 0 0 0 205 229 232 74 79 77 96 98 102 0 empty;
#X obj 266 71 declare -path cyclone;
#X obj 727 38 dsponoff~;
#X obj 56 434 *~;
#X obj 106 342 clip -60 0;
#X obj 106 372 expr 0.083 * pow(( $f1 + 60 )/10 \, 2.48) + 1;
#X floatatom 106 309 5 0 0 0 - - - 0;
#X obj 56 502 thresh~;
#X obj 274 435 clip 0 1;
#X obj 275 469 scale 0 1 35 4 0.5;
#X floatatom 274 405 5 0 0 0 - - - 0;
#X floatatom 423 469 5 0 0 0 - - - 0;
#X obj 422 499 clip 0 1;
#X obj 362 574 * 0.5;
#X obj 317 608 pak f 7;
#X obj 363 543 pak f 0.3;
#X obj 316 636 - 1;
#X obj 524 245 vsl 19 162 0 1 0 0 empty empty empty 0 -9 0 12 #fcfcfc #000000 #000000 0 1;
#X obj 561 246 vsl 19 162 0 1 0 0 empty empty empty 0 -9 0 12 #fcfcfc #000000 #000000 0 1;
#X obj 56 530 edge~;
#X obj 55 789 print;
#X obj 56 243 fluid.ampfeature~ -slowrampdown 1215 -slowrampup 1215 -floor -60 -fastrampdown 690 -fastrampup 20 -highpassfreq 1700, f 64;
#X obj 56 629 t 0 b;
#X obj 55 705 t b b;
#X obj 134 601 delay 64;
#X obj 55 669 gate 1 1;
#X msg 134 629 1;
#X obj 266 102 declare -path else;
#X obj 78 742 counter;
#X obj 275 500 t f f f;
#X obj 465 601 routetype;
#X obj 946 149 scope~ 81 61 64 3 64 -1 1 0 0 0 0 77 77 77 228 228 228 183 183 183 0 empty;
#X obj 802 36 meter~;
#X obj 723 293 abs~;
#X obj 664 380 atodb~;
#X floatatom 821 309 5 0 0 0 - - - 12;
#X obj 803 397 slide~ 10 1000;
#X obj 821 341 mstosamps~;
#X floatatom 926 309 5 0 0 0 - - - 12;
#X obj 926 341 mstosamps~;
#X obj 663 670 scope~ 101 101 128 3 128 -1 1 0 0 0 0 77 77 77 228 228 228 183 183 183 0 empty;
#X obj 664 426 dbtoa~;
#X obj 723 150 adc~ 2;
#X floatatom 926 395 5 0 0 0 - - - 12;
#X obj 803 598 thresh~ 0.03 0.1;
#X floatatom 1010 457 5 0 0 0 - - - 12;
#X obj 957 499 dbtoa;
#X floatatom 1078 457 5 0 0 0 - - - 12;
#X obj 1010 564 dbtoa;
#X obj 1010 503 pak f f;
#X obj 1010 536 -;
#X obj 950 670 edge~;
#X obj 903 710 bng 25 250 50 0 empty empty empty 17 7 0 10 #e4e4e4 #4d4d4d #373737;
#X obj 950 710 click~;
#X obj 950 942 dac~ 3 4;
#X obj 950 743 *~ 4;
#X obj 926 421 dbtoa;
#X obj 821 457 maximum~ 0.01;
#X obj 664 536 scope~ 101 101 128 3 128 -1 1 0 0 0 0 77 77 77 228 228 228 183 183 183 0 empty;
#X obj 950 775 svf~ 500 0.9;
#X obj 1071 630 vsl 19 162 0 1 0 0 empty empty empty 0 -9 0 12 #fcfcfc #000000 #000000 0 1;
#X obj 950 818 *~;
#X obj 1127 529 vsl 19 162 0 127 0 0 empty empty empty 0 -9 0 12 #fcfcfc #000000 #000000 0 1;
#X obj 1127 742 dbtoa;
#X obj 1128 806 line~;
#X obj 1124 858 snapshot~;
#X obj 1201 806 metro 5;
#X obj 1200 764 tgl 19 0 empty empty empty 0 -10 0 12 #fcfcfc #000000 #000000 0 1;
#X floatatom 1125 893 5 0 0 0 - - - 0;
#X msg 1127 776 \$1 1000;
#X obj 1128 710 scale 0 127 -70 0;
#X obj 266 134 declare -path ~/Sync/work/projects/drumcode/pd;
#X text 880 37 alternative for meter~ ? meter~ is part of ELSE library;
#X connect 1 0 2 0;
#X connect 1 0 23 0;
#X connect 5 0 9 0;
#X connect 6 0 7 0;
#X connect 7 0 5 1;
#X connect 8 0 6 0;
#X connect 9 0 21 0;
#X connect 10 0 11 0;
#X connect 11 0 31 0;
#X connect 12 0 10 0;
#X connect 13 0 14 0;
#X connect 14 0 17 1;
#X connect 15 0 16 1;
#X connect 16 0 18 0;
#X connect 17 0 15 0;
#X connect 18 0 9 1;
#X connect 19 0 12 0;
#X connect 20 0 13 0;
#X connect 21 0 24 0;
#X connect 23 0 5 0;
#X connect 24 0 27 0;
#X connect 24 1 27 1;
#X connect 25 0 30 0;
#X connect 25 1 26 0;
#X connect 26 0 28 0;
#X connect 27 0 25 0;
#X connect 28 0 27 0;
#X connect 30 0 22 0;
#X connect 31 0 9 2;
#X connect 31 1 16 0;
#X connect 31 2 17 0;
#X connect 35 0 38 0;
#X connect 37 0 39 0;
#X connect 38 0 59 0;
#X connect 38 0 60 0;
#X connect 38 0 46 0;
#X connect 39 1 38 1;
#X connect 40 0 41 0;
#X connect 41 1 38 2;
#X connect 44 0 35 0;
#X connect 44 0 33 0;
#X connect 44 0 34 0;
#X connect 45 0 58 0;
#X connect 46 0 42 0;
#X connect 46 0 53 0;
#X connect 47 0 48 0;
#X connect 47 0 51 0;
#X connect 48 0 46 2;
#X connect 49 0 51 1;
#X connect 50 0 46 1;
#X connect 51 0 52 0;
#X connect 52 0 50 0;
#X connect 53 0 55 0;
#X connect 53 0 54 0;
#X connect 55 0 57 0;
#X connect 57 0 61 0;
#X connect 58 0 59 1;
#X connect 61 0 63 0;
#X connect 63 0 56 0;
#X connect 63 0 56 1;
#X connect 64 0 72 0;
#X connect 65 0 63 1;
#X connect 65 0 71 0;
#X connect 66 0 67 0;
#X connect 67 0 70 0;
#X connect 68 0 67 0;
#X connect 69 0 68 0;
#X connect 71 0 66 0;
#X connect 72 0 65 0;
