#N canvas 827 239 734 565 12;
#X declare -path drumcode/pd;
#X obj 79 79 declare -path drumcode/pd;
#X obj 79 139 adc~ 1;
#X obj 436 139 adc~ 2;
#X obj 79 181 meter~;
#X obj 436 181 meter~;
#X obj 79 342 dc.trigger~;
#X obj 436 342 dc.trigger~;
#X obj 79 744 dc.synth~;
#X obj 79 452 dc.trigger.timecontrols;
#X obj 81 782 gain~ 1 0 20 0 0;
#A saved;
#X obj 76 915 dac~ 1 2;
#X obj 153 644 hsl 128 17 0 127 0 1 empty empty empty -2 -8 0 10 #e4e4e4 #4d4d4d #000000 0 1;
#X obj 150 695 scale 0 127 70 0;
#X obj 436 379 bng 25 250 50 0 empty empty empty 17 7 0 10 #e4e4e4 #4d4d4d #000000;
#X obj 79 379 bng 25 250 50 0 empty empty empty 17 7 0 10 #e4e4e4 #4d4d4d #000000;
#X obj 436 583 dc.random 48 50;
#X obj 436 423 dc.trigger.timecontrols;
#X obj 436 638 dc.note.scale minor_harmonic;
#X obj 436 762 dc.synth~;
#X obj 503 809 dc.fx.delay~;
#X obj 437 854 gain~ 1 0 20 0 0;
#A saved;
#X obj 432 987 dac~ 1 2;
#X obj 504 854 gain~ 1 0 20 0 0;
#A saved;
#X obj 604 809 dc.fx.delay~;
#X obj 605 854 gain~ 1 0 20 0 0;
#A saved;
#X obj 646 762 hsl 128 17 0 127 0 1 empty empty empty -2 -8 0 10 #e4e4e4 #4d4d4d #000000 6396 1;
#X obj 481 726 hsl 128 17 0 127 0 1 empty empty empty -2 -8 0 10 #e4e4e4 #4d4d4d #000000 3000 1;
#X floatatom 540 501 5 0 0 0 - - - 12;
#X obj 506 460 scale 0 127 48 72;
#X obj 269 695 scale 0 127 30 110;
#X obj 662 342 dc.trigger~;
#X obj 682 300 hsl 128 17 0 1 0 1 empty empty empty -2 -8 0 10 #e4e4e4 #4d4d4d #000000 15 1;
#X obj 662 382 bng 25 250 50 0 empty empty empty 17 7 0 10 #e4e4e4 #4d4d4d #000000;
#X obj 662 426 dc.trigger.timecontrols;
#X obj 779 463 nbx 4 18 -1e+37 1e+37 0 0 empty empty empty 0 -8 0 10 #e4e4e4 #000000 #000000 0 256;
#X obj 779 501 sel 4;
#X obj 79 644 int 36;
#X obj 186 583 dc.note.scale minor_harmonic;
#X obj 847 501 sel 5;
#X obj 847 535 tgl 25 0 empty empty empty 17 7 0 10 #e4e4e4 #4d4d4d #000000 0 1;
#X obj 941 923 dc.synth~;
#X obj 942 1038 gain~ 1 0 20 0 0;
#A saved;
#X obj 937 1188 dac~ 1 2;
#X obj 975 843 hsl 128 17 0 127 0 1 empty empty empty -2 -8 0 10 #e4e4e4 #4d4d4d #000000 2839 1;
#X obj 1002 878 hsl 128 17 0 127 0 1 empty empty empty -2 -8 0 10 #e4e4e4 #4d4d4d #000000 7358 1;
#X obj 941 726 dc.random 48 72;
#X obj 132 416 send kick;
#X obj 941 462 r kick;
#X obj 941 501 random 100;
#X obj 941 536 < 20;
#X obj 941 623 gate;
#X obj 1017 1032 gain2~ 1 0 20 0 0;
#A saved;
#X obj 941 570 sel 1;
#X floatatom 887 804 5 0 0 0 - - - 12;
#X obj 186 551 dc.step 36 39 38 34;
#X obj 941 670 uzi 5;
#X obj 941 762 dc.note.scale minor_harmonic;
#X obj 1017 985 dc.fx.reverb~;
#X obj 1055 904 hsl 128 17 0 127 0 1 empty empty empty -2 -8 0 10 #e4e4e4 #4d4d4d #000000 9166 1;
#X obj 1082 939 hsl 128 17 0 127 0 1 empty empty empty -2 -8 0 10 #e4e4e4 #4d4d4d #000000 4542 1;
#X obj 279 79 dc.audio.onoff~;
#X connect 1 0 3 0;
#X connect 2 0 4 0;
#X connect 3 0 5 0;
#X connect 4 0 6 0;
#X connect 4 0 30 0;
#X connect 5 0 14 0;
#X connect 6 0 13 0;
#X connect 7 0 9 0;
#X connect 8 0 36 0;
#X connect 8 3 11 0;
#X connect 9 0 10 0;
#X connect 9 0 10 1;
#X connect 11 0 12 0;
#X connect 11 0 29 0;
#X connect 12 0 7 2;
#X connect 13 0 16 0;
#X connect 14 0 8 0;
#X connect 14 0 46 0;
#X connect 15 0 17 0;
#X connect 16 0 15 0;
#X connect 16 3 28 0;
#X connect 17 0 18 0;
#X connect 18 0 19 0;
#X connect 18 0 20 0;
#X connect 18 0 23 0;
#X connect 19 0 22 0;
#X connect 20 0 21 0;
#X connect 20 0 21 1;
#X connect 22 0 21 0;
#X connect 23 0 24 0;
#X connect 24 0 21 1;
#X connect 25 0 23 2;
#X connect 25 0 19 2;
#X connect 26 0 18 3;
#X connect 28 0 27 0;
#X connect 28 0 15 2;
#X connect 29 0 7 3;
#X connect 29 0 26 0;
#X connect 30 0 32 0;
#X connect 31 0 30 1;
#X connect 32 0 33 0;
#X connect 33 5 34 0;
#X connect 34 0 35 0;
#X connect 34 0 38 0;
#X connect 35 0 54 0;
#X connect 36 0 7 0;
#X connect 37 0 36 1;
#X connect 38 0 39 0;
#X connect 39 0 50 0;
#X connect 40 0 41 0;
#X connect 40 0 57 0;
#X connect 41 0 42 0;
#X connect 41 0 42 1;
#X connect 43 0 40 2;
#X connect 44 0 40 3;
#X connect 45 0 56 0;
#X connect 47 0 48 0;
#X connect 48 0 49 0;
#X connect 49 0 52 0;
#X connect 50 0 55 0;
#X connect 51 0 42 0;
#X connect 51 1 42 1;
#X connect 52 0 50 1;
#X connect 54 0 37 0;
#X connect 55 0 45 0;
#X connect 56 0 40 0;
#X connect 56 0 53 0;
#X connect 57 0 51 0;
#X connect 57 1 51 1;
#X connect 58 0 57 1;
#X connect 59 0 57 2;
