#N canvas 827 239 734 565 12;
#X declare -path drumcode/pd;
#X obj 79 79 declare -path drumcode/pd;
#X obj 79 139 adc~ 1;
#X obj 281 139 adc~ 2;
#X obj 79 181 meter~;
#X obj 281 181 meter~;
#X obj 79 342 dc.trigger~;
#X obj 281 342 dc.trigger~;
#X obj 79 452 dc.trigger.timecontrols;
#X obj 281 379 bng 25 250 50 0 empty empty empty 17 7 0 10 #e4e4e4 #4d4d4d #000000;
#X obj 79 379 bng 25 250 50 0 empty empty empty 17 7 0 10 #e4e4e4 #4d4d4d #000000;
#X obj 281 452 dc.trigger.timecontrols;
#X obj 154 416 send kick;
#X obj 324 416 send snare;
#X obj 79 628 dc.sampler~;
#X msg 136 580 read;
#X obj 80 738 gain~ 1 0 20 0 0.776256;
#A saved;
#X obj 75 893 dac~;
#X obj 131 690 dc.fx.reverb~;
#X obj 136 738 gain2~ 1 0 20 0 0;
#A saved;
#X obj 281 628 dc.sampler~;
#X msg 333 580 read;
#X obj 282 738 gain~ 1 0 20 0 0.597415;
#A saved;
#X obj 277 893 dac~;
#X obj 333 690 dc.fx.reverb~;
#X obj 338 738 gain2~ 1 0 20 0 0.23208;
#A saved;
#X obj 79 539 random 10;
#X obj 281 539 scale 0 127 0 10;
#X obj 281 79 dc.audio.onoff~;
#X obj 154 181 scope~ 81 138 256 3 128 -1 1 0 0 0 0 77 77 77 228 228 228 183 183 183 0 empty;
#X connect 1 0 3 0;
#X connect 1 0 28 0;
#X connect 2 0 4 0;
#X connect 3 0 5 0;
#X connect 4 0 6 0;
#X connect 5 0 9 0;
#X connect 6 0 8 0;
#X connect 7 0 25 0;
#X connect 8 0 10 0;
#X connect 8 0 12 0;
#X connect 9 0 7 0;
#X connect 9 0 11 0;
#X connect 10 2 26 0;
#X connect 13 0 15 0;
#X connect 13 0 17 0;
#X connect 14 0 13 0;
#X connect 15 0 16 0;
#X connect 15 0 16 1;
#X connect 17 0 18 0;
#X connect 17 1 18 1;
#X connect 18 0 16 0;
#X connect 18 1 16 1;
#X connect 19 0 21 0;
#X connect 19 0 23 0;
#X connect 20 0 19 0;
#X connect 21 0 22 0;
#X connect 21 0 22 1;
#X connect 23 0 24 0;
#X connect 23 1 24 1;
#X connect 24 0 22 0;
#X connect 24 1 22 1;
#X connect 25 0 13 0;
#X connect 26 0 19 0;
