#N canvas 827 239 734 565 12;
#X declare -path drumcode/pd;
#X obj 79 79 declare -path drumcode/pd;
#X obj 79 139 adc~ 1;
#X obj 744 79 adc~ 2;
#X obj 79 181 meter~;
#X obj 744 121 meter~;
#X obj 79 342 dc.trigger~;
#X obj 79 744 dc.synth~;
#X obj 79 452 dc.trigger.timecontrols;
#X obj 153 644 hsl 128 17 0 127 0 1 empty empty empty -2 -8 0 10 #e4e4e4 #4d4d4d #000000 0 1;
#X obj 79 379 bng 25 250 50 0 empty empty empty 17 7 0 10 #e4e4e4 #4d4d4d #000000;
#X obj 436 583 dc.random 48 50;
#X obj 439 416 dc.trigger.timecontrols;
#X obj 436 762 dc.synth~;
#X obj 503 809 dc.fx.delay~;
#X obj 604 809 dc.fx.delay~;
#X obj 646 762 hsl 128 17 0 127 0 1 empty empty empty -2 -8 0 10 #e4e4e4 #4d4d4d #000000 7187 1;
#X obj 481 726 hsl 128 17 0 127 0 1 empty empty empty -2 -8 0 10 #e4e4e4 #4d4d4d #000000 3000 1;
#X floatatom 498 501 5 0 0 0 - - - 12;
#X obj 464 460 scale 0 127 48 72;
#X obj 269 695 scale 0 127 30 110;
#X obj 807 273 dc.trigger~;
#X obj 827 189 hsl 128 17 0 1 0 1 empty empty empty -2 -8 0 10 #e4e4e4 #4d4d4d #000000 6767 1;
#X obj 744 417 dc.trigger.timecontrols;
#X obj 861 454 nbx 4 18 -1e+37 1e+37 0 0 empty empty empty 0 -8 0 10 #e4e4e4 #000000 #000000 0 256;
#X obj 861 492 sel 4;
#X obj 79 644 int 36;
#X obj 929 492 sel 5;
#X obj 929 526 tgl 25 0 empty empty empty 17 7 0 10 #e4e4e4 #4d4d4d #000000 0 1;
#X obj 941 923 dc.synth~;
#X obj 975 843 hsl 128 17 0 127 0 1 empty empty empty -2 -8 0 10 #e4e4e4 #4d4d4d #000000 3507 1;
#X obj 1002 878 hsl 128 17 0 127 0 1 empty empty empty -2 -8 0 10 #e4e4e4 #4d4d4d #000000 7358 1;
#X obj 132 416 send kick;
#X obj 1074 459 r kick;
#X obj 1074 498 random 100;
#X obj 1074 533 < 20;
#X obj 1062 620 gate;
#X obj 1074 567 sel 1;
#X floatatom 887 804 5 0 0 0 - - - 12;
#X obj 186 551 dc.step 36 39 38 34;
#X obj 941 979 dc.fx.reverb~;
#X obj 1055 904 hsl 128 17 0 127 0 1 empty empty empty -2 -8 0 10 #e4e4e4 #4d4d4d #000000 7350 1;
#X obj 1082 939 hsl 128 17 0 127 0 1 empty empty empty -2 -8 0 10 #e4e4e4 #4d4d4d #000000 6360 1;
#X obj 279 79 dc.audio.onoff~;
#X obj 226 342 dc.trigger.display;
#X obj 1002 321 dc.trigger.display;
#X obj 79 787 dc.gain~;
#X obj 436 852 dc.gain~;
#X obj 503 852 dc.gain~;
#X obj 941 1017 dc.gain~;
#X obj 646 728 hsl 128 17 0 127 0 1 empty empty empty -2 -8 0 10 #e4e4e4 #4d4d4d #000000 5947 1;
#X obj 941 670 uzi 4;
#X obj 744 321 dc.trigger.velocity~;
#X obj 439 121 meter~;
#X obj 439 79 adc~ 3;
#X obj 467 306 dc.trigger~;
#X obj 588 283 dc.trigger.display;
#X obj 439 352 dc.trigger.velocity~;
#X obj 555 306 tgl 25 0 empty empty empty 17 7 0 10 #e4e4e4 #4d4d4d #373737 0 1;
#X obj 557 583 hsl 128 17 0 127 0 0 empty empty empty -2 -8 0 10 #e4e4e4 #4d4d4d #373737 0 1;
#X obj 900 269 tgl 25 0 empty empty empty 17 7 0 10 #e4e4e4 #4d4d4d #373737 0 1;
#X obj 845 379 hsl 128 17 0 127 0 0 empty empty empty -2 -8 0 10 #e4e4e4 #4d4d4d #373737 0 1;
#X obj 186 583 dc.note.scale minor a;
#X obj 436 638 dc.note.scale minor a;
#X obj 941 762 dc.note.scale minor a;
#X obj 744 379 dc.gate 70;
#X obj 941 726 dc.random 48 84;
#X obj 150 695 scale 0 127 80 20;
#X obj 862 219 hsl 128 17 0 1 0 1 empty empty empty -2 -8 0 10 #e4e4e4 #4d4d4d #000000 6180 1;
#X obj 439 273 *~;
#X obj 511 105 vsl 17 128 -24 24 0 0 empty empty empty 0 -9 0 10 #e4e4e4 #4d4d4d #373737 0 1;
#X obj 507 242 dbtoa;
#X obj 79 979 dc.gain~;
#X obj 79 1136 dac~ 1 2;
#X connect 1 0 3 0;
#X connect 2 0 4 0;
#X connect 3 0 5 0;
#X connect 4 0 20 0;
#X connect 4 0 51 0;
#X connect 5 0 9 0;
#X connect 5 2 43 0;
#X connect 6 0 45 0;
#X connect 7 0 25 0;
#X connect 7 3 8 0;
#X connect 8 0 19 0;
#X connect 8 0 66 0;
#X connect 9 0 7 0;
#X connect 9 0 31 0;
#X connect 10 0 62 0;
#X connect 11 0 10 0;
#X connect 11 3 18 0;
#X connect 12 0 13 0;
#X connect 12 0 14 0;
#X connect 12 0 46 0;
#X connect 13 0 47 0;
#X connect 14 0 47 1;
#X connect 15 0 14 1;
#X connect 16 0 12 3;
#X connect 18 0 17 0;
#X connect 18 0 10 2;
#X connect 19 0 6 3;
#X connect 19 0 16 0;
#X connect 20 1 51 1;
#X connect 20 2 44 0;
#X connect 21 0 20 1;
#X connect 22 5 23 0;
#X connect 23 0 24 0;
#X connect 23 0 26 0;
#X connect 24 0 38 0;
#X connect 25 0 6 0;
#X connect 26 0 27 0;
#X connect 27 0 35 0;
#X connect 28 0 39 0;
#X connect 29 0 28 2;
#X connect 30 0 28 3;
#X connect 32 0 33 0;
#X connect 33 0 34 0;
#X connect 34 0 36 0;
#X connect 35 0 50 0;
#X connect 36 0 35 1;
#X connect 38 0 61 0;
#X connect 39 0 48 0;
#X connect 39 1 48 1;
#X connect 40 0 39 1;
#X connect 41 0 39 2;
#X connect 45 0 71 0;
#X connect 45 0 71 1;
#X connect 46 0 71 0;
#X connect 46 0 71 1;
#X connect 47 0 71 0;
#X connect 47 1 71 1;
#X connect 48 0 71 0;
#X connect 48 1 71 1;
#X connect 49 0 13 1;
#X connect 50 0 65 0;
#X connect 51 1 60 0;
#X connect 51 1 64 0;
#X connect 52 0 68 0;
#X connect 53 0 52 0;
#X connect 54 1 56 1;
#X connect 54 2 55 0;
#X connect 56 0 11 0;
#X connect 56 1 58 0;
#X connect 57 0 56 2;
#X connect 58 0 12 1;
#X connect 59 0 51 2;
#X connect 61 0 25 1;
#X connect 62 0 12 0;
#X connect 63 0 28 0;
#X connect 63 0 37 0;
#X connect 64 0 22 0;
#X connect 65 0 63 0;
#X connect 66 0 6 2;
#X connect 67 0 20 2;
#X connect 68 0 54 0;
#X connect 68 0 56 0;
#X connect 69 0 70 0;
#X connect 70 0 68 1;
#X connect 71 0 72 0;
#X connect 71 1 72 1;
