#N canvas 827 239 734 565 12;
#X obj 59 59 inlet;
#X obj 270 268 soundfiler;
#X obj 59 161 symbol;
#X obj 59 196 file splitname;
#X obj 59 263 file splitext;
#X msg 59 229 symbol \$2;
#X msg 59 298 \$1;
#X text 346 267 size in samples \, samplerate \, headersize \, channels;
#X text 150 195 get the filename (without path and extension), f 14;
#X text 346 344 join as list and store;
#X text 479 234 load the file into the buffer (give unique name);
#X obj 259 345 join 4;
#X obj 59 120 t a a;
#X obj 270 196 t l l;
#X text 479 297 store the unique buffer name as well, f 32;
#X text 259 57 load a single file in a buffer/array, f 31;
#X text 259 84 store the file information in the text object for the buffer to easily recall the samples based on the file name, f 51;
#X obj 59 382 array define \$0-\$1-buffer;
#X obj 270 161 pack s \$0 \$1;
#X msg 270 235 read -resize \$1 \$2-\$3-buffer, f 27;
#X msg 367 298 \$2-\$3-buffer;
#X obj 259 382 outlet;
#X connect 0 0 12 0;
#X connect 1 0 11 1;
#X connect 1 1 11 2;
#X connect 2 0 3 0;
#X connect 3 0 5 0;
#X connect 4 0 6 0;
#X connect 5 0 4 0;
#X connect 6 0 11 0;
#X connect 11 0 21 0;
#X connect 12 0 2 0;
#X connect 12 1 18 0;
#X connect 13 0 19 0;
#X connect 13 1 20 0;
#X connect 18 0 13 0;
#X connect 19 0 1 0;
#X connect 20 0 11 3;
