#N canvas 827 239 734 565 12;
#X obj 59 142 t b a;
#X obj 59 283 array get;
#X obj 157 239 prepend symbol;
#X obj 59 239 int 0;
#X obj 59 320 outlet (number) value from buffer at index;
#X obj 197 142 args;
#X obj 197 111 loadbang;
#X obj 251 142 inlet (number) index to lookup;
#X obj 59 95 route buffer array;
#X obj 59 59 inlet (buffer/array) buffer from fluid analysis;
#X obj 197 177 unjoin 2;
#X obj 102 239 int 1;
#X text 497 58 lookup a value from an incoming buffer from a FluCoMa analysis. Optional value as first argument is the index to lookup at. Optional second argument sets the amount of points you want to output from the set index., f 26;
#X connect 0 0 11 0;
#X connect 0 0 3 0;
#X connect 0 1 2 0;
#X connect 1 0 4 0;
#X connect 2 0 1 2;
#X connect 3 0 1 0;
#X connect 5 0 10 0;
#X connect 6 0 5 0;
#X connect 7 0 10 0;
#X connect 8 0 0 0;
#X connect 8 1 0 0;
#X connect 9 0 8 0;
#X connect 10 0 3 1;
#X connect 10 1 11 1;
#X connect 11 0 1 1;
