#N canvas 827 239 734 565 12;
#X declare -path drumcode/pd;
#X declare -path else;
#X declare -path cyclone;
#X obj 59 436 *~;
#X obj 59 279 cyclone/line~;
#X obj 59 394 *~;
#X obj 59 99 / 127;
#X msg 126 316 0;
#X msg 164 279 1;
#X obj 59 353 *~ 0.707;
#X obj 164 353 switch~;
#X obj 59 206 pack f f;
#X msg 59 237 \$1 5 0 \$2;
#X obj 197 279 loadbang;
#X obj 59 59 inlet (number) Velocity;
#X obj 139 99 inlet (number) Duration;
#X obj 59 514 outlet~ (signal);
#X obj 279 279 noise~;
#X obj 355 99 inlet (number) Filter Frequency;
#X obj 317 353 dc.fx.filter~;
#X obj 317 424 declare -path drumcode/pd;
#X obj 317 452 declare -path else;
#X obj 317 480 declare -path cyclone;
#X obj 59 138 t f b;
#X obj 410 138 inlet (number) Filter Resonance;
#X obj 399 206 f 40;
#X obj 344 206 f 70;
#X connect 0 0 13 0;
#X connect 1 0 6 0;
#X connect 1 1 4 0;
#X connect 2 0 0 0;
#X connect 3 0 20 0;
#X connect 4 0 7 0;
#X connect 5 0 7 0;
#X connect 6 0 2 1;
#X connect 6 0 2 0;
#X connect 8 0 9 0;
#X connect 9 0 1 0;
#X connect 9 0 5 0;
#X connect 10 0 4 0;
#X connect 11 0 3 0;
#X connect 12 0 8 1;
#X connect 14 0 16 0;
#X connect 15 0 23 1;
#X connect 16 0 0 1;
#X connect 20 0 8 0;
#X connect 20 1 22 0;
#X connect 20 1 23 0;
#X connect 21 0 22 1;
#X connect 22 0 16 2;
#X connect 23 0 16 1;
