#N canvas 827 239 734 565 12;
#X obj 59 98 t b f;
#X obj 145 137 / 127;
#X msg 285 455 0;
#X msg 326 418 1;
#X obj 323 496 switch~;
#X obj 59 223 float;
#X obj 356 418 loadbang;
#X obj 59 59 inlet (number) MIDI;
#X obj 145 98 inlet (number) Velocity;
#X obj 204 186 inlet (number) Duration;
#X obj 146 496 outlet~ (signal);
#X obj 59 359 click~;
#X obj 59 303 t b;
#X obj 259 359 pink~;
#X obj 146 461 hip~ 10;
#X obj 146 429 pluck~ -in;
#X obj 145 186 mtof;
#X msg 101 303 set \$1;
#X obj 59 259 t f f;
#X obj 244 303 f 2000;
#X obj 59 159 t b b;
#X obj 181 303 f 1000;
#X obj 323 385 delay 1000;
#X obj 323 359 + 5;
#X obj 270 223 inlet (number) Damping;
#X connect 0 0 20 0;
#X connect 0 1 16 0;
#X connect 1 0 5 1;
#X connect 2 0 4 0;
#X connect 3 0 4 0;
#X connect 5 0 18 0;
#X connect 6 0 2 0;
#X connect 7 0 0 0;
#X connect 8 0 1 0;
#X connect 9 0 21 1;
#X connect 11 0 15 1;
#X connect 12 0 11 0;
#X connect 12 0 2 0;
#X connect 13 0 15 4;
#X connect 14 0 10 0;
#X connect 15 0 14 0;
#X connect 16 0 15 0;
#X connect 17 0 11 0;
#X connect 18 0 12 0;
#X connect 18 1 17 0;
#X connect 19 0 15 3;
#X connect 20 0 5 0;
#X connect 20 1 19 0;
#X connect 20 1 21 0;
#X connect 21 0 15 2;
#X connect 21 0 23 0;
#X connect 22 0 3 0;
#X connect 23 0 22 0;
#X connect 24 0 19 1;
