#N canvas 827 239 734 565 12;
#X obj 59 119 t b f;
#X obj 59 456 *~;
#X obj 59 299 cyclone/line~;
#X obj 59 414 *~;
#X obj 268 220 mtof;
#X obj 197 117 / 127;
#X msg 126 336 0;
#X msg 164 299 1;
#X obj 59 373 *~ 0.707;
#X obj 164 377 switch~;
#X obj 59 226 pack f f;
#X msg 59 257 \$1 5 0 \$2;
#X obj 59 183 float;
#X obj 268 414 cos~;
#X obj 268 257 phasor~;
#X obj 268 336 pow~;
#X obj 342 299 cyclone/line~ 2;
#X msg 342 257 \$1 10;
#X obj 197 299 loadbang;
#X obj 59 59 inlet (number) MIDI;
#X obj 197 59 inlet (number) Velocity;
#X obj 279 119 inlet (number) Duration;
#X obj 342 159 inlet (number) Phase Distortion;
#X obj 59 500 outlet~ (signal);
#X connect 0 0 12 0;
#X connect 0 1 4 0;
#X connect 1 0 23 0;
#X connect 2 0 8 0;
#X connect 2 1 6 0;
#X connect 3 0 1 0;
#X connect 4 0 14 0;
#X connect 5 0 12 1;
#X connect 6 0 9 0;
#X connect 7 0 9 0;
#X connect 8 0 3 1;
#X connect 8 0 3 0;
#X connect 10 0 11 0;
#X connect 11 0 2 0;
#X connect 11 0 7 0;
#X connect 12 0 10 0;
#X connect 13 0 1 1;
#X connect 14 0 15 0;
#X connect 15 0 13 0;
#X connect 16 0 15 1;
#X connect 17 0 16 0;
#X connect 18 0 6 0;
#X connect 19 0 0 0;
#X connect 20 0 5 0;
#X connect 21 0 10 1;
#X connect 22 0 17 0;
