#N canvas 827 239 527 327 12;
#X obj 59 342 r \$0-tgl-s;
#X msg 59 374 \; pd dsp \$1;
#X msg 92 196 0;
#X msg 62 196 1;
#X obj 59 305 s \$0-tgl-r;
#X msg 59 274 set \$1;
#X obj 59 233 change -1;
#X obj 90 153 r pd-dsp-stopped;
#X obj 59 120 r pd-dsp-started;
#X text 240 58 dc.audio.onoff;
#X text 240 105 A helper abstraction to set DSP on and off \, based on ELSE's [dsponoff~] object., f 25;
#N canvas 313 129 304 335 set_color 0;
#X obj 47 30 inlet;
#X obj 67 351 s \$0-cnv;
#X obj 47 83 select 0 1;
#X obj 47 491 s \$0-tgl-r;
#X obj 97 30 r \$0-tgl-s;
#X obj 105 317 s \$0-tgl-r;
#X obj 77 458 s \$0-cnv;
#X obj 105 202 s \$0-cnv;
#X msg 130 134 label sound\ on;
#X msg 105 164 label sound\ off;
#X msg 67 248 color #646464 0 #FFFFFF;
#X msg 105 286 color #646464 #FFFFFF 0;
#X msg 47 386 color #E4E4E4 #7C7C7C 0;
#X msg 77 429 color #E4E4E4 0 #7C7C7C;
#X connect 0 0 2 0;
#X connect 2 0 9 0;
#X connect 2 0 12 0;
#X connect 2 1 8 0;
#X connect 2 1 10 0;
#X connect 4 0 2 0;
#X connect 8 0 7 0;
#X connect 9 0 7 0;
#X connect 10 0 1 0;
#X connect 10 0 11 0;
#X connect 11 0 5 0;
#X connect 12 0 3 0;
#X connect 12 0 13 0;
#X connect 13 0 6 0;
#X restore 129 274 pd set_color;
#X obj 59 59 tgl 25 0 \$0-tgl-s \$0-tgl-r empty 17 7 0 10 #646464 #ffffff #fcfcfc 0 1;
#X obj 87 59 cnv 25 87 25 empty \$0-cnv sound\ on 6 12 0 18 #646464 #ffffff 0;
#X connect 0 0 1 0;
#X connect 2 0 6 0;
#X connect 3 0 6 0;
#X connect 5 0 4 0;
#X connect 6 0 5 0;
#X connect 6 0 11 0;
#X connect 7 0 2 0;
#X connect 8 0 3 0;
#X coords 0 0 1 1 119 29 2 57 57;
