#N canvas 827 239 527 327 12;
#X obj 59 182 zl.join;
#X obj 59 221 zl.slice 4;
#X msg 59 140 zlclear;
#X obj 59 304 / 4;
#X obj 122 262 zl.len;
#X obj 59 262 zl.sum;
#X obj 59 59 inlet;
#X obj 59 100 route clear;
#X obj 159 139 clip 2 256;
#X obj 159 100 args;
#X obj 217 100 inlet;
#X text 103 58 1 (number) average this number;
#X text 261 99 2 (number) history size (default = 4 \, min = 2 \, max = 256), f 28;
#X obj 59 353 outlet;
#X text 105 351 (number) the rolling average;
#X text 498 58 dc.average;
#X text 498 96 Compute a rolling average from the incoming number over a history of numbers. The size of the history can be adjusted \, but the default is 4, f 28;
#X connect 0 0 1 0;
#X connect 1 0 0 1;
#X connect 1 0 4 0;
#X connect 1 0 5 0;
#X connect 2 0 0 0;
#X connect 3 0 13 0;
#X connect 4 0 3 1;
#X connect 5 0 3 0;
#X connect 6 0 7 0;
#X connect 7 0 2 0;
#X connect 7 1 0 0;
#X connect 8 0 1 1;
#X connect 9 0 8 0;
#X connect 10 0 8 0;
