#N canvas 827 239 527 327 12;
#X obj 59 182 zl.join;
#X obj 59 221 zl.slice 4;
#X msg 59 140 zlclear;
#X obj 59 304 / 4;
#X obj 122 262 zl.len;
#X obj 59 262 zl.sum;
#X obj 59 100 route clear;
#X obj 159 179 clip 2 256;
#X obj 159 140 args;
#X text 479 96 Compute a rolling average from the incoming number over a history of numbers. The size of the history can be adjusted \, but the default is 4, f 40;
#X obj 159 100 loadbang;
#X obj 479 59 cnv 15 283 29 empty empty dc.average 20 13 0 20 #00deb1 #ffffff 0;
#X obj 59 59 inlet (number) average this number;
#X obj 216 125 inlet (number) history size (default = 4 \, min = 2 \, max = 256), f 29;
#X obj 59 353 outlet (number) the rolling average;
#X connect 0 0 1 0;
#X connect 1 0 0 1;
#X connect 1 0 4 0;
#X connect 1 0 5 0;
#X connect 2 0 0 0;
#X connect 3 0 14 0;
#X connect 4 0 3 1;
#X connect 5 0 3 0;
#X connect 6 0 2 0;
#X connect 6 1 0 0;
#X connect 7 0 1 1;
#X connect 8 0 7 0;
#X connect 10 0 8 0;
#X connect 12 0 6 0;
#X connect 13 0 7 0;
