#N canvas 827 239 527 327 12;
#X declare -path else;
#X declare -path cyclone;
#X obj 59 299 t b f;
#X obj 70 641 *~;
#X obj 203 471 cyclone/line~;
#X obj 203 549 *~;
#X obj 70 367 mtof;
#X obj 144 263 / 127;
#X obj 619 59 cnv 15 283 29 empty empty dc.beep~ 20 13 0 20 #00deb1 #ffffff 0;
#X text 619 96 A simple monophonic sinewave beep. Useful to quickly create a sound to test if a patch is working \, to create a clicktrack to play along with \, or to actually use for musical purposes of course!, f 41;
#X obj 59 263 int 60;
#X obj 284 219 args;
#X obj 284 182 loadbang;
#X obj 284 276 unjoin 2;
#X msg 270 508 0;
#X msg 308 471 1;
#X obj 203 508 *~ 0.707;
#X obj 308 549 switch~;
#X obj 203 393 pack f f;
#X msg 203 424 \$1 5 0 \$2;
#X obj 130 335 float;
#X obj 284 248 default 120 30 0;
#X obj 70 592 cos~;
#X obj 70 471 phasor~;
#X obj 439 248 declare -path else;
#X obj 70 716 outlet~ (signal) sound output;
#X obj 439 279 declare -path cyclone;
#X obj 144 97 inlet (number) velocity/volume (1-127) (default = 120);
#X obj 242 335 scale 0 127 30 3000 2;
#X obj 382 201 inlet (number) distortion amount (0-127) (default = 0);
#X obj 70 549 pow~;
#X obj 382 508 cyclone/line~ 2;
#X obj 382 436 scale 0 127 2 10 2;
#X obj 59 59 inlet (trigger/number) MIDI note pitch triggers the note (0-127) (default = 60), f 66;
#X obj 242 141 inlet (number) note length amount (0-127) (default = 30);
#X msg 382 471 \$1 50;
#X connect 0 0 18 0;
#X connect 0 1 4 0;
#X connect 1 0 23 0;
#X connect 2 0 14 0;
#X connect 2 1 12 0;
#X connect 3 0 1 1;
#X connect 4 0 21 0;
#X connect 5 0 18 1;
#X connect 8 0 0 0;
#X connect 9 0 19 0;
#X connect 10 0 9 0;
#X connect 11 0 5 0;
#X connect 11 1 26 0;
#X connect 11 2 30 0;
#X connect 12 0 15 0;
#X connect 13 0 15 0;
#X connect 14 0 3 1;
#X connect 14 0 3 0;
#X connect 16 0 17 0;
#X connect 17 0 2 0;
#X connect 17 0 13 0;
#X connect 18 0 16 0;
#X connect 19 0 11 0;
#X connect 20 0 1 0;
#X connect 21 0 28 0;
#X connect 25 0 5 0;
#X connect 26 0 16 1;
#X connect 27 0 30 0;
#X connect 28 0 20 0;
#X connect 29 0 28 1;
#X connect 30 0 33 0;
#X connect 31 0 8 0;
#X connect 32 0 26 0;
#X connect 33 0 29 0;
