#N canvas 827 239 527 327 12;
#X declare -path else;
#X obj 59 59 inlet;
#X obj 59 299 t b f;
#X obj 70 678 *~;
#X obj 203 471 cyclone/line~;
#X obj 203 549 *~;
#X obj 70 461 line~;
#X obj 70 367 mtof;
#X obj 70 424 pack f f;
#X obj 70 716 outlet~;
#X obj 144 97 inlet;
#X obj 144 263 / 127;
#X obj 382 182 inlet;
#X obj 242 134 inlet;
#X obj 599 59 cnv 15 283 29 empty empty dc.beep~ 20 13 0 20 #00deb1 #ffffff 0;
#X text 599 96 A simple monophonic sinewave beep. Useful to quickly create a sound to test if a patch is working \, to create a clicktrack to play along with \, or to actually use for musical purposes of course!, f 41;
#X obj 59 263 int 60;
#X text 99 58 (trigger/number) MIDI note pitch triggers the note (default = 60);
#X text 184 96 (number) velocity/volume (1-127) (default = 127);
#X obj 284 244 args;
#X obj 284 182 loadbang;
#X obj 284 276 unjoin 2;
#X msg 284 508 0;
#X msg 324 471 1;
#X obj 203 508 *~ 0.707;
#X text 279 133 (number) note length amount (0-127) (default =0.25);
#X text 422 181 (number) glide amount (0-127) (default = 0), f 26;
#X obj 242 335 scale 0 127 50 3000;
#X obj 324 546 switch~;
#X obj 203 393 pack f f;
#X msg 203 424 \$1 5 0 \$2;
#X obj 130 335 float;
#X obj 284 214 default 120 30 0;
#X obj 70 601 cos~;
#X obj 70 508 phasor~;
#X obj 382 393 scale 0 127 0.01 100;
#X obj 600 275 declare -path else;
#X obj 70 558 pow~ 2;
#X connect 0 0 15 0;
#X connect 1 0 30 0;
#X connect 1 1 6 0;
#X connect 2 0 8 0;
#X connect 3 0 23 0;
#X connect 3 1 21 0;
#X connect 4 0 2 1;
#X connect 5 0 33 0;
#X connect 6 0 7 0;
#X connect 7 0 5 0;
#X connect 9 0 10 0;
#X connect 10 0 30 1;
#X connect 11 0 34 0;
#X connect 12 0 26 0;
#X connect 15 0 1 0;
#X connect 18 0 20 0;
#X connect 19 0 31 0;
#X connect 20 0 10 0;
#X connect 20 1 26 0;
#X connect 20 2 34 0;
#X connect 21 0 27 0;
#X connect 22 0 27 0;
#X connect 23 0 4 1;
#X connect 23 0 4 0;
#X connect 26 0 28 1;
#X connect 28 0 29 0;
#X connect 29 0 3 0;
#X connect 29 0 22 0;
#X connect 30 0 28 0;
#X connect 31 0 18 0;
#X connect 32 0 2 0;
#X connect 33 0 36 0;
#X connect 34 0 7 1;
#X connect 36 0 32 0;
