#N canvas 827 239 527 327 12;
#X obj 59 59 inlet;
#X obj 70 546 cycle~;
#X obj 59 299 t b f;
#X obj 70 627 *~;
#X obj 203 471 cyclone/line~;
#X obj 133 583 *~;
#X obj 133 545 *~;
#X obj 70 508 line~;
#X obj 70 367 mtof;
#X obj 70 471 pack f f;
#X obj 70 665 outlet~;
#X obj 203 367 float 250;
#X msg 203 424 1 3 0 \$1;
#X obj 144 97 inlet;
#X obj 144 263 / 127;
#X obj 370 182 inlet;
#X obj 370 395 scale 0 1 0 100;
#X obj 242 134 inlet;
#X obj 599 59 cnv 15 283 29 empty empty dc.beep~ 20 13 0 20 #00deb1 #ffffff 0;
#X text 599 96 A simple monophonic sinewave beep. Useful to quickly create a sound to test if a patch is working \, to create a clicktrack to play along with \, or to actually use for musical purposes of course!, f 41;
#X obj 59 263 int 60;
#X text 99 58 (trigger/number) MIDI note pitch triggers the note (default = 60);
#X text 184 96 (number) velocity/volume (1-127) (default = 127);
#X text 410 181 (number) glide amount (0-1) (default = 0), f 26;
#X text 279 133 (number) note length amount (0-1) (default =0.25);
#X obj 284 247 args;
#X obj 284 216 loadbang;
#X obj 284 276 unjoin 2;
#X obj 310 545 switch;
#X msg 270 508 0;
#X msg 310 471 1;
#X obj 133 508 *~ 0.707;
#X obj 144 299 * 0.707;
#X obj 203 395 t f b;
#X obj 242 335 scale 0 1 50 3000;
#X connect 0 0 20 0;
#X connect 1 0 3 0;
#X connect 2 0 11 0;
#X connect 2 1 8 0;
#X connect 3 0 10 0;
#X connect 4 0 31 0;
#X connect 4 1 29 0;
#X connect 5 0 3 1;
#X connect 6 0 5 1;
#X connect 6 0 5 0;
#X connect 7 0 1 0;
#X connect 8 0 9 0;
#X connect 9 0 7 0;
#X connect 11 0 33 0;
#X connect 12 0 4 0;
#X connect 13 0 14 0;
#X connect 14 0 32 0;
#X connect 15 0 16 0;
#X connect 16 0 9 1;
#X connect 17 0 34 0;
#X connect 20 0 2 0;
#X connect 25 0 27 0;
#X connect 26 0 25 0;
#X connect 27 0 14 0;
#X connect 27 1 34 0;
#X connect 29 0 28 0;
#X connect 30 0 28 0;
#X connect 31 0 6 1;
#X connect 31 0 6 0;
#X connect 32 0 31 1;
#X connect 33 0 12 0;
#X connect 33 1 30 0;
#X connect 34 0 11 1;
