#N canvas 827 239 527 327 12;
#X obj 154 284 max;
#X obj 96 284 min;
#X obj 96 323 f;
#X obj 154 323 f;
#X obj 191 466 clip 0 1;
#X obj 59 418 scale 0 1 0 1;
#X obj 59 60 inlet;
#X obj 191 507 outlet;
#X obj 96 190 gate 1 1;
#X obj 459 60 cnv 15 283 29 empty empty dc.calibrate 20 13 0 20 #00deb1 #ffffff 0;
#X obj 208 323 args;
#X obj 260 150 loadbang;
#X obj 208 351 unpack f f;
#X text 459 97 Automatically rescale the incoming values to an output range based on the highest and lowest values received. This range auto-adapts when higher or lower numbers are received. The output range is 0-1 by default but can be adjust with arguments. The output-range is also clipped between the lowest and highest value of the set range, f 41;
#X text 96 59 (number) incoming value to automatically rescale;
#X text 241 506 (number) rescaled value;
#X msg 154 237 99999;
#X msg 230 237 -99999;
#X obj 208 150 sel 1;
#X obj 208 190 t b;
#X obj 208 90 inlet;
#X text 248 89 (number) start/stop calibration/autoscaling, f 22;
#X text 459 322 arguments:;
#X text 458 346 (number) - lower output range (default = 0), f 37;
#X text 458 368 (number) - higher output range (default = 1), f 37;
#X connect 0 0 3 0;
#X connect 1 0 2 0;
#X connect 2 0 5 1;
#X connect 2 0 1 1;
#X connect 3 0 0 1;
#X connect 3 0 5 2;
#X connect 4 0 7 0;
#X connect 5 0 4 0;
#X connect 6 0 5 0;
#X connect 6 0 8 1;
#X connect 8 0 1 0;
#X connect 8 0 0 0;
#X connect 10 0 12 0;
#X connect 11 0 19 0;
#X connect 12 0 5 3;
#X connect 12 0 4 1;
#X connect 12 1 5 4;
#X connect 12 1 4 2;
#X connect 16 0 1 1;
#X connect 17 0 0 1;
#X connect 18 0 19 0;
#X connect 19 0 16 0;
#X connect 19 0 10 0;
#X connect 19 0 17 0;
#X connect 20 0 18 0;
#X connect 20 0 8 0;
