#N canvas 827 239 734 565 12;
#X declare -path drumcode/pd;
#X declare -path cyclone;
#X declare -path else;
#X obj 558 117 cnv 15 283 29 empty empty dc.clicktrack~ 20 13 0 20 #00deb1 #ffffff 0;
#X text 558 154 A clicktrack~ object that outputs bleeps for quarter and eigth notes with an accent on the first note of the measure. You can set the eight note volume and adjust the beep length. Combine this object with dc.transport for it to work. I recommend sending it to [dac~ 3 4] so you can hear it at a different output from your soundcard and not have it mixed with your music that goes to the main speakers., f 41;
#X obj 60 417 click~;
#X obj 120 417 mtof;
#X obj 120 332 t 0;
#X obj 272 512 scale 0 127 0.87 0.97, f 19;
#X obj 272 482 clip 0 127, f 9;
#X msg 159 332 1;
#X obj 59 119 dc.metronome 8 1;
#X obj 165 181 % 2;
#X obj 165 212 sel 0 1;
#X obj 240 249 gate;
#X obj 120 374 zl.lookup 93 86;
#X obj 240 279 t b b;
#X obj 165 249 t b b;
#X obj 59 212 t b b;
#X msg 201 332 1;
#X obj 60 501 *~ 4;
#X obj 60 332 t b;
#X obj 60 587 hip~ 150;
#X obj 361 576 declare -path drumcode/pd;
#X obj 361 610 declare -path cyclone;
#X obj 361 640 declare -path else;
#X obj 60 640 outlet~ (signal) the clicktrack sound;
#X obj 240 63 inlet (number) eigth note volume 0-127 (default = 0), f 25;
#X obj 240 212 > 0;
#X obj 272 339 f 0.25;
#X obj 293 249 / 127;
#X obj 60 462 *~;
#X obj 293 309 *;
#X obj 59 162 sel 0;
#X obj 346 332 note2midi;
#X obj 371 249 inlet (list) list of two notes for accent and regular tone (default = A6 D6), f 23;
#X obj 60 557 svf~ 1760 0.93;
#X obj 307 417 inlet (number) tone length 0-127 (default = 80), f 24;
#X obj 319 119 loadbang;
#X obj 319 219 unjoin 2;
#X obj 240 181 t f f;
#X obj 293 279 t f f;
#X obj 319 150 args -;
#X obj 319 181 route -name;
#X obj 59 90 prepend -name;
#X connect 2 0 28 0;
#X connect 3 0 33 1;
#X connect 4 0 12 0;
#X connect 5 0 33 2;
#X connect 6 0 5 0;
#X connect 7 0 12 0;
#X connect 8 1 30 0;
#X connect 9 0 10 0;
#X connect 10 0 14 0;
#X connect 10 1 11 1;
#X connect 11 0 13 0;
#X connect 12 0 3 0;
#X connect 13 0 7 0;
#X connect 13 0 18 0;
#X connect 13 1 26 0;
#X connect 14 0 18 0;
#X connect 14 1 7 0;
#X connect 14 1 16 0;
#X connect 15 0 18 0;
#X connect 15 1 4 0;
#X connect 15 1 16 0;
#X connect 16 0 28 1;
#X connect 17 0 33 0;
#X connect 18 0 2 0;
#X connect 19 0 23 0;
#X connect 24 0 37 0;
#X connect 25 0 11 0;
#X connect 26 0 28 1;
#X connect 27 0 38 0;
#X connect 28 0 17 0;
#X connect 29 0 26 1;
#X connect 30 0 15 0;
#X connect 30 1 9 0;
#X connect 31 0 12 1;
#X connect 32 0 31 0;
#X connect 33 0 19 0;
#X connect 34 0 6 0;
#X connect 35 0 39 0;
#X connect 36 0 37 0;
#X connect 36 1 6 0;
#X connect 36 2 31 0;
#X connect 37 0 25 0;
#X connect 37 1 27 0;
#X connect 38 0 29 0;
#X connect 38 1 29 1;
#X connect 39 0 40 0;
#X connect 40 0 41 0;
#X connect 40 1 36 0;
#X connect 41 0 8 0;
