#N canvas 827 239 527 327 12;
#X declare -path else;
#X obj 459 59 cnv 15 283 29 empty empty dc.chance 20 13 0 20 #00deb1 #ffffff 0;
#X text 459 96 Let the input pass through on the left outlet with a certain amount of chance between 0-100. Every other case the input is passed to the right outlet. Default chance is 50%, f 40;
#X obj 120 183 random 100;
#X obj 60 141 t a b;
#X obj 120 218 < 50;
#X obj 221 176 args;
#X obj 221 141 loadbang;
#X msg 221 239 \$1;
#X obj 60 263 router;
#X obj 120 320 outlet (trigger/number) opposite of chance;
#X obj 134 100 inlet (number) percentage of chance 0-100;
#X obj 221 209 default 50;
#X obj 460 357 declare -path else;
#X obj 60 59 inlet (trigger/number) input to pass to output with chance;
#X obj 81 357 outlet (trigger/number) input passed with % chance;
#X connect 2 0 4 0;
#X connect 3 0 8 0;
#X connect 3 1 2 0;
#X connect 4 0 8 1;
#X connect 5 0 11 0;
#X connect 6 0 5 0;
#X connect 7 0 4 1;
#X connect 8 0 9 0;
#X connect 8 1 14 0;
#X connect 10 0 4 1;
#X connect 11 0 7 0;
#X connect 13 0 3 0;
