#N canvas 827 239 734 565 12;
#X declare -path else;
#X declare -path cyclone;
#X obj 59 221 dc.step;
#X obj 59 261 outlet (number) output the randomly chosen number in the sequence;
#X obj 199 130 args;
#X obj 199 161 default 60 62 64 65 67 69 71 72;
#X obj 199 100 loadbang;
#X obj 501 233 declare -path else;
#X obj 501 261 declare -path cyclone;
#X obj 479 59 cnv 15 283 29 empty empty dc.choose 20 13 0 20 #00deb1 #ffffff 0;
#X obj 59 59 inlet (trigger) trigger a random chosen number from a sequence;
#X obj 59 161 dc.random 0 4;
#X obj 131 123 zl.len;
#X text 478 98 Randomly choose a value from a list of predefined numbers for every time the object receives a trigger. The list can be defined as arguments or via the right inlet., f 41;
#X obj 273 100 inlet (list) input a list of numbers for the sequence (maximum size 256), f 25;
#X connect 0 0 1 0;
#X connect 2 0 3 0;
#X connect 3 0 0 1;
#X connect 3 0 10 0;
#X connect 4 0 2 0;
#X connect 8 0 9 0;
#X connect 9 0 0 0;
#X connect 10 0 9 2;
#X connect 12 0 3 0;
