#N canvas 827 239 527 327 12;
#X obj 154 266 max;
#X obj 96 266 min;
#X obj 96 305 f;
#X obj 154 305 f;
#X obj 59 400 scale 0 1 0 1;
#X obj 516 60 cnv 15 283 29 empty empty dc.calibrate 20 13 0 20 #00deb1 #ffffff 0;
#X obj 208 305 args;
#X obj 260 132 loadbang;
#X obj 208 333 unpack f f;
#X obj 208 132 sel 1;
#X obj 208 172 t b;
#X text 519 238 arguments:;
#X text 518 262 (number) - lower output range (default = 0), f 37;
#X text 518 284 (number) - higher output range (default = 1), f 37;
#X obj 59 60 inlet (number) incoming value to automatically rescale;
#X obj 208 90 inlet (number) start/stop calibration/autoscaling;
#X obj 59 442 outlet (number) rescaled value;
#X msg 154 219 999999;
#X msg 230 219 -999999;
#X text 516 97 Rescale the incoming values to an output range based on the highest and lowest values received. This range auto-adapts when the calibration is turned on in the right inlet. Higher or lower numbers are received and measured. The output range is 0-1 by default but can be adjust with arguments., f 43;
#X obj 96 172 gate;
#X connect 0 0 3 0;
#X connect 1 0 2 0;
#X connect 2 0 1 1;
#X connect 2 0 4 1;
#X connect 3 0 0 1;
#X connect 3 0 4 2;
#X connect 4 0 16 0;
#X connect 6 0 8 0;
#X connect 7 0 10 0;
#X connect 8 0 4 3;
#X connect 8 1 4 4;
#X connect 9 0 10 0;
#X connect 10 0 17 0;
#X connect 10 0 6 0;
#X connect 10 0 18 0;
#X connect 14 0 4 0;
#X connect 14 0 20 1;
#X connect 15 0 9 0;
#X connect 15 0 20 0;
#X connect 17 0 1 1;
#X connect 18 0 0 1;
#X connect 20 0 1 0;
#X connect 20 0 0 0;
