#N canvas 827 239 527 327 12;
#X obj 59 59 inlet;
#X obj 99 183 delay 250;
#X obj 59 139 t b b;
#X obj 59 307 count;
#X obj 112 422 outlet;
#X obj 143 139 args;
#X obj 112 381 i;
#X obj 99 220 t b b;
#X msg 99 260 set 0;
#X obj 143 99 loadbang;
#X text 428 58 dc.count;
#X obj 208 139 inlet;
#X text 163 421 (number) hits counted;
#X text 428 98 Count the number of received triggers \, report when the waiting time is over. As long as triggers are received before the time is the count keeps incrementing and resetting the timer. If the waiting time is over the total is reported. An optional threshold only outputs the count when the amount is high enough., f 35;
#X obj 59 341 + 1;
#X text 100 58 1 (bang) trigger input;
#X text 246 138 2 (number) wait time in ms;
#X connect 0 0 2 0;
#X connect 1 0 7 0;
#X connect 2 0 3 0;
#X connect 2 1 1 0;
#X connect 3 0 14 0;
#X connect 5 0 1 1;
#X connect 6 0 4 0;
#X connect 7 0 8 0;
#X connect 7 1 6 0;
#X connect 8 0 3 0;
#X connect 9 0 5 0;
#X connect 11 0 1 1;
#X connect 14 0 6 1;
