#N canvas 827 239 734 565 12;
#X declare -path cyclone;
#X declare -path else;
#X obj 70 144 -;
#X obj 135 220 abs;
#X obj 70 220 < 0;
#X obj 59 319 gate;
#X msg 167 391 0.5;
#X obj 70 180 t f f;
#X obj 135 319 sel 0;
#X obj 59 453 outlet (number) direction of speed\\\, decreasing (0)\\\, steady (0.5)\\\, increasing (1), f 40;
#X obj 59 99 t f f;
#X obj 59 410 f;
#X obj 208 251 args -;
#X obj 208 220 loadbang;
#X obj 211 99 declare -path cyclone;
#X obj 210 132 declare -path else;
#X obj 208 283 route -mode;
#X obj 135 360 gate 2 1;
#X msg 267 319 \$1;
#X obj 501 59 cnv 15 283 29 empty empty dc.direction 20 13 0 20 #00deb1 #ffffff 0;
#X obj 135 283 t f f;
#X obj 208 319 + 1;
#X text 501 104 Measure in which direction the tempo of a trigger is going. Speeding up (1) or slowing down (0). With an optional argument you can set the threshold for which a speeding/slowing tempo is detected \, the default is above 20 milliseconds. You can also change the -mode to 1 \, in mode 1 the measure outputs a 0.5 if the tempo is not changing., f 41;
#X obj 59 59 inlet (number) time between triggers \, connect to dc.timer;
#X obj 135 251 > 25;
#X connect 0 0 5 0;
#X connect 1 0 22 0;
#X connect 2 0 3 1;
#X connect 3 0 9 0;
#X connect 4 0 9 0;
#X connect 5 0 2 0;
#X connect 5 1 1 0;
#X connect 6 0 15 1;
#X connect 8 0 0 1;
#X connect 8 1 0 0;
#X connect 9 0 7 0;
#X connect 10 0 14 0;
#X connect 11 0 10 0;
#X connect 14 0 19 0;
#X connect 14 1 16 0;
#X connect 15 0 9 0;
#X connect 15 1 4 0;
#X connect 16 0 22 1;
#X connect 18 0 6 0;
#X connect 18 1 3 0;
#X connect 19 0 15 0;
#X connect 21 0 8 0;
#X connect 22 0 18 0;
