#N canvas 827 239 527 327 12;
#X declare -path else;
#X declare -path cyclone;
#X obj 441 59 cnv 15 283 29 empty empty dc.every 20 13 0 20 #00deb1 #ffffff 0;
#X obj 59 120 t a b;
#X obj 239 174 args;
#X obj 239 139 loadbang;
#X msg 239 237 \$1;
#X obj 59 258 router;
#X obj 441 352 declare -path else;
#X obj 178 102 inlet (number) every amount;
#X obj 239 207 default 4;
#X obj 80 352 outlet (trigger/number) pass every n-times;
#X obj 119 315 outlet (trigger/number) all other times;
#X text 441 95 Let the input pass through to the output every n-events. Every other time the input is passed to the right outlet. The default every times is 8, f 40;
#X obj 113 208 == 1;
#X obj 59 59 inlet (trigger/number) input to pass to output every n-times;
#X obj 280 241 print;
#X obj 113 176 counter 1 8;
#X obj 441 315 declare -path cyclone;
#X connect 1 0 5 0;
#X connect 1 1 15 0;
#X connect 2 0 8 0;
#X connect 3 0 2 0;
#X connect 4 0 14 0;
#X connect 4 0 15 4;
#X connect 5 0 10 0;
#X connect 5 1 9 0;
#X connect 7 0 15 4;
#X connect 8 0 4 0;
#X connect 12 0 5 1;
#X connect 13 0 1 0;
#X connect 15 0 12 0;
