#N canvas 827 239 734 565 12;
#X declare -path cyclone;
#X declare -path else;
#X obj 599 59 cnv 15 283 29 empty empty dc.fx.filter~ 20 13 0 20 #00deb1 #ffffff 0;
#X text 599 102 A simple lowpass filter effect in an "analog style" consisting of a cutoff frequency and a resonance. All the parameters range from 0-127 for ease of use with MIDI values., f 41;
#X obj 59 546 outlet~ (signal) filtered sound output;
#X text 121 500 reduce low frequency build-up;
#X obj 59 501 hip~ 20;
#X obj 351 212 args;
#X obj 351 181 loadbang;
#X obj 351 273 unjoin 2;
#X obj 351 242 default 64 20;
#X obj 115 181 clip 0 127;
#X obj 115 361 mtof;
#X obj 260 181 clip 0 127;
#X obj 59 59 inlet~ (signal) sound to be filtered;
#X obj 59 464 svfilter~;
#X obj 115 326 scale 0 127 38 125;
#X obj 115 103 inlet (number) filter cutoff 0-127 (default = 70);
#X obj 260 147 inlet (number) filter resonance 0-127 (default = 40);
#X obj 430 514 declare -path cyclone;
#X obj 430 546 declare -path else;
#X obj 115 400 float2sig~ 5;
#X obj 260 400 float2sig~ 5;
#X obj 260 361 scale 0 127 0 0.8;
#X connect 4 0 2 0;
#X connect 5 0 8 0;
#X connect 6 0 5 0;
#X connect 7 0 14 0;
#X connect 7 1 21 0;
#X connect 8 0 7 0;
#X connect 9 0 14 0;
#X connect 10 0 19 0;
#X connect 11 0 21 0;
#X connect 12 0 13 0;
#X connect 13 0 4 0;
#X connect 14 0 10 0;
#X connect 15 0 9 0;
#X connect 16 0 11 0;
#X connect 19 0 13 1;
#X connect 20 0 13 2;
#X connect 21 0 20 0;
