#N canvas 827 239 734 565 12;
#X declare -path cyclone;
#X declare -path else;
#X obj 479 59 cnv 15 283 29 empty empty dc.fx.degrade~ 20 13 0 20 #00deb1 #ffffff 0;
#X text 479 102 A degrading filter effect \, giving a "8bit style" to the sound. Consisting of a downsampling algorithm. The parameter ranges from 0-127 for ease of use with MIDI values., f 41;
#X obj 59 278 downsample~;
#X obj 128 204 mtof;
#X obj 128 173 scale 0 127 149 64;
#X text 115 330 reduce low frequency build-up;
#X obj 340 342 declare -path cyclone;
#X obj 340 376 declare -path else;
#X obj 59 331 hip~ 10;
#X obj 59 59 inlet~ (signal) sound to be degraded;
#X obj 128 235 float2sig~ 25;
#X obj 128 140 clip 0 127;
#X obj 282 171 args;
#X obj 282 140 loadbang;
#X obj 128 101 inlet (number) degrading amount 0-127 (default = 64);
#X obj 282 201 default 64;
#X obj 59 376 outlet~ (signal) degraded sound output;
#X connect 2 0 8 0;
#X connect 3 0 10 0;
#X connect 4 0 3 0;
#X connect 8 0 16 0;
#X connect 9 0 2 0;
#X connect 10 0 2 1;
#X connect 11 0 4 0;
#X connect 12 0 15 0;
#X connect 13 0 12 0;
#X connect 14 0 11 0;
#X connect 15 0 11 0;
