#N canvas 827 239 734 565 12;
#X declare -path cyclone;
#X declare -path else;
#X obj 59 356 lop~ 2500;
#X obj 59 319 hip~ 20;
#X obj 379 264 clip 0 127;
#X obj 59 393 *~;
#X obj 554 264 clip 0 127;
#X obj 554 295 scale 0 127 200 10000 3;
#X obj 59 279 delread4~ \$0-del 100;
#X obj 59 59 inlet~ (signal) sound to be delayed;
#X obj 59 457 outlet~ (signal) delayed output;
#X obj 859 59 cnv 15 283 29 empty empty dc.fx.delay~ 20 13 0 20 #00deb1 #ffffff 0;
#X obj 59 180 delwrite~ \$0-del 1000;
#X obj 239 166 scale 0 127 50 1000 2;
#X obj 239 132 clip 0 127;
#X text 859 102 A simple delay effect in an "analog tape style" consisting of a delaytime \, feedback amount and a damping filter. All the parameters range from 0-127 for ease of use with MIDI values., f 41;
#X obj 612 55 loadbang;
#X obj 612 89 args;
#X obj 611 149 unjoin 3;
#X obj 379 295 scale 0 127 0 0.999 0.5;
#X obj 239 95 inlet (number) delaylength 0 - 127 (default = 40);
#X obj 379 199 inlet (number) feedback 0 - 127 (default = 90);
#X obj 612 118 default 40 90 70;
#X obj 554 231 inlet (number) damping 0 - 127 (default = 70);
#X obj 859 264 declare -path cyclone;
#X obj 859 231 declare -path else;
#X obj 554 329 float2sig~ 25;
#X obj 239 199 float2sig~ 100;
#X obj 379 369 float2sig~ 25;
#X connect 0 0 3 0;
#X connect 1 0 0 0;
#X connect 2 0 17 0;
#X connect 3 0 8 0;
#X connect 3 0 10 0 48.................N....n9+++uC....p++++Cw+++O.....P7+++C....PF++++;
#X connect 4 0 5 0;
#X connect 5 0 24 0;
#X connect 6 0 1 0;
#X connect 7 0 10 0;
#X connect 11 0 25 0;
#X connect 12 0 11 0;
#X connect 14 0 15 0;
#X connect 15 0 20 0;
#X connect 16 0 12 0;
#X connect 16 1 2 0;
#X connect 16 2 4 0;
#X connect 17 0 26 0;
#X connect 18 0 12 0;
#X connect 19 0 2 0;
#X connect 20 0 16 0;
#X connect 21 0 4 0;
#X connect 24 0 0 1;
#X connect 25 0 6 0;
#X connect 26 0 3 1;
