#N canvas 827 239 734 565 12;
#X obj 59 676 dc.fx.drywet~;
#X obj 99 317 tabwrite~ \$0-looper;
#X msg 207 249 stop;
#X obj 377 594 array define \$0-looper;
#X f 20;
#X obj 377 523 array size \$0-looper;
#X obj 93 606 tabread4~ \$0-looper;
#X obj 93 523 +=~;
#X obj 93 483 sig~;
#X obj 315 358 tgl 25 0 empty empty empty 17 7 0 10 #e4e4e4 #4d4d4d #373737 0 1;
#X obj 93 639 hip~ 10;
#X obj 93 565 wrap2~ 0 44100;
#X obj 377 485 *;
#X obj 408 443 sr~;
#X obj 408 414 t b;
#X obj 141 483 click~;
#X obj 244 317 timer;
#X obj 198 483 mstosamps~;
#X obj 315 317 !- 1;
#X obj 111 214 onebang;
#X obj 260 523 minimum;
#X msg 377 563 const 0, f 8;
#X obj 377 383 loadmess 32;
#X obj 111 180 change;
#X obj 111 117 peakamp~ 10;
#X obj 111 149 > 0.1;
#X obj 59 725 outlet~;
#X text 432 484 the looping buffer with a size of 32 seconds, f 20;
#X text 138 518 playback of the buffer in samples, f 16;
#X text 207 562 wrap at recording time end, f 17;
#X text 179 138 when volume increases enough \, start the loop recording, f 17;
#X obj 141 453 sel 1;
#X obj 93 414 t f f;
#X obj 111 249 t b b b;
#X obj 599 59 cnv 15 283 29 empty empty dc.fx.looper~ 20 13 0 20 #00deb1 #ffffff 0;
#X text 599 96 A basic looper effect. Input a signal and start the looping recording with a toggle. The looper waits till it receives a sound that has some significant volume to start recording. This helps to get a better looping result., f 41;
#X msg 297 285 1;
#X obj 315 147 sel 1;
#X obj 260 249 t b;
#X obj 377 285 route start stop;
#X msg 380 317 1;
#X msg 418 317 0;
#X obj 59 59 inlet~ (signal) sound to be recorded for looping;
#X obj 315 117 inlet (toggle) start/stop recording loop;
#X obj 377 247 inlet (toggle/message) start/stop looping sound;
#X connect 0 0 25 0;
#X connect 2 0 1 0;
#X connect 5 0 9 0;
#X connect 6 0 10 0;
#X connect 7 0 6 0;
#X connect 8 0 31 0;
#X connect 9 0 0 2;
#X connect 10 0 5 0;
#X connect 11 0 19 1;
#X connect 11 0 4 0;
#X connect 12 0 11 1;
#X connect 13 0 12 0;
#X connect 14 0 6 1;
#X connect 15 0 16 0;
#X connect 16 1 19 0;
#X connect 17 0 8 0;
#X connect 18 0 32 0;
#X connect 19 0 10 2;
#X connect 20 0 3 0;
#X connect 21 0 11 0;
#X connect 21 0 13 0;
#X connect 22 0 18 0;
#X connect 23 0 24 0;
#X connect 24 0 22 0;
#X connect 30 0 14 0;
#X connect 31 0 7 0;
#X connect 31 1 30 0;
#X connect 32 0 1 0;
#X connect 32 1 15 0;
#X connect 32 2 35 0;
#X connect 35 0 17 0;
#X connect 36 0 18 1;
#X connect 36 1 17 0;
#X connect 36 1 37 0;
#X connect 36 1 2 0;
#X connect 37 0 15 1;
#X connect 38 0 39 0;
#X connect 38 1 40 0;
#X connect 38 2 8 0;
#X connect 39 0 8 0;
#X connect 40 0 8 0;
#X connect 41 0 1 0;
#X connect 41 0 0 0;
#X connect 41 0 23 0;
#X connect 42 0 36 0;
#X connect 43 0 38 0;
