#N canvas 827 239 734 565 12;
#X obj 59 59 inlet~ (signal) dry signal L;
#X obj 110 99 inlet~ (signal) dry signal R;
#X obj 167 140 inlet~ (signal) wet signal L;
#X obj 225 180 inlet~ (signal) wet signal R;
#X obj 59 378 outlet~ (signal) mixed signal L;
#X obj 110 418 outlet~ (signal) mixed signal R;
#X obj 59 321 *~;
#X obj 110 321 *~;
#X obj 167 321 *~;
#X obj 225 321 *~;
#X obj 406 59 inlet (number) dry-wet amount 0-127 (default = 64);
#X obj 380 241 cycle~;
#X obj 446 241 cycle~;
#X obj 472 209 line~;
#X msg 472 180 \$1 10;
#X obj 406 209 line~;
#X msg 406 180 \$1 10;
#X obj 406 99 clip 0 127;
#X obj 562 99 loadbang;
#X obj 562 130 args;
#X msg 562 187 \$1;
#X obj 562 159 default 64;
#X obj 406 137 / 508;
#X obj 743 59 cnv 15 283 29 empty empty dc.fx.drywet~ 20 13 0 20 #00deb1 #ffffff 0;
#X text 743 96 A stereo drywet object that allows you to blend the dry incoming signal with another processed FX signal. The object can be used as mono as well (just use the L channel only)., f 40;
#X obj 472 153 + 0.75;
#X connect 0 0 6 0;
#X connect 1 0 7 0;
#X connect 2 0 8 0;
#X connect 3 0 9 0;
#X connect 6 0 4 0;
#X connect 7 0 5 0;
#X connect 8 0 4 0;
#X connect 9 0 5 0;
#X connect 10 0 17 0;
#X connect 11 0 7 1;
#X connect 11 0 6 1;
#X connect 12 0 8 1;
#X connect 12 0 9 1;
#X connect 13 0 12 1;
#X connect 14 0 13 0;
#X connect 15 0 11 1;
#X connect 16 0 15 0;
#X connect 17 0 22 0;
#X connect 18 0 19 0;
#X connect 19 0 21 0;
#X connect 20 0 17 0;
#X connect 21 0 20 0;
#X connect 22 0 16 0;
#X connect 22 0 25 0;
#X connect 25 0 14 0;
