#N canvas 827 239 734 565 12;
#X obj 59 188 *~;
#X obj 111 188 *~;
#X obj 291 188 line~;
#X obj 59 59 inlet~ (signal) left signal;
#X obj 111 87 inlet~ (signal) right signal;
#X obj 59 226 outlet~ (signal) left signal;
#X obj 111 261 outlet~ (signal) right signal;
#X obj 291 158 pack 0 25;
#X obj 291 59 inlet (trigger/number) trigger switches signal on/off \, 1 turns on \, 0 turns off, f 34;
#X obj 336 108 inlet (number) ramp time to fade the signal in or out, f 26;
#X obj 560 59 cnv 15 258 29 empty empty dc.fade~ 20 13 0 20 #00deb1 #ffffff 0;
#X obj 291 117 tgl 25 0 empty empty empty 17 7 0 10 #e4e4e4 #4d4d4d #373737 0 1;
#X obj 291 219 *~;
#X text 560 100 Fade a (stereo) signal in or out. The fade in/out can be started with a trigger (switching between states) or it can be forced with a toggle or the number 0 or 1 The 4th inlet allows you to set the fade time in milliseconds with a number. The fade has a cubic ramp., f 37;
#X obj 384 188 args;
#X obj 384 158 loadbang;
#X msg 384 219 \$1;
#X connect 0 0 5 0;
#X connect 1 0 6 0;
#X connect 2 0 12 0;
#X connect 2 0 12 1;
#X connect 3 0 0 0;
#X connect 4 0 1 0;
#X connect 7 0 2 0;
#X connect 8 0 11 0;
#X connect 9 0 7 1;
#X connect 11 0 7 0;
#X connect 12 0 1 1;
#X connect 12 0 0 1;
#X connect 14 0 16 0;
#X connect 15 0 14 0;
#X connect 16 0 7 1;
