#N canvas 827 239 734 565 12;
#X obj 59 193 tanh~;
#X obj 59 155 *~;
#X obj 59 238 *~;
#X obj 59 59 inlet~ (signal) sound to distort;
#X obj 59 281 outlet~ (signal) distorted sound;
#X obj 282 101 scale 0 127 1 50 2;
#X obj 282 193 expr~ sqrt(1 / $v1);
#X obj 623 59 cnv 15 283 29 empty empty dc.fx.distort~ 20 13 0 20 #00deb1 #ffffff 0;
#X text 623 100 A simple distortion effect in an "analog soft-clipping style". The distortion amount is set in a range from 0-127 for ease of use with MIDI values., f 41;
#X obj 432 99 loadbang;
#X obj 432 130 args;
#X msg 432 162 \$1;
#X obj 282 59 inlet (number) distortion amount 0 - 127 (default 40);
#X obj 282 139 float2sig~ 25 6;
#X connect 0 0 2 0;
#X connect 1 0 0 0;
#X connect 2 0 4 0;
#X connect 3 0 1 0;
#X connect 5 0 13 0;
#X connect 6 0 2 1;
#X connect 9 0 10 0;
#X connect 10 0 11 0;
#X connect 11 0 5 0;
#X connect 12 0 5 0;
#X connect 13 0 6 0;
#X connect 13 0 1 1;
