#N canvas 827 239 527 327 12;
#X obj 59 59 inlet;
#X obj 95 132 args;
#X obj 95 101 loadbang;
#X obj 95 277 outlet;
#X obj 140 236 outlet;
#X obj 140 132 inlet;
#X text 182 131 2 (number) gate threshold;
#X text 103 58 1 (number) input to gate;
#X text 417 58 dc.gate;
#X text 140 276 (number) output if greater;
#X text 186 235 (number) output if below threshold;
#X obj 59 180 moses 0;
#X text 416 96 Output the incoming value to the left when it is greater or equal to the set threshold (minimum value) \, else output it to the right., f 32;
#X connect 0 0 11 0;
#X connect 1 0 11 1;
#X connect 2 0 1 0;
#X connect 5 0 11 1;
#X connect 11 0 4 0;
#X connect 11 1 3 0;
