#N canvas 827 239 734 565 12;
#X obj 58 498 *~;
#X obj 105 498 *~;
#X obj 169 448 line~;
#X obj 169 342 dbtoa;
#X obj 173 139 vsl 17 115 0 127 0 0 empty empty empty 0 -9 0 10 #e4e4e4 #4d4d4d #373737 0 1;
#X obj 169 274 scale 0 127 -70 6 0.5;
#X obj 223 342 > -70;
#X obj 169 381 *;
#X obj 169 307 t f f;
#X msg 169 419 \$1 50;
#X obj 300 40 cnv 15 258 29 empty empty dc.gain~ 20 13 0 20 #00deb1 #ffffff 0;
#X text 300 77 A stereo gain slider. As an alternative for the gain~ and gain2~ sliders \, because those sometimes hang in Plugdata., f 37;
#X text 191 178 -12;
#X text 191 202 -24;
#X text 191 163 -6;
#X text 189 130 +6;
#X text 190 244 -inf;
#X text 197 147 0;
#X obj 59 40 inlet~ (signal) left signal;
#X obj 105 68 inlet~ (signal) right signal;
#X obj 58 540 outlet~ (signal) left gained signal;
#X obj 105 570 outlet~ (signal) right gained signal;
#X obj 59 419 hip~ 10;
#X obj 105 448 hip~ 10;
#X obj 300 164 savestate;
#X obj 377 212 f;
#X obj 388 164 r \$0-g;
#X obj 223 307 s \$0-g;
#X obj 300 212 s \$0-g2;
#X obj 169 99 r \$0-g2;
#X connect 0 0 20 0;
#X connect 1 0 21 0;
#X connect 2 0 1 1;
#X connect 2 0 0 1;
#X connect 3 0 7 0;
#X connect 4 0 5 0;
#X connect 4 0 27 0;
#X connect 5 0 8 0;
#X connect 6 0 7 1;
#X connect 7 0 9 0;
#X connect 8 0 3 0;
#X connect 8 1 6 0;
#X connect 9 0 2 0;
#X connect 18 0 22 0;
#X connect 19 0 23 0;
#X connect 22 0 0 0;
#X connect 23 0 1 0;
#X connect 24 0 28 0;
#X connect 24 1 25 0;
#X connect 25 0 24 0;
#X connect 26 0 25 1;
#X connect 29 0 4 0;
#X coords 0 0 1 1 56 134 2 164 130;
