#N canvas 827 239 527 327 12;
#X obj 95 132 args;
#X obj 95 101 loadbang;
#X text 417 58 dc.gate;
#X obj 59 180 moses 0;
#X text 416 96 Output the incoming value to the left when it is greater or equal to the set threshold (minimum value) \, else output it to the right., f 32;
#X obj 140 132 inlet (number) gate threshold;
#X obj 140 240 outlet (number) output if below threshold;
#X obj 95 277 outlet (number) output if above threshold;
#X obj 59 59 inlet (number) input a number to gate;
#X connect 0 0 3 1;
#X connect 1 0 0 0;
#X connect 3 0 6 0;
#X connect 3 1 7 0;
#X connect 5 0 3 1;
#X connect 8 0 3 0;
