#N canvas 827 239 734 565 12;
#X declare -path cyclone;
#X declare -path else;
#X obj 99 99 inlet (number/list) hold value without output;
#X obj 59 59 inlet (trigger/bang) output the hold value;
#X obj 59 235 zl.reg;
#X obj 59 280 outlet (number/list) the hold value output;
#X obj 181 174 args;
#X obj 181 141 loadbang;
#X text 228 173 set a default value to have in the hold;
#X obj 475 59 cnv 15 283 29 empty empty dc.hold 20 13 0 20 #00deb1 #ffffff 0;
#X obj 475 252 declare -path cyclone;
#X obj 475 280 declare -path else;
#X text 475 98 Sample and hold an incoming value on the right input. Output the value on when a trigger/bang is received on the left input. Set a default hold value with an argument., f 41;
#X connect 0 0 2 1;
#X connect 1 0 2 0;
#X connect 2 0 3 0;
#X connect 4 0 2 1;
#X connect 5 0 4 0;
