#N canvas 827 239 527 327 12;
#X obj 81 197 args;
#X obj 81 231 unjoin 2;
#X text 319 58 dc.inrange;
#X text 319 98 Output the incoming value if it is in the range of the low and high given value. A thin wrapper around the split object. Users that know Max/Pd well can just as good use split or moses., f 31;
#X obj 81 163 loadbang;
#X obj 59 332 split 0 127;
#X obj 59 59 inlet (number) is in range?;
#X obj 157 231 inlet (number) lower limit for range;
#X obj 178 271 inlet (number) upper limit for range;
#X obj 59 372 outlet (number) matches the range;
#X connect 0 0 1 0;
#X connect 1 0 5 1;
#X connect 1 1 5 2;
#X connect 4 0 0 0;
#X connect 5 0 9 0;
#X connect 6 0 5 0;
#X connect 7 0 5 1;
#X connect 8 0 5 2;
