#N canvas 827 239 527 327 12;
#X obj 59 59 inlet;
#X obj 59 372 outlet;
#X obj 81 197 args;
#X obj 81 231 unjoin 2;
#X text 319 58 dc.inrange;
#X text 319 98 Output the incoming value if it is in the range of the low and high given value. A thin wrapper around the split object. Users that know Max/Pd well can just as good use split or moses., f 31;
#X obj 81 163 loadbang;
#X obj 157 231 inlet;
#X obj 178 271 inlet;
#X text 102 58 1 (number) is in range?;
#X text 197 230 2 (number) lower limit for range;
#X text 215 270 3 (number) upper limit for range;
#X text 109 371 (number) matches the range;
#X obj 59 332 split 0 127;
#X connect 0 0 13 0;
#X connect 2 0 3 0;
#X connect 3 0 13 1;
#X connect 3 1 13 2;
#X connect 6 0 2 0;
#X connect 7 0 13 1;
#X connect 8 0 13 2;
#X connect 13 0 1 0;
