#N canvas 827 239 527 327 12;
#X obj 59 59 inlet;
#X obj 59 372 outlet;
#X obj 117 197 args;
#X obj 59 332 split -999999 999999;
#X obj 117 231 unjoin 2;
#X text 319 58 dc.inrange;
#X text 319 98 Output the incoming value if it is in the range of the low and high given value. A thin wrapper around the split object. Users that know Max/Pd well can just as good use split or moses., f 31;
#X text 119 58 (number) is in range?;
#X text 119 371 (number) matches the range;
#X obj 117 163 loadbang;
#X obj 195 231 inlet;
#X obj 216 271 inlet;
#X text 235 230 (number) lower limit for range;
#X text 253 270 (number) upper limit for range;
#X connect 0 0 3 0;
#X connect 2 0 4 0;
#X connect 3 0 1 0;
#X connect 4 0 3 1;
#X connect 4 1 3 2;
#X connect 9 0 2 0;
#X connect 10 0 3 1;
#X connect 11 0 3 2;
