#N canvas 827 239 734 565 12;
#X declare -path else;
#X declare -path cyclone;
#X obj 224 349 !/ 1920;
#X obj 59 430 int;
#X obj 59 461 change;
#X obj 103 315 unpack f f;
#X obj 103 349 %;
#X obj 59 279 router;
#X msg 59 349 \$1;
#X obj 80 252 > 0;
#X obj 149 349 * 1;
#X obj 59 492 t b f;
#X obj 279 72 inlet (number) division\\\, (2\\\, 4\\\, 8\\\, 12\\\, 16\\\, etc);
#X obj 199 40 loadbang;
#X obj 279 461 declare -path else;
#X obj 279 492 declare -path cyclone;
#X obj 199 72 args -;
#X obj 224 182 unjoin 2;
#X obj 103 537 outlet (number) step number from sequencer;
#X obj 59 577 outlet (trigger) trigger from sequencer;
#X obj 199 109 route -name;
#X obj 59 198 receiver dc-transport;
#X obj 59 166 prepend symbol;
#X obj 59 400 / 480;
#X obj 600 40 cnv 15 283 29 empty empty dc.metronome 20 13 0 20 #00deb1 #ffffff 0;
#X text 599 79 The metronome outputs triggers and step-numbers in a specified time interval (2 \, 4 \, 8 \, 12 \, 16 \, etc) \, where this number means 1/n \, so 4 is 1/4 is a quarter note \, and 12 is 1/12 so 8th-note triplets. The counter of the step by default counts to infinite \, but you can make it wrap with n-bars by providing a second argument for the counter reset. This object only works if you already have a dc.transport in the patch., f 41;
#X obj 112 430 loadmess set -1;
#X obj 301 182 inlet (number) reset counter after n-bars (default = 0), f 27;
#X obj 258 252 t f;
#X connect 0 0 21 1;
#X connect 1 0 2 0;
#X connect 2 0 9 0;
#X connect 3 0 4 0;
#X connect 3 1 8 0;
#X connect 4 0 21 0;
#X connect 5 0 6 0;
#X connect 5 1 3 0;
#X connect 6 0 21 0;
#X connect 7 0 5 1;
#X connect 8 0 4 1;
#X connect 9 0 17 0;
#X connect 9 1 16 0;
#X connect 10 0 18 0;
#X connect 11 0 14 0;
#X connect 14 0 18 0;
#X connect 15 0 0 0;
#X connect 15 1 26 0;
#X connect 18 0 20 0;
#X connect 18 1 15 0;
#X connect 19 0 5 0;
#X connect 20 0 19 0;
#X connect 21 0 1 0;
#X connect 24 0 2 0;
#X connect 25 0 26 0;
#X connect 26 0 8 1;
#X connect 26 0 7 0;
