#N canvas 827 239 527 327 12;
#X obj 59 60 receive~ \$2-transport;
#X obj 59 286 edge~;
#X obj 59 217 delta~;
#X obj 59 140 *~ 4;
#X obj 59 319 outlet (trigger) trigger every nth-note;
#X obj 345 99 args;
#X obj 345 60 loadbang;
#X obj 345 140 unjoin 2;
#X obj 345 171 clip 0 256;
#X obj 87 99 inlet (number) time fraction (default = 4);
#X obj 59 179 modulo~ 1;
#X obj 59 252 lessthan~ -0.93;
#X connect 0 0 3 0;
#X connect 1 0 4 0;
#X connect 2 0 11 0;
#X connect 3 0 10 0;
#X connect 5 0 7 0;
#X connect 6 0 5 0;
#X connect 7 0 8 0;
#X connect 8 0 3 1;
#X connect 9 0 3 1;
#X connect 10 0 2 0;
#X connect 11 0 1 0;
