#N canvas 827 239 527 327 12;
#X obj 59 59 inlet;
#X obj 106 99 inlet;
#X obj 153 139 inlet;
#X obj 59 322 makenote 120 250;
#X obj 242 322 inlet;
#X obj 200 217 args;
#X obj 200 253 unjoin 3;
#X obj 200 182 loadbang;
#X text 144 98 (number) MIDI velocity 0-127;
#X text 191 138 (number) Note-lenth in ms;
#X obj 379 59 cnv 15 283 29 empty empty dc.midi.note 20 13 0 20 #00deb1 #ffffff 0;
#X text 279 318 (number) MIDI Channel to use;
#X obj 143 378 noteout;
#X text 379 95 Send a MIDI note to an external platform to trigger sounds. This can be a DAW \, an external hardware Synth \, or something else. Choose the devices you want to output to via the MIDI Preferences in Pd., f 41;
#X obj 59 253 i 60;
#X text 100 58 (number/trigger) send the MIDI note!;
#X connect 0 0 14 0;
#X connect 1 0 3 1;
#X connect 2 0 3 2;
#X connect 3 0 12 0;
#X connect 3 1 12 1;
#X connect 4 0 12 2;
#X connect 5 0 6 0;
#X connect 6 0 3 1;
#X connect 6 1 3 2;
#X connect 6 2 12 2;
#X connect 7 0 5 0;
#X connect 14 0 3 0;
