#N canvas 827 239 527 327 12;
#X declare -path else;
#X declare -path cyclone;
#X obj 639 59 cnv 15 283 29 empty empty dc.noise~ 20 13 0 20 #00deb1 #ffffff 0;
#X obj 178 219 args;
#X obj 178 182 loadbang;
#X obj 639 248 declare -path else;
#X obj 59 482 outlet~ (signal) sound output;
#X obj 639 279 declare -path cyclone;
#X obj 141 330 scale 0 127 30 3000 2;
#X obj 141 141 inlet (number) note length amount (0-127) (default = 30);
#X msg 59 362 next \$1;
#X msg 141 362 all \$1;
#X msg 294 330 all \$1;
#X text 639 96 A polyphonic filtered whitenoise synth. Used to created more percussive sounds with some simple filtered noise and an attack and decay. Snare-dum-ish or hihat-ish sounds can be created., f 41;
#X obj 59 441 clone _noise-voice 6;
#X obj 59 59 inlet (trigger/number) Velocity triggers the noise (0-127) (default = 120), f 66;
#X obj 59 97 int 120;
#X obj 294 182 inlet (number) filter cutoff 0-127 (default = 70);
#X obj 351 219 inlet (number) filter resonance 0-127 (default = 40);
#X msg 351 330 all \$1;
#X obj 178 276 unjoin 3;
#X obj 178 248 default 30 70 40;
#X connect 1 0 19 0;
#X connect 2 0 1 0;
#X connect 6 0 9 0;
#X connect 7 0 6 0;
#X connect 8 0 12 0;
#X connect 9 0 12 1;
#X connect 10 0 12 2;
#X connect 12 0 4 0;
#X connect 13 0 14 0;
#X connect 14 0 8 0;
#X connect 15 0 10 0;
#X connect 16 0 17 0;
#X connect 17 0 12 3;
#X connect 18 0 6 0;
#X connect 18 1 10 0;
#X connect 18 2 17 0;
#X connect 19 0 18 0;
