#N canvas 827 239 527 327 12;
#X declare -path else;
#X obj 59 322 makenote 120 250;
#X obj 200 217 args;
#X obj 200 253 unjoin 3;
#X obj 200 182 loadbang;
#X obj 379 59 cnv 15 283 29 empty empty dc.midi.note 20 13 0 20 #00deb1 #ffffff 0;
#X obj 139 439 noteout;
#X text 379 95 Send a MIDI note to an external platform to trigger sounds. This can be a DAW \, an external hardware Synth \, or something else. Choose the devices you want to output to via the MIDI Preferences in Pd., f 41;
#X obj 59 253 i 60;
#X obj 59 59 inlet (number/trigger) send the MIDI note!;
#X obj 106 99 inlet (number) MIDI velocity 0-127;
#X obj 256 322 inlet (number) MIDI-channel to use;
#X obj 153 139 inlet (number) note length in ms;
#X obj 379 253 declare -path else;
#X obj 139 402 flush;
#X obj 200 322 t f b;
#X connect 0 0 13 0;
#X connect 0 1 13 1;
#X connect 1 0 2 0;
#X connect 2 0 0 1;
#X connect 2 1 0 2;
#X connect 2 2 14 0;
#X connect 3 0 1 0;
#X connect 7 0 0 0;
#X connect 8 0 7 0;
#X connect 9 0 0 1;
#X connect 10 0 5 2;
#X connect 11 0 0 2;
#X connect 13 0 5 0;
#X connect 13 1 5 1;
#X connect 14 0 5 2;
#X connect 14 1 13 0;
