#N canvas 827 239 527 327 12;
#X obj 59 439 netsend -u -b;
#X obj 253 125 loadbang;
#X obj 253 163 t b b;
#X obj 59 59 inlet;
#X obj 98 351 receiver;
#X text 99 58 1 (message) message to send \, can also be send with dc.osc.message, f 31;
#X obj 265 201 args -;
#X obj 265 276 route -name;
#X text 462 58 dc.osc.send;
#X text 462 95 Send OSC messages from drum.code to a different platform like the Mercury live coding environment, f 32;
#X text 462 162 Arguments:;
#X text 462 207 - port (default 4880);
#X text 462 185 - ip-address (default localhost or 127.0.0.1);
#X obj 59 393 osc.format;
#X obj 98 319 prepend symbol;
#X msg 98 240 _drumcode_osc;
#X msg 322 399 disconnect \, connect \$1 \$2;
#X obj 322 447 print;
#X obj 265 240 default list localhost 4880;
#X connect 1 0 2 0;
#X connect 2 0 15 0;
#X connect 2 1 6 0;
#X connect 3 0 13 0;
#X connect 4 0 13 0;
#X connect 6 0 18 0;
#X connect 7 0 14 0;
#X connect 7 1 16 0;
#X connect 13 0 0 0;
#X connect 14 0 4 0;
#X connect 15 0 14 0;
#X connect 16 0 0 0;
#X connect 16 0 17 0;
#X connect 18 0 7 0;
