#N canvas 827 239 527 327 12;
#X obj 59 59 inlet;
#X obj 59 301 prepend /undefined;
#X obj 59 360 send;
#X obj 199 187 args -;
#X obj 199 222 route -name;
#X obj 279 125 loadbang;
#X obj 279 159 t b b;
#X msg 98 260 set \$1;
#X text 98 58 1 (number/message) send incoming number as osc message, f 30;
#X text 433 58 dc.osc.message;
#X text 433 96 Format an OSC-message from the incoming value and send out via the `[dc.osc.send]` object. This object only works in combination with the dc.osc.send in your patch. Specify the osc-address pattern as an argument. You can use a unique -name if you prefer., f 38;
#X obj 199 360 print;
#X obj 199 301 prepend symbol;
#X msg 292 222 _drumcode_osc;
#X obj 59 125 route bang;
#X msg 62 151 1;
#X connect 0 0 14 0;
#X connect 1 0 2 0;
#X connect 3 0 4 0;
#X connect 4 0 12 0;
#X connect 4 1 7 0;
#X connect 5 0 6 0;
#X connect 6 0 3 0;
#X connect 6 1 13 0;
#X connect 7 0 1 0;
#X connect 12 0 11 0;
#X connect 12 0 2 1;
#X connect 13 0 12 0;
#X connect 14 0 15 0;
#X connect 14 1 1 0;
#X connect 15 0 1 0;
