#N canvas 827 239 527 327 12;
#X declare -path else;
#X declare -path cyclone;
#X obj 59 439 netsend -u -b;
#X obj 278 89 loadbang;
#X obj 278 127 t b b;
#X obj 98 351 receiver;
#X obj 290 165 args -;
#X obj 290 240 route -name;
#X text 482 103 Send OSC messages from drum.code to a different platform like the Mercury live coding environment, f 32;
#X text 482 162 Arguments:;
#X text 482 207 - port (default 4880);
#X text 482 185 - ip-address (default localhost or 127.0.0.1);
#X obj 59 393 osc.format;
#X obj 98 319 prepend symbol;
#X msg 98 240 _drumcode_osc;
#X msg 297 386 disconnect \, connect \$1 \$2;
#X obj 290 204 default list localhost 4880;
#X obj 59 59 inlet (message) message to send \, can also be send with dc.osc.message, f 28;
#X obj 482 439 declare -path else;
#X obj 482 59 cnv 15 283 29 empty empty dc.osc.send 20 13 0 20 #00deb1 #ffffff 0;
#X obj 348 280 unpack s f;
#X obj 297 347 pak localhost 4880;
#X obj 59 125 route host port;
#X obj 482 410 declare -path cyclone;
#X connect 1 0 2 0;
#X connect 2 0 12 0;
#X connect 2 1 4 0;
#X connect 3 0 10 0;
#X connect 4 0 14 0;
#X connect 5 0 11 0;
#X connect 5 1 18 0;
#X connect 10 0 0 0;
#X connect 11 0 3 0;
#X connect 12 0 11 0;
#X connect 13 0 0 0;
#X connect 14 0 5 0;
#X connect 15 0 20 0;
#X connect 18 0 19 0;
#X connect 18 1 19 1;
#X connect 19 0 13 0;
#X connect 20 0 19 0;
#X connect 20 1 19 1;
#X connect 20 2 10 0 32.................5....f6+++uN....39+++mO....;
