#N canvas 827 239 734 565 12;
#X obj 94 398 zl.compare;
#X obj 107 322 zl.len;
#X obj 51 360 zl.ecils 16;
#X obj 184 223 coll \$0-ptn;
#C restore;
#X obj 409 300 join;
#X obj 508 260 + 1;
#X obj 460 260 i;
#X msg 474 225 1;
#X obj 409 225 t b l;
#X msg 184 181 dump;
#X obj 235 522 i;
#X msg 274 481 0;
#X obj 259 139 t b b;
#X obj 59 101 route clear;
#X msg 326 300 clear;
#X obj 116 260 t b l l;
#X obj 51 322 zl.reg;
#X obj 94 441 sel 1;
#X obj 190 481 i;
#X obj 108 139 t b l;
#X obj 59 60 inlet (list) a pattern to match with the provided options;
#X obj 235 560 outlet (number) matched pattern (starting at 1) or 0 when no match;
#X obj 439 173 args;
#X obj 458 108 loadbang;
#X obj 409 60 inlet (list) insert a list to add to match options;
#X obj 409 338 coll \$0-ptn;
#C restore;
#X obj 59 181 s \$0-clear;
#X obj 326 174 r \$0-clear;
#X obj 699 59 cnv 15 283 29 empty empty dc.rhythm.match 20 13 0 20 #00deb1 #ffffff 0;
#X text 698 98 Match a list of input rhythm with a set of predefined rhythms. If the rhythm is part of the set it will output the corresponding index of that rhythm. Multiple rhyhtms can be provided as a list of 0's and 1's. If the rhythm to match is shorter than the incoming list \, the incoming list is sliced and only the last part it is used. For example if the matched rhythm is [1 0 1 1] \, and the input list is [1 0 0 1 1 0 1 1] the output will still return true (1) because the final 4 values are the same. If you need an exact match you can easily just use [zl.compare], f 41;
#X obj 458 139 t b b;
#X connect 0 0 17 0;
#X connect 1 0 2 1;
#X connect 2 1 0 0;
#X connect 3 0 15 0;
#X connect 3 1 18 1;
#X connect 3 3 10 0;
#X connect 4 0 25 0;
#X connect 5 0 6 1;
#X connect 6 0 5 0;
#X connect 6 0 4 0;
#X connect 7 0 6 1;
#X connect 8 0 6 0;
#X connect 8 1 4 1;
#X connect 9 0 3 0;
#X connect 10 0 21 0;
#X connect 11 0 10 1;
#X connect 12 0 9 0;
#X connect 12 1 11 0;
#X connect 13 0 26 0;
#X connect 13 1 19 0;
#X connect 14 0 25 0;
#X connect 15 0 16 0;
#X connect 15 1 1 0;
#X connect 15 2 0 1;
#X connect 16 0 2 0;
#X connect 17 0 18 0;
#X connect 18 0 10 1;
#X connect 19 0 12 0;
#X connect 19 1 16 1;
#X connect 20 0 13 0;
#X connect 22 0 8 0;
#X connect 23 0 30 0;
#X connect 24 0 8 0;
#X connect 27 0 7 0;
#X connect 27 0 14 0;
#X connect 30 0 22 0;
#X connect 30 1 7 0;
