#N canvas 827 239 527 327 12;
#X obj 59 303 random 1000;
#X obj 59 339 / 999;
#X obj 59 375 scale 0 1 36 72;
#X obj 93 466 + 0.5;
#X obj 93 496 i;
#X obj 172 303 unjoin 3;
#X obj 203 375 + 1;
#X obj 172 144 args;
#X obj 239 265 coll @embed 1;
#C flags 1 0;
#C store amp 0 1 0;
#C store amplitude 0 1 0;
#C store note 36 72 1;
#C store pitch 36 72 1;
#C store vel 60 125 1;
#C store velocity 60 125 1;
#C store dur 50 500 1;
#C store duration 50 500 1;
#C restore;
#X obj 172 116 loadbang;
#X obj 172 200 route list;
#X obj 59 59 inlet;
#X obj 59 552 outlet;
#X obj 59 270 t b;
#X text 415 103 Generate random values within a minimum and maximum range. The low and high values are included. You can specify a default range with "amplitude"/"amp" \, "velocity"/"vel" \, "note"/"pitch" \, "duration"/"dur" to quickly get some output in a desired range. Otherwise specify the low \, high range \, and if the output should be integer (1 \, default) or float (0), f 40;
#X obj 416 59 cnv 15 283 29 empty empty dc.random 20 13 0 20 #00deb1 #ffffff 0;
#X text 112 551 (number) the randomly generated number;
#X text 97 58 1 (trigger) trigger the output of a random number;
#X obj 59 434 gate 2 2;
#X obj 256 303 inlet;
#X obj 269 339 inlet;
#X text 308 338 3 (number) the highest possible value (default = 72);
#X text 293 302 2 (number) the lowest possible value (default = 36);
#X msg 239 235 symbol \$1;
#X obj 172 172 default 36 72 1;
#X connect 0 0 1 0;
#X connect 1 0 2 0;
#X connect 2 0 18 1;
#X connect 3 0 4 0;
#X connect 4 0 12 0;
#X connect 5 0 2 3;
#X connect 5 1 2 4;
#X connect 5 2 6 0;
#X connect 6 0 18 0;
#X connect 7 0 24 0;
#X connect 8 0 5 0;
#X connect 9 0 7 0;
#X connect 10 0 5 0;
#X connect 10 1 23 0;
#X connect 11 0 13 0;
#X connect 13 0 0 0;
#X connect 18 0 12 0;
#X connect 18 1 3 0;
#X connect 19 0 2 3;
#X connect 20 0 2 4;
#X connect 23 0 8 0;
#X connect 24 0 10 0;
