#N canvas 827 239 734 565 12;
#X obj 59 482 writesf~ 2;
#X obj 59 421 *~;
#X obj 105 421 *~;
#X msg 159 346 \$1 10;
#X obj 269 230 savepanel;
#X msg 333 421 open \$1;
#X msg 283 421 start;
#X msg 218 421 stop;
#X obj 147 169 change;
#X obj 418 59 cnv 15 283 29 empty empty dc.record~ 20 13 0 20 #00deb1 #ffffff 0;
#X obj 105 97 inlet~ (signal) Right signal to record;
#X obj 147 141 inlet (toggle) start/stop the recording;
#X obj 59 59 inlet~ (signal) Left signal to record, f 31;
#X obj 159 378 line~;
#X obj 218 378 delay 10;
#X obj 147 202 sel 1;
#X obj 269 260 t b b a;
#X msg 272 293 1;
#X text 418 96 A simple stereo recording object for quickly recording some sounds from the patch to the harddrive. Use a toggle on (1) to open a file and start the recording \, then toggle off (0) to stop the recording. When prompted for a filename \, type the full name including your desired extension (for instance .wav or .aiff), f 41;
#X connect 1 0 0 0;
#X connect 2 0 0 1;
#X connect 3 0 13 0;
#X connect 4 0 16 0;
#X connect 5 0 0 0;
#X connect 6 0 0 0;
#X connect 7 0 0 0;
#X connect 8 0 15 0;
#X connect 10 0 2 0;
#X connect 11 0 8 0;
#X connect 12 0 1 0;
#X connect 13 0 2 1;
#X connect 13 0 1 1;
#X connect 14 0 7 0;
#X connect 15 0 4 0;
#X connect 15 1 3 0;
#X connect 15 1 14 0;
#X connect 16 0 17 0;
#X connect 16 1 6 0;
#X connect 16 2 5 0;
#X connect 17 0 3 0;
