#N canvas 827 239 734 565 12;
#X declare -path else;
#X declare -path cyclone;
#X obj 242 179 openpanel;
#X obj 242 147 route read;
#X obj 242 280 soundfiler;
#X msg 287 317 \$1;
#X obj 242 388 /;
#X obj 61 388 pack 0 f f;
#X obj 104 237 f 1;
#X obj 61 201 t b b;
#X obj 104 329 !/ 1;
#X obj 287 346 / 1000;
#X obj 121 468 selector 2;
#X obj 164 329 < 0;
#X obj 104 296 abs;
#X obj 242 317 - 2;
#X obj 121 657 hip~ 5;
#X msg 61 428 1 \, \$2 \$3;
#X msg 143 428 \$2 \, 1 \$3;
#X obj 61 59 inlet (trigger/read) play the sound \, load a soundfile;
#X obj 121 694 outlet~ (signal) sound output;
#X obj 261 625 array define \$0-buf;
#X f 18;
#X obj 121 625 tabread4~ \$0-buf;
#X msg 242 244 read -resize \$1 \$2-buf;
#X obj 242 208 pack s \$0;
#X obj 399 131 args;
#X obj 399 99 loadbang;
#X obj 115 99 inlet (number) playback speed (default = 1);
#X obj 186 587 switch~;
#X obj 121 520 cyclone/line~;
#X obj 261 491 declare -path else;
#X obj 261 520 declare -path cyclone;
#X msg 188 552 0;
#X msg 223 552 1;
#X msg 399 167 \$1;
#X connect 0 0 22 0;
#X connect 1 0 0 0;
#X connect 2 0 13 0;
#X connect 2 1 3 0;
#X connect 3 0 9 0;
#X connect 4 0 8 1;
#X connect 5 0 15 0;
#X connect 5 0 16 0;
#X connect 6 0 11 0;
#X connect 6 0 12 0;
#X connect 7 0 5 0;
#X connect 7 1 6 0;
#X connect 8 0 5 2;
#X connect 9 0 4 1;
#X connect 10 0 27 0;
#X connect 10 0 31 0;
#X connect 11 0 10 2;
#X connect 12 0 8 0;
#X connect 13 0 4 0;
#X connect 13 0 5 1;
#X connect 14 0 18 0;
#X connect 15 0 10 0;
#X connect 16 0 10 1;
#X connect 17 0 7 0;
#X connect 17 0 1 0;
#X connect 20 0 14 0;
#X connect 21 0 2 0;
#X connect 22 0 21 0;
#X connect 23 0 32 0;
#X connect 24 0 23 0;
#X connect 25 0 6 1;
#X connect 27 0 20 0;
#X connect 27 1 30 0;
#X connect 30 0 26 0;
#X connect 31 0 26 0;
#X connect 32 0 22 0;
