#N canvas 827 239 527 327 12;
#X declare -path else;
#X declare -path cyclone;
#X obj 59 207 route clear;
#X obj 120 306 dc.average;
#X obj 191 400 clip 0 1;
#X obj 274 180 loadbang;
#X obj 191 207 unjoin;
#X msg 59 258 clear;
#X obj 191 358 scale 40 1000 1 0 0.5;
#X obj 274 218 args -;
#X obj 274 258 route -history;
#X obj 120 258 dc.inrange 40 1000;
#X text 559 96 Get the speed "amount" as a floating point number between 0 and 1 from a simple average over a history of time values values, f 40;
#X obj 170 97 inlet (number) fastest speed in ms (default = 40);
#X obj 220 141 inlet (number) slowest speed in ms (default = 1000);
#X obj 191 438 outlet (number) speed 0-1;
#X obj 559 207 declare -path else;
#X obj 559 243 declare -path cyclone;
#X obj 559 59 cnv 15 283 29 empty empty dc.speed 20 13 0 20 #00deb1 #ffffff 0;
#X obj 59 59 inlet (number) time between triggers \, connect to dc.timer;
#X connect 0 0 5 0;
#X connect 0 1 9 0;
#X connect 1 0 6 0;
#X connect 2 0 13 0;
#X connect 3 0 7 0;
#X connect 4 0 6 1;
#X connect 4 0 9 1;
#X connect 4 1 6 2;
#X connect 4 1 9 2;
#X connect 5 0 1 0;
#X connect 6 0 2 0;
#X connect 7 0 8 0;
#X connect 8 0 1 1;
#X connect 8 1 4 0;
#X connect 9 0 1 0;
#X connect 11 0 9 1;
#X connect 12 0 9 2;
#X connect 17 0 0 0;
