#N canvas 827 239 734 565 12;
#X declare -path else;
#X declare -path cyclone;
#X obj 242 199 openpanel;
#X obj 242 167 route read;
#X obj 242 315 soundfiler;
#X msg 287 352 \$1;
#X obj 242 423 /;
#X obj 104 272 f 1;
#X obj 104 364 !/ 1;
#X obj 287 381 / 1000;
#X obj 121 503 selector 2;
#X obj 168 331 < 0;
#X obj 104 331 abs;
#X obj 242 352 - 2;
#X obj 121 771 hip~ 5;
#X msg 61 463 1 \, \$2 \$3;
#X msg 143 463 \$2 \, 1 \$3;
#X obj 121 808 outlet~ (signal) sound output;
#X obj 324 739 array define \$0-buf;
#X f 18;
#X obj 121 661 tabread4~ \$0-buf;
#X msg 242 279 read -resize \$1 \$2-buf;
#X obj 342 170 args;
#X obj 342 138 loadbang;
#X obj 186 622 switch~;
#X obj 121 555 cyclone/line~;
#X obj 418 72 declare -path else;
#X obj 418 101 declare -path cyclone;
#X msg 188 587 0;
#X msg 223 587 1;
#X msg 342 199 \$1;
#X obj 242 243 pack s \$0;
#X obj 61 423 pack 0 f f;
#X obj 61 72 inlet (trigger/number/read) play the sound \, play the sound with a different playback speed \, load a soundfile, f 34;
#X obj 335 538 inlet (number) velocity of the sound 0-127 (default = 120);
#X obj 335 574 / 127;
#X obj 324 647 f;
#X obj 61 223 t b b f;
#X obj 158 272 s \$0-trig;
#X obj 264 605 r \$0-trig;
#X obj 121 739 *~;
#X obj 324 680 sig~ 1;
#X obj 335 605 * 0.707;
#X obj 589 72 cnv 15 283 29 empty empty dc.sample~ 20 13 0 20 #00deb1 #ffffff 0;
#X text 589 109 Play a sample (soundfile) from the computer when a trigger (bang) is send to the left inlet. The sound can be loaded via the read message send to the left inlet., f 41;
#X text 589 198 Alternatively the first argument can be the name of the soundfile if the file is in the searchpath. For example by adding the object [declare -path /path/to/sounds/folder]., f 49;
#X text 589 256 Then easily load the sound with for example: [dc.sample~ bell.wav], f 40;
#X text 218 462 playback reverse if a negative number, f 12;
#X connect 0 0 28 0;
#X connect 1 0 0 0;
#X connect 2 0 11 0;
#X connect 2 1 3 0;
#X connect 3 0 7 0;
#X connect 4 0 6 1;
#X connect 5 0 9 0;
#X connect 5 0 10 0;
#X connect 6 0 29 2;
#X connect 7 0 4 1;
#X connect 8 0 22 0;
#X connect 8 0 26 0;
#X connect 9 0 8 2;
#X connect 10 0 6 0;
#X connect 11 0 4 0;
#X connect 11 0 29 1;
#X connect 12 0 15 0;
#X connect 13 0 8 0;
#X connect 14 0 8 1;
#X connect 17 0 37 0;
#X connect 18 0 2 0;
#X connect 19 0 27 0;
#X connect 20 0 19 0;
#X connect 22 0 17 0;
#X connect 22 1 25 0;
#X connect 25 0 21 0;
#X connect 26 0 21 0;
#X connect 27 0 28 0;
#X connect 28 0 18 0;
#X connect 29 0 13 0;
#X connect 29 0 14 0;
#X connect 30 0 1 0;
#X connect 30 0 34 0;
#X connect 31 0 32 0;
#X connect 32 0 39 0;
#X connect 33 0 38 0;
#X connect 34 0 29 0;
#X connect 34 1 35 0;
#X connect 34 2 5 0;
#X connect 36 0 33 0;
#X connect 37 0 12 0;
#X connect 38 0 37 1;
#X connect 39 0 33 1;
