#N canvas 827 239 527 327 12;
#X obj 59 41 inlet;
#X obj 59 189 route clear;
#X obj 120 288 dc.average;
#X obj 191 382 clip 0 1;
#X obj 191 420 outlet;
#X obj 274 162 loadbang;
#X obj 191 189 unjoin;
#X msg 59 240 clear;
#X obj 191 340 scale 40 1000 1 0 0.5;
#X obj 274 200 args -;
#X obj 274 240 route -history;
#X obj 120 240 dc.inrange 40 1000;
#X text 476 40 dc.speed;
#X text 102 40 1 (number) time in ms from trigger;
#X obj 176 79 inlet;
#X obj 232 123 inlet;
#X text 216 78 2 (number) fastest speed in ms (default = 40), f 29;
#X text 271 122 3 (number) slowest speed in ms (default = 1000), f 24;
#X text 241 419 (number) speed 0-1;
#X text 476 78 Get the speed "amount" as a floating point number between 0 and 1 from a simple average over a history of time values values, f 30;
#X connect 0 0 1 0;
#X connect 1 0 7 0;
#X connect 1 1 11 0;
#X connect 2 0 8 0;
#X connect 3 0 4 0;
#X connect 5 0 9 0;
#X connect 6 0 11 1;
#X connect 6 0 8 1;
#X connect 6 1 11 2;
#X connect 6 1 8 2;
#X connect 7 0 2 0;
#X connect 8 0 3 0;
#X connect 9 0 10 0;
#X connect 10 0 2 1;
#X connect 10 1 6 0;
#X connect 11 0 2 0;
#X connect 14 0 11 1;
#X connect 15 0 11 2;
