#N canvas 827 239 527 327 12;
#X declare -path else;
#X declare -path cyclone;
#X obj 619 59 cnv 15 283 29 empty empty dc.synth.square~ 20 13 0 20 #00deb1 #ffffff 0;
#X obj 59 97 int 60;
#X obj 279 219 args;
#X obj 279 182 loadbang;
#X obj 279 276 unjoin 2;
#X obj 619 248 declare -path else;
#X obj 59 482 outlet~ (signal) sound output;
#X obj 619 279 declare -path cyclone;
#X obj 242 330 scale 0 127 30 3000 2;
#X obj 59 59 inlet (trigger/number) MIDI note pitch triggers the note (0-127) (default = 60), f 66;
#X obj 242 141 inlet (number) note length amount (0-127) (default = 30);
#X obj 279 248 default 127 30 0;
#X obj 144 97 inlet (number) velocity/volume (1-127) (default = 127);
#X msg 59 362 next \$1;
#X msg 144 330 all \$1;
#X msg 242 362 all \$1;
#X msg 392 362 all \$1;
#X obj 59 441 clone _square-voice 6;
#X text 619 96 A simple polyphonic squarewave synth. Useful to quickly create a sound to test if a patch is working \, to create a clicktrack to play along with \, or to actually use for musical purposes of course!, f 41;
#X obj 392 199 inlet (number) glide amount (0-127) (default = 0);
#X obj 392 330 scale 0 127 0 500 2;
#X connect 1 0 13 0;
#X connect 2 0 11 0;
#X connect 3 0 2 0;
#X connect 4 0 14 0;
#X connect 4 1 8 0;
#X connect 4 2 20 0;
#X connect 8 0 15 0;
#X connect 9 0 1 0;
#X connect 10 0 8 0;
#X connect 11 0 4 0;
#X connect 12 0 14 0;
#X connect 13 0 17 0;
#X connect 14 0 17 1;
#X connect 15 0 17 2;
#X connect 16 0 17 3;
#X connect 17 0 6 0;
#X connect 19 0 20 0;
#X connect 20 0 16 0;
