#N canvas 827 239 734 565 12;
#X declare -path else;
#X declare -path cyclone;
#X obj 279 329 !/ 1920;
#X obj 59 410 int;
#X obj 59 438 change;
#X obj 103 295 unpack f f;
#X obj 103 329 %;
#X obj 59 259 router;
#X msg 59 329 \$1;
#X obj 80 232 > 0;
#X obj 149 329 * 1;
#X obj 59 472 t b f;
#X obj 279 40 inlet (number) division\\\, (2\\\, 4\\\, 8\\\, 12\\\, 16\\\, etc);
#X obj 199 40 loadbang;
#X obj 279 441 declare -path else;
#X obj 279 472 declare -path cyclone;
#X obj 199 72 args -;
#X obj 218 197 unjoin 2;
#X obj 103 517 outlet (number) step number from sequencer;
#X obj 59 557 outlet (trigger) trigger from sequencer;
#X obj 199 109 route -name;
#X obj 59 198 receiver dc-transport;
#X obj 59 166 prepend symbol;
#X obj 59 380 / 480;
#X connect 0 0 21 1;
#X connect 1 0 2 0;
#X connect 2 0 9 0;
#X connect 3 0 4 0;
#X connect 3 1 8 0;
#X connect 4 0 21 0;
#X connect 5 0 6 0;
#X connect 5 1 3 0;
#X connect 6 0 21 0;
#X connect 7 0 5 1;
#X connect 8 0 4 1;
#X connect 9 0 17 0;
#X connect 9 1 16 0;
#X connect 10 0 0 0;
#X connect 11 0 14 0;
#X connect 14 0 18 0;
#X connect 15 0 0 0;
#X connect 15 1 7 0;
#X connect 18 0 20 0;
#X connect 18 1 15 0;
#X connect 19 0 5 0;
#X connect 20 0 19 0;
#X connect 21 0 1 0;
