#N canvas 827 239 527 327 12;
#X obj 205 320 array set \$0-list;
#X obj 117 202 + 1;
#X obj 59 202 i 0;
#X obj 59 282 % 1;
#X obj 241 248 list length;
#X obj 241 282 array size \$0-list;
#X obj 205 202 t l l;
#X obj 59 320 array get \$0-list 0 1;
#X obj 205 134 args;
#X obj 205 168 default 60 62 64 65 67 69 71 72;
#X obj 205 99 loadbang;
#X obj 59 372 outlet;
#X obj 59 59 inlet;
#X obj 294 99 inlet;
#X obj 294 202 array define \$0-list 1;
#X text 106 371 (number) output the number in the sequence on that step;
#X text 97 58 1 (trigger/number) next step in sequence \, or go to number;
#X text 336 98 2 (list) input a list of numbers for the sequence, f 16;
#X obj 474 59 cnv 15 283 29 empty empty dc.step 20 13 0 20 #00deb1 #ffffff 0;
#X text 473 98 Step through the values of a list for every time the object receives a trigger. The list can be defined as arguments or via the right inlet. A number can be send to go to a specific step as well., f 41;
#X text 473 185 Default list is a simple major scale upwards;
#X connect 1 0 2 1;
#X connect 2 0 1 0;
#X connect 2 0 3 0;
#X connect 3 0 7 0;
#X connect 4 0 3 1;
#X connect 4 0 5 0;
#X connect 6 0 0 0;
#X connect 6 1 4 0;
#X connect 7 0 11 0;
#X connect 8 0 9 0;
#X connect 9 0 6 0;
#X connect 10 0 8 0;
#X connect 12 0 2 0;
#X connect 13 0 8 0;
