#N canvas 827 239 734 565 12;
#X declare -path else;
#X declare -path cyclone;
#X obj 420 103 openpanel 1;
#X obj 460 223 file glob;
#X msg 460 256 \$2 \$1;
#X obj 460 288 route 0;
#X msg 460 185 symbol \$1/*.wav;
#X obj 420 330 zl.group;
#X obj 420 143 t b l;
#X text 544 222 search folder for all files ending on .wav, f 22;
#X text 437 415 iterate over all files found;
#X text 486 329 group the files;
#X msg 632 436 resize \$1;
#X obj 632 408 zl.len;
#X text 652 477 create empty buffers with the clone by resizing, f 22;
#X msg 632 529 clear;
#X obj 420 369 t a a;
#X obj 420 529 prepend list;
#X obj 632 566 text define \$0-dc-buffers;
#X obj 641 870 declare -path else;
#X obj 641 899 declare -path cyclone;
#X obj 227 434 /;
#X obj 102 363 f 1;
#X obj 102 448 !/ 1;
#X obj 272 392 / 1000;
#X obj 119 594 selector 2;
#X obj 166 408 < 0;
#X obj 102 408 abs;
#X obj 227 392 - 2;
#X msg 59 554 1 \, \$2 \$3;
#X msg 141 554 \$2 \, 1 \$3;
#X obj 119 934 outlet~ (signal) sound output;
#X obj 184 713 switch~;
#X obj 119 646 cyclone/line~;
#X msg 186 678 0;
#X msg 221 678 1;
#X obj 420 678 inlet (number) velocity of the sound 0-127 (default = 120);
#X obj 420 714 / 127;
#X obj 28 363 s \$0-trig;
#X obj 349 745 r \$0-trig;
#X obj 119 858 *~;
#X obj 409 820 sig~ 1;
#X obj 420 745 * 0.707;
#X text 216 553 playback reverse if a negative number, f 12;
#X obj 527 91 args;
#X obj 527 59 loadbang;
#X msg 527 120 \$1;
#X obj 59 59 inlet (trigger/number/read) play the sound \, play the sound with a different playback speed \, load a soundfile, f 34;
#X obj 420 598 text insert \$0-dc-buffers;
#X obj 420 492 clone _clone-buffer 1 \$0-dc-buffers, f 32;
#X obj 59 245 text get \$0-dc-buffers;
#X obj 119 763 tabread4~;
#X obj 227 315 t l l;
#X msg 227 359 \$3;
#X msg 272 359 \$4;
#X obj 59 315 t b b b;
#X obj 298 315 zl.ecils 1;
#X obj 59 275 t a a;
#X msg 333 711 set \$1;
#X obj 59 143 int 0;
#X obj 59 514 pack f f f;
#X obj 333 678 symbol;
#X obj 409 787 f;
#X obj 485 714 loadmess 120;
#X obj 739 59 cnv 15 283 29 empty empty dc.sampler~ 20 13 0 20 #00deb1 #ffffff 0;
#X text 739 96 Play multiple samples (soundfiles) from a loaded folder of sounds from the computer when a trigger (bang) or number (number) is send to the left inlet. The sound can be loaded via the "read" message send to the left inlet. The number send ot the inlet is the index of the loaded samples, f 41;
#X obj 485 787 inlet (number) playback rate 0-127 (default = 64);
#X obj 485 858 send \$0-rate;
#X obj 138 315 r \$0-rate;
#X obj 485 820 scale 0 128 0 4 2;
#X obj 420 434 listfunnel;
#X msg 485 567 1e+09;
#X obj 59 214 % 1;
#X obj 116 191 text size \$0-dc-buffers;
#X obj 59 169 t f b;
#X obj 119 890 hip~ 10;
#X text 739 216 Alternatively the first argument can be the path of the folder if it is in the searchpath., f 40;
#X text 739 261 Then easily load the sounds on startup, f 40;
#X obj 373 59 route stop read;
#X msg 370 598 stop;
#X connect 0 0 6 0;
#X connect 1 0 2 0;
#X connect 2 0 3 0;
#X connect 3 0 5 0;
#X connect 4 0 1 0;
#X connect 5 0 14 0;
#X connect 6 0 5 0;
#X connect 6 1 4 0;
#X connect 10 0 47 0;
#X connect 10 0 13 0;
#X connect 11 0 10 0;
#X connect 13 0 16 0;
#X connect 14 0 68 0;
#X connect 14 1 11 0;
#X connect 15 0 46 0;
#X connect 15 0 69 0;
#X connect 19 0 21 1;
#X connect 20 0 24 0;
#X connect 20 0 25 0;
#X connect 21 0 58 2;
#X connect 22 0 19 1;
#X connect 23 0 31 0;
#X connect 23 0 33 0;
#X connect 24 0 23 2;
#X connect 25 0 21 0;
#X connect 26 0 19 0;
#X connect 26 0 58 1;
#X connect 27 0 23 0;
#X connect 28 0 23 1;
#X connect 31 0 49 0;
#X connect 31 1 32 0;
#X connect 32 0 30 0;
#X connect 33 0 30 0;
#X connect 34 0 35 0;
#X connect 35 0 40 0;
#X connect 37 0 60 0;
#X connect 38 0 73 0;
#X connect 39 0 38 1;
#X connect 40 0 60 1;
#X connect 42 0 44 0;
#X connect 43 0 42 0;
#X connect 44 0 6 0;
#X connect 45 0 57 0;
#X connect 45 0 76 0;
#X connect 47 0 15 0;
#X connect 48 0 55 0;
#X connect 49 0 38 0;
#X connect 50 0 51 0;
#X connect 50 1 52 0;
#X connect 51 0 26 0;
#X connect 52 0 22 0;
#X connect 53 0 58 0;
#X connect 53 1 36 0;
#X connect 53 2 20 0;
#X connect 54 1 59 0;
#X connect 55 0 53 0;
#X connect 55 1 54 0;
#X connect 55 1 50 0;
#X connect 56 0 49 0;
#X connect 57 0 72 0;
#X connect 58 0 27 0;
#X connect 58 0 28 0;
#X connect 59 0 56 0;
#X connect 60 0 39 0;
#X connect 61 0 35 0;
#X connect 64 0 67 0;
#X connect 66 0 20 1;
#X connect 67 0 65 0;
#X connect 68 0 47 0;
#X connect 69 0 46 1;
#X connect 70 0 48 0;
#X connect 71 0 70 1;
#X connect 72 0 70 0;
#X connect 72 1 71 0;
#X connect 73 0 29 0;
#X connect 76 0 77 0;
#X connect 76 1 0 0;
#X connect 77 0 31 0;
