#N canvas 827 239 527 327 12;
#X obj 117 220 + 1;
#X obj 59 220 i 0;
#X obj 59 277 % 1;
#X obj 182 220 t l l;
#X obj 182 138 args;
#X obj 182 179 default 60 62 64 65 67 69 71 72;
#X obj 182 99 loadbang;
#X obj 474 59 cnv 15 283 29 empty empty dc.step 20 13 0 20 #00deb1 #ffffff 0;
#X text 473 98 Step through the values of a list for every time the object receives a trigger. The list can be defined as arguments or via the right inlet. A number can be send to go to a specific step as well., f 41;
#X text 473 185 Default list is a simple major scale upwards;
#X obj 59 319 zl.lookup;
#X obj 193 260 zl.len;
#X obj 59 59 inlet (trigger/number) next step in sequence \, or go to number;
#X obj 59 372 outlet (number) output the number in the sequence on that step;
#X obj 260 99 inlet (list) input a list of numbers for the sequence (maximum size 256), f 25;
#X connect 0 0 1 1;
#X connect 1 0 0 0;
#X connect 1 0 2 0;
#X connect 2 0 10 0;
#X connect 3 0 10 1;
#X connect 3 1 11 0;
#X connect 4 0 5 0;
#X connect 5 0 3 0;
#X connect 6 0 4 0;
#X connect 10 0 13 0;
#X connect 11 0 2 1;
#X connect 12 0 1 0;
#X connect 14 0 5 0;
