#N canvas 827 239 734 565 12;
#X declare -path drumcode/pd;
#X obj 419 60 declare -path drumcode/pd;
#X obj 105 179 dc.timer;
#X obj 419 281 dc.direction;
#X obj 161 281 dc.speed;
#X obj 529 281 dc.count;
#X obj 105 219 t f f f;
#X obj 161 318 t f f;
#X obj 161 439 * 127;
#X obj 219 439 * 127;
#X obj 419 439 * 127;
#X obj 219 359 dc.slide 60;
#X obj 105 581 outlet (number) time output;
#X obj 161 540 outlet (number) speed 0 - 127;
#X obj 219 475 outlet (number) speed slide continuous output 0 - 127, f 26;
#X obj 419 475 outlet (number) direction of speed. slowing down (0) or speeding up (127), f 23;
#X obj 529 321 outlet (number) hits counted;
#X obj 54 619 outlet (bang) trigger through;
#X obj 54 60 inlet (trigger) trigger input;
#X obj 54 99 t b b b;
#X obj 619 59 cnv 15 283 29 empty empty dc.trigger.controls 20 13 0 20 #00deb1 #ffffff 0;
#X text 619 102 A set of most used time measurements to use as controls for parameters in the patch or sound as MIDI/OSC to external devices and software., f 41;
#X text 619 164 Included measurements are: speed direction \, counted hits in timeframe \, speed slide \, speed number \, time interval \, and bang through, f 41;
#X connect 1 0 5 0;
#X connect 2 0 9 0;
#X connect 3 0 6 0;
#X connect 4 0 15 0;
#X connect 5 0 11 0;
#X connect 5 1 3 0;
#X connect 5 2 2 0;
#X connect 6 0 7 0;
#X connect 6 1 10 0;
#X connect 7 0 12 0;
#X connect 8 0 13 0;
#X connect 9 0 14 0;
#X connect 10 0 8 0;
#X connect 17 0 18 0;
#X connect 18 0 16 0;
#X connect 18 1 1 0;
#X connect 18 2 4 0;
