#N canvas 827 239 527 327 12;
#X obj 59 59 inlet;
#X obj 43 133 timer;
#X obj 43 171 t f f;
#X obj 54 213 - 0;
#X obj 54 255 outlet;
#X text 259 103 Report the time in milliseconds elapsed between two triggers received at the input, f 31;
#X text 259 58 dc.timer;
#X text 101 58 1 (bang) trigger input;
#X text 101 254 (float) time output;
#X obj 59 98 t b;
#X connect 0 0 9 0;
#X connect 1 0 2 0;
#X connect 2 0 3 1;
#X connect 2 1 3 0;
#X connect 3 0 4 0;
#X connect 9 0 1 1;
