#N canvas 733 172 450 300 12;
#X declare -path else;
#X declare -path cyclone;
#X obj 59 200 dc.peak~;
#X obj 59 62 inlet~ (signal) audio input from adc~/meter~;
#X obj 100 100 inlet~ (trigger) trigger signal input from dc.trigger~;
#X obj 423 70 loadbang;
#X obj 423 100 args -;
#X msg 304 168 -history \$1;
#X obj 59 486 outlet (bang) trigger output when detected;
#X obj 100 451 outlet (number) calibrated velocity 1-127;
#X text 217 239 output in dB scaled to velocity \, needs calibration depending on volume of adc~, f 27;
#X obj 135 304 hsl 128 17 0 127 0 0 empty empty empty -2 -8 0 10 #e4e4e4 #4d4d4d #373737 0 1;
#X obj 286 304 inlet (toggle) enable calibration;
#X obj 100 349 dc.calibrate;
#X obj 100 240 scale -40 0 0.1 1;
#X obj 532 60 cnv 15 283 29 empty empty dc.trigger.velocity~ 20 13 0 20 #00deb1 #ffffff 0;
#X obj 100 420 clip 1 127;
#X obj 304 140 route -history -curve;
#X obj 359 343 t f;
#X text 532 99 Output the measured velocity from a trigger detection. The velocity is output as a value between 1 and 127 Depending on the incoming sound the scaling may need to be adjusted. This can be done by enabling the calibration in the third inlet. The velocity curve can also be set with the message -curve or attribute. The trigger is also passed to the left outlet to make sure things stay syncronized. This is because the amplitude measure takes a little time (~3ms) to gather some sound and measure the peak amplitude., f 41;
#X obj 532 304 declare -path else;
#X obj 532 334 declare -path cyclone;
#X obj 100 384 scale 0 1 40 127 0.75;
#X connect 0 0 6 0;
#X connect 0 1 12 0;
#X connect 1 0 0 0;
#X connect 1 1 15 0;
#X connect 2 0 0 1;
#X connect 3 0 4 0;
#X connect 4 0 15 0;
#X connect 5 0 0 0;
#X connect 9 0 11 0;
#X connect 10 0 11 1;
#X connect 11 0 20 0;
#X connect 12 0 11 0;
#X connect 14 0 7 0;
#X connect 15 0 5 0;
#X connect 15 1 16 0;
#X connect 16 0 20 5;
#X connect 20 0 14 0;
