#N canvas 733 172 450 300 12;
#X obj 59 200 dc.peak~;
#X obj 59 62 inlet~ (signal) audio input from adc~/meter~;
#X obj 100 100 inlet~ (trigger) trigger signal input from dc.trigger~;
#X obj 433 70 loadbang;
#X obj 433 100 args -;
#X obj 304 140 route -history;
#X msg 304 168 -history \$1;
#X obj 59 486 outlet (bang) trigger output when detected;
#X obj 100 451 outlet (number) calibrated velocity 1-127;
#X text 217 239 output in dB scaled to velocity \, needs calibration depending on volume of adc~, f 27;
#X obj 135 304 hsl 128 17 0 127 0 0 empty empty empty -2 -8 0 10 #e4e4e4 #4d4d4d #373737 0 1;
#X obj 100 420 clip 0 127;
#X obj 286 304 inlet (toggle) enable calibration;
#X obj 100 349 dc.calibrate;
#X obj 100 240 scale -40 0 0.1 1;
#X obj 100 384 scale 0 1 0 127 0.75;
#X connect 0 0 7 0;
#X connect 0 1 14 0;
#X connect 1 0 0 0;
#X connect 1 1 5 0;
#X connect 2 0 0 1;
#X connect 3 0 4 0;
#X connect 4 0 5 0;
#X connect 5 0 6 0;
#X connect 6 0 0 0;
#X connect 10 0 13 0;
#X connect 11 0 8 0;
#X connect 12 0 13 1;
#X connect 13 0 15 0;
#X connect 14 0 13 0;
#X connect 15 0 11 0;
