#N canvas 827 239 527 327 12;
#X text 259 103 Report the time in milliseconds elapsed between two triggers received at the input, f 31;
#X text 259 58 dc.timer;
#X obj 59 139 timer;
#X obj 59 104 t b b;
#X obj 59 177 outlet (number) time output;
#X obj 59 59 inlet (bang) trigger input;
#X connect 2 0 4 0;
#X connect 3 0 2 0;
#X connect 3 1 2 1;
#X connect 5 0 3 0;
