#N canvas 827 239 602 641 12;
#X declare -path cyclone;
#X declare -path else;
#X obj 198 99 inlet (number) set the tempo in BPM;
#X obj 56 650 declare -path cyclone;
#X obj 56 681 declare -path else;
#X obj 198 141 !/ 60000;
#X obj 198 171 / 480;
#X obj 259 281 int;
#X obj 210 281 + 1;
#X obj 242 421 / 1;
#X msg 272 220 0;
#X obj 471 320 !/ 1920;
#X obj 400 320 *;
#X obj 242 528 int;
#X obj 313 421 / 1;
#X obj 339 481 %;
#X obj 339 528 int;
#X obj 339 561 + 1;
#X obj 242 561 + 1;
#X obj 391 481 %;
#X obj 433 528 /;
#X obj 351 254 int;
#X obj 397 254 int;
#X obj 56 141 route reset timesig;
#X obj 99 459 send;
#X obj 521 59 loadbang;
#X obj 521 122 args -;
#X obj 242 681 outlet (number) bars;
#X obj 339 639 outlet (number) beats;
#X obj 433 595 outlet (number) bar progress 0-1;
#X obj 56 59 inlet (toggle/reset/timesig) start/stop and set timesignature;
#X obj 631 231 s \$0-bpm;
#X obj 270 141 r \$0-bpm;
#X obj 521 231 s \$0-name;
#X obj 114 330 r \$0-name;
#X obj 521 85 t b b;
#X obj 114 358 prepend symbol;
#X obj 521 193 route -name -timesig;
#X msg 582 122 -name dc-transport;
#X msg 582 150 -timesig 4 4;
#X obj 759 59 cnv 15 283 29 empty empty dc.step 20 13 0 20 #00deb1 #ffffff 0;
#X text 758 98 Create a global transport to set the BPM and Time Signature of the patch. Other objects can interface with the global transport \, like the dc.sequencer. These objects are synchronised with the transport and start/stop when the transported is started., f 41;
#X text 758 203 Arguments:;
#X text 758 227 Tempo in BPM (beats per minute) (default = 100);
#X text 758 253 Attributes:;
#X text 758 275 -timesig : Time Signature (optional \, default = 4 4);
#X text 758 300 -name : Name of the transport (optional);
#X obj 151 220 metro 1.25;
#X obj 351 220 unpack f f;
#X obj 259 320 t f f f f;
#X obj 135 421 pack f f;
#X obj 351 150 inlet (list) time signature (default = 4 4), f 22;
#X obj 242 591 change;
#X obj 339 591 change;
#X connect 0 0 3 0;
#X connect 3 0 4 0;
#X connect 4 0 45 1;
#X connect 5 0 47 0;
#X connect 6 0 5 1;
#X connect 7 0 11 0;
#X connect 8 0 5 1;
#X connect 9 0 10 1;
#X connect 9 0 12 1;
#X connect 10 0 7 1;
#X connect 10 0 17 1;
#X connect 10 0 18 1;
#X connect 10 0 48 1;
#X connect 11 0 16 0;
#X connect 12 0 13 0;
#X connect 13 0 14 0;
#X connect 14 0 15 0;
#X connect 15 0 51 0;
#X connect 16 0 50 0;
#X connect 17 0 18 0;
#X connect 18 0 27 0;
#X connect 19 0 10 0;
#X connect 19 0 13 1;
#X connect 20 0 9 0;
#X connect 21 0 8 0;
#X connect 21 1 46 0;
#X connect 21 2 45 0;
#X connect 23 0 33 0;
#X connect 24 0 35 0;
#X connect 28 0 21 0;
#X connect 30 0 3 0;
#X connect 32 0 34 0;
#X connect 33 0 24 0;
#X connect 33 1 36 0;
#X connect 33 1 37 0;
#X connect 34 0 22 1;
#X connect 35 0 31 0;
#X connect 35 1 46 0;
#X connect 35 2 29 0;
#X connect 36 0 35 0;
#X connect 37 0 35 0;
#X connect 45 0 5 0;
#X connect 46 0 19 0;
#X connect 46 1 20 0;
#X connect 47 0 6 0;
#X connect 47 0 48 0;
#X connect 47 1 7 0;
#X connect 47 2 12 0;
#X connect 47 3 17 0;
#X connect 48 0 22 0;
#X connect 49 0 46 0;
#X connect 50 0 25 0;
#X connect 51 0 26 0;
