#N canvas 827 239 527 327 12;
#X obj 59 59 inlet;
#X obj 59 177 outlet;
#X text 259 103 Report the time in milliseconds elapsed between two triggers received at the input, f 31;
#X text 259 58 dc.timer;
#X text 101 58 1 (bang) trigger input;
#X text 106 176 (float) time output;
#X obj 59 139 timer;
#X obj 59 104 t b b;
#X connect 0 0 7 0;
#X connect 6 0 1 0;
#X connect 7 0 6 0;
#X connect 7 1 6 1;
