#N canvas 827 239 602 641 12;
#X declare -path cyclone;
#X declare -path else;
#X obj 71 341 phasor~;
#X obj 59 141 sel 1;
#X obj 179 224 i 120;
#X obj 71 462 delta~;
#X obj 71 523 edge~;
#X obj 257 141 loadbang;
#X obj 59 60 inlet (toggle) start/stop the transport;
#X obj 179 99 inlet (number) set the tempo in BPM;
#X obj 257 177 args;
#X obj 257 211 unjoin 2;
#X obj 137 396 send~ \$2-transport;
#X obj 71 561 outlet (trigger) every quarter note;
#X obj 71 396 *~ 4;
#X obj 179 260 / 240;
#X msg 106 300 0.999;
#X obj 93 179 t b b;
#X obj 167 300 gate;
#X obj 439 59 declare -path cyclone;
#X obj 439 90 declare -path else;
#X obj 59 99 t f f;
#X obj 71 430 modulo~ 1;
#X obj 71 493 lessthan~ -0.95;
#X connect 0 0 10 0;
#X connect 0 0 12 0;
#X connect 1 0 15 0;
#X connect 1 1 0 0;
#X connect 2 0 13 0;
#X connect 3 0 21 0;
#X connect 4 0 11 0;
#X connect 5 0 8 0;
#X connect 6 0 19 0;
#X connect 7 0 2 0;
#X connect 8 0 9 0;
#X connect 9 0 2 0;
#X connect 12 0 20 0;
#X connect 13 0 16 1;
#X connect 14 0 0 1;
#X connect 15 0 2 0;
#X connect 15 1 14 0;
#X connect 16 0 0 0;
#X connect 19 0 1 0;
#X connect 19 1 16 0;
#X connect 20 0 3 0;
#X connect 21 0 4 0;
