#N canvas 827 239 527 327 12;
#X obj 59 59 inlet;
#X obj 43 104 timer;
#X obj 43 142 t f f;
#X obj 54 184 - 0;
#X obj 54 226 outlet;
#X text 259 103 Report the time in milliseconds elapsed between two triggers received at the input, f 31;
#X text 101 225 (float) time output;
#X text 101 58 (bang) trigger input;
#X text 259 58 dc.timer;
#X connect 0 0 1 1;
#X connect 1 0 2 0;
#X connect 2 0 3 1;
#X connect 2 1 3 0;
#X connect 3 0 4 0;
