#N canvas 0 0 450 250 12;
#X obj 59 253 scope~ 133 101 64 3 128 0 36 0 0 0 0 77 77 77 228 228 228 183 183 183 0 empty;
#X obj 59 177 receive~;
#X obj 59 98 unjoin 3;
#X obj 59 140 prepend set;
#X obj 223 180 receive~;
#X obj 223 143 prepend set;
#X obj 401 180 receive~;
#X obj 401 143 prepend set;
#N canvas 0 0 450 250 (subpatch) 0;
#X array \$0-thresh-on 2 float 2;
#X coords 0 36 2 0 134 102 1;
#X restore 59 253 graph;
#X obj 223 335 tabwrite \$0-thresh-on;
#X msg 302 295 0;
#X obj 223 216 cyclone/snapshot~ 33;
#X msg 343 295 1;
#X obj 223 247 t f b f b;
#X obj 401 216 cyclone/snapshot~ 33;
#X msg 480 295 0;
#X msg 521 295 1;
#X obj 401 247 t f b f b;
#X obj 401 335 tabwrite \$0-thresh-off;
#N canvas 0 0 450 250 (subpatch) 0;
#X array \$0-thresh-off 2 float 2;
#X coords 0 36 2 0 134 102 1;
#X restore 59 253 graph;
#X obj 59 59 inlet (messages) connect to dc.trigger display outlet;
#X obj 599 58 cnv 15 283 29 empty empty dc.trigger.display 20 13 0 20 #00deb1 #ffffff 0;
#X text 599 101 A little display that can help to set the sensitivity and range (on/off thresholds) visually with some scopes., f 41;
#X connect 1 0 0 0;
#X connect 2 0 3 0;
#X connect 2 1 5 0;
#X connect 2 2 7 0;
#X connect 3 0 1 0;
#X connect 4 0 11 0;
#X connect 5 0 4 0;
#X connect 6 0 14 0;
#X connect 7 0 6 0;
#X connect 10 0 9 1;
#X connect 11 0 13 0;
#X connect 12 0 9 1;
#X connect 13 0 9 0;
#X connect 13 1 10 0;
#X connect 13 2 9 0;
#X connect 13 3 12 0;
#X connect 14 0 17 0;
#X connect 15 0 18 1;
#X connect 16 0 18 1;
#X connect 17 0 18 0;
#X connect 17 1 15 0;
#X connect 17 2 18 0;
#X connect 17 3 16 0;
#X connect 20 0 2 0;
#X coords 0 1 100 -1 135 103 1 58 252;
