#N canvas 827 239 527 327 12;
#X declare -path cyclone;
#X declare -path else;
#X obj 59 96 dc.timer;
#X obj 59 135 split 300 1500;
#X msg 128 166 clear;
#X obj 59 253 !/ 60000;
#X obj 340 59 cnv 15 283 29 empty empty dc.tempo 20 13 0 20 #00deb1 #ffffff 0;
#X text 340 96 A simple taptempo feature. Input a trigger. If the triggers are received within the range of 40 to 200 BPM the estimated tempo is output. This is done over a rolling average of 8 beats. The rolling average is reset when the first incoming value is too high or too low \, allowing you to wait and then retrigger the tempo. The taptempo expects a tempo in quarternotes., f 41;
#X obj 59 59 inlet (trigger) tap the tempo;
#X obj 59 299 outlet (number) estimated tempo in BPM;
#X obj 341 273 declare -path cyclone;
#X obj 210 135 args;
#X msg 210 166 \$1;
#X obj 210 103 loadbang;
#X obj 340 299 declare -path else;
#X obj 59 215 dc.average 4;
#X connect 0 0 1 0;
#X connect 1 0 13 0;
#X connect 1 1 2 0;
#X connect 2 0 13 0;
#X connect 3 0 7 0;
#X connect 6 0 0 0;
#X connect 9 0 10 0;
#X connect 10 0 13 1;
#X connect 11 0 9 0;
#X connect 13 0 3 0;
