#N canvas 827 239 527 327 12;
#X obj 59 59 inlet;
#X obj 59 162 gate 1 1;
#X msg 122 269 1;
#X obj 59 320 outlet;
#X obj 59 118 t 0 a;
#X obj 59 201 t a b;
#X obj 119 240 delay 250;
#X obj 163 162 args;
#X obj 163 126 loadbang;
#X text 101 58 1 (trigger/number) incoming value to limit in speed;
#X text 108 319 (trigger/number) speed-limited output;
#X obj 211 162 inlet;
#X text 422 304 written by Timo Hoogland \, (c) 2024 \, www.timohoogland.com \, GNU GPL v3 License, f 40;
#X obj 422 59 cnv 15 283 29 empty empty dc.wait 20 13 0 20 #00deb1 #ffffff 0;
#X text 422 95 Limit the speed of incoming triggers/numbers \, holding them of for a specific amount of time. After the first input is recieved \, a gate closes temporarily. Until the gate is opened no input will be passed through. The gate opens after the specified waiting time in milliseconds., f 41;
#X text 250 161 2 (number) set wait time in milliseconds, f 18;
#X connect 0 0 4 0;
#X connect 1 0 5 0;
#X connect 2 0 4 0 48.................K....T5++++B....k9+++2z+++ew++++M8+++W7++++U++++;
#X connect 4 0 1 0;
#X connect 4 1 1 1;
#X connect 5 0 3 0;
#X connect 5 1 6 0;
#X connect 6 0 2 0;
#X connect 7 0 6 1;
#X connect 8 0 7 0;
#X connect 11 0 6 1;
