#N canvas 827 239 527 327 12;
#X declare -path else;
#X obj 59 166 gate 1 1;
#X msg 122 273 1;
#X obj 119 244 delay 250;
#X obj 163 166 args;
#X obj 163 130 loadbang;
#X text 422 304 written by Timo Hoogland \, (c) 2024 \, www.timohoogland.com \, GNU GPL v3 License, f 40;
#X obj 422 59 cnv 15 283 29 empty empty dc.wait 20 13 0 20 #00deb1 #ffffff 0;
#X text 422 95 Limit the speed of incoming triggers/numbers \, holding them of for a specific amount of time. After the first input is recieved \, a gate closes temporarily. Until the gate is opened no input will be passed through. The gate opens after the specified waiting time in milliseconds., f 41;
#X obj 59 59 inlet (trigger/number) incoming value to limit in speed;
#X obj 211 166 inlet (number) set wait time in milliseconds, f 21;
#X obj 71 319 outlet (trigger/number) speed-limited output;
#X obj 422 218 declare -path else;
#X obj 59 96 t b a;
#X msg 61 130 0;
#X obj 59 205 t b a;
#X connect 0 0 14 0;
#X connect 1 0 0 0 48.................G....b5++++A....m9+++q2+++ew++++58+++W7++++f++++;
#X connect 2 0 1 0;
#X connect 3 0 2 1;
#X connect 4 0 3 0;
#X connect 8 0 12 0;
#X connect 9 0 2 1;
#X connect 12 0 13 0;
#X connect 12 1 0 1;
#X connect 13 0 0 0;
#X connect 14 0 2 0;
#X connect 14 1 10 0;
