#N canvas 827 239 527 327 12;
#X declare -path ~/Sync/work/projects/drumcode/pd;
#X declare -path cyclone;
#X obj 39 399 dc.timer, f 8;
#X obj 39 259 declare -path ~/Sync/work/projects/drumcode/pd;
#X obj 39 299 declare -path cyclone;
#X obj 39 39 cnv 15 401 41 empty empty ./drum.code 20 20 0 24 #00cb9e #ffffff 0;
#X text 39 98 written by Timo Hoogland \, 2024 \, www.timohoogland.com;
#X text 39 138 funded by Creative Industries Fund NL;
#X text 39 118 GNU GPL v.3 License;
#X text 39 178 A library of tools for hybrid drums (or other instruments) \, with onset detection \, timbre analysis \, basic algorithmic composition techniques \, midi and osc trigger outputs \, and more;
#X obj 39 359 bng 25 250 50 0 empty empty empty 17 7 0 10 #e4e4e4 #4d4d4d #373737;
#X floatatom 39 439 5 0 0 0 - - - 12;
#X obj 159 399 dc.inrange 50 500;
#X floatatom 159 359 5 0 0 0 - - - 12;
#X floatatom 159 439 5 0 0 0 - - - 12;
#X connect 0 0 9 0;
#X connect 8 0 0 0;
#X connect 10 0 12 0;
#X connect 11 0 10 0;
