#N canvas 827 239 527 327 12;
#X declare -path drumcode/pd;
#X obj 479 39 cnv 15 421 67 empty empty written\ by\ Timo\ Hoogland\,\ 2024\,\ www.timohoogland.com 7 12 0 12 #efefef #000000 0;
#X obj 38 39 cnv 15 421 41 empty empty ./drum.code\ -\ Object\ List 20 20 0 24 #00cb9e #ffffff 0;
#X text 38 88 A library of tools for hybrid drums (or other instruments) \, with onset detection \, timbre analysis \, basic algorithmic composition techniques \, midi and osc trigger outputs \, and more;
#X text 479 76 - Funded by Creative Industries Fund NL;
#X text 479 55 - License: GNU GPL-3.0;
#X obj 38 160 declare -path drumcode/pd;
#X obj 38 321 dc.trigger~;
#X obj 187 321 dc.trigger.timecontrols;
#X obj 188 350 dc.timer;
#X obj 188 379 dc.count;
#X obj 188 411 dc.speed;
#X obj 187 441 dc.tempo;
#X obj 187 471 dc.direction;
#X obj 351 321 dc.calibrate;
#X obj 351 350 dc.wait;
#X obj 351 379 dc.slide;
#X obj 351 411 dc.average;
#X obj 351 441 dc.gate;
#X obj 351 471 dc.inrange;
#X obj 468 321 dc.chance;
#X obj 468 350 dc.every;
#X obj 468 379 dc.random;
#X obj 468 411 dc.step;
#X obj 468 471 dc.learn;
#X obj 587 320 dc.note.scale;
#X obj 587 349 dc.note.out;
#X obj 587 379 dc.osc.send;
#X obj 587 410 dc.osc.message;
#X obj 709 320 dc.synth~;
#X obj 709 379 dc.sample~;
#X obj 709 410 dc.sampler~;
#X obj 831 349 dc.fx.delay~;
#X obj 831 408 dc.fx.distort~;
#X obj 831 439 dc.fx.filter~;
#X obj 831 470 dc.fx.reverb~;
#X text 38 276 Audio Analysis, f 8;
#X text 187 261 Tempo \, Timing \, Density, f 8;
#X text 351 291 Utilities;
#X text 468 261 Generators \, Algorithms \, Sequences, f 13;
#X text 587 275 MIDI \, OSC output, f 11;
#X text 709 291 Sound, f 8;
#X text 831 276 Sound Effects, f 8;
#X obj 301 205 pdcontrol;
#X msg 301 180 browse https://github.com/tmhglnd/drumcode/blob/main/docs/reference.md, f 66;
#X text 302 159 please see the reference for detailed explanations or object-overview for small examples, f 77;
#X obj 709 349 dc.noise~;
#X obj 831 378 dc.fx.degrade~;
#X obj 468 502 dc.transport;
#X obj 468 534 dc.metronome;
#X obj 351 534 dc.clicktrack~;
#X obj 351 502 dc.hold;
#X obj 351 624 dc.trigger.display;
#X text 351 600 [dc.trigger.display];
#X obj 38 350 dc.trigger.velocity~;
#X obj 351 567 dc.peak~;
#X obj 831 320 dc.fx.drywet~;
#X obj 709 492 dc.gain~;
#X text 709 470 [dc.gain~];
#X obj 709 441 dc.fade~;
#X obj 468 441 dc.choose;
#X obj 187 502 dc.rhythm.analyse;
#X obj 187 533 dc.rhythm.match;
#X connect 43 0 42 0;
