#N canvas 827 239 527 327 12;
#X declare -path ~/Sync/work/projects/drumcode/pd;
#X declare -path cyclone;
#X declare -path else;
#X obj 39 96 cnv 15 421 67 empty empty written\ by\ Timo\ Hoogland\,\ 2024\,\ www.timohoogland.com 7 12 0 12 #efefef #000000 0;
#X obj 39 460 dc.timer;
#X obj 39 341 declare -path ~/Sync/work/projects/drumcode/pd;
#X obj 39 261 declare -path cyclone;
#X obj 39 39 cnv 15 421 41 empty empty ./drum.code 20 20 0 24 #00cb9e #ffffff 0;
#X text 39 178 A library of tools for hybrid drums (or other instruments) \, with onset detection \, timbre analysis \, basic algorithmic composition techniques \, midi and osc trigger outputs \, and more;
#X obj 39 424 bng 25 250 50 0 empty empty empty 17 7 0 10 #e4e4e4 #4d4d4d #373737;
#X obj 560 460 dc.inrange 50 100, f 16;
#X obj 563 424 hsl 128 17 0 127 0 0 empty empty empty -2 -8 0 10 #e4e4e4 #4d4d4d #373737 0 1;
#X obj 563 500 hsl 128 17 0 127 0 0 empty empty empty -2 -8 0 10 #e4e4e4 #4d4d4d #373737 0 1;
#X text 39 138 - Funded by Creative Industries Fund NL;
#X text 39 118 - License: GNU GPL-3.0;
#X obj 174 424 bng 25 250 50 0 empty empty empty 17 7 0 10 #e4e4e4 #4d4d4d #373737;
#X floatatom 174 500 5 0 0 0 - - - 12;
#X obj 174 460 dc.count 250;
#X floatatom 39 500 5 0 0 0 - - - 12;
#X text 39 240 Dependencies:;
#X text 39 320 To use objects in your patch:;
#X obj 325 499 hsl 128 17 0 127 0 0 empty empty empty -2 -8 0 10 #e4e4e4 #4d4d4d #373737 0 1;
#X obj 325 425 hsl 128 17 0 127 0 0 empty empty empty -2 -8 0 10 #e4e4e4 #4d4d4d #373737 0 1;
#X obj 375 527 hsl 128 17 0 127 0 0 empty empty empty -2 -8 0 10 #e4e4e4 #4d4d4d #373737 0 1;
#X obj 322 460 dc.gate 50;
#X text 39 381 time triggers, f 8;
#X text 174 382 count triggers within a timeframe, f 16;
#X text 326 382 output left if value passes threshold \, else output right, f 25;
#X text 560 382 only output if value is within the specified range, f 23;
#X obj 200 261 declare -path else;
#X floatatom 39 639 5 0 0 0 - - - 12;
#X obj 39 601 dc.average 10;
#X text 57 562 get the average over 10 values, f 14;
#X connect 1 0 15 0;
#X connect 6 0 1 0;
#X connect 7 0 9 0;
#X connect 8 0 7 0;
#X connect 12 0 14 0;
#X connect 14 0 13 0;
#X connect 15 0 28 0;
#X connect 19 0 21 0;
#X connect 21 0 18 0;
#X connect 21 1 20 0;
#X connect 28 0 27 0;
