#N canvas 827 239 527 327 12;
#X declare -path ~/Sync/work/projects/drumcode/pd;
#X declare -path cyclone;
#X declare -path else;
#X declare -path FluidCorpusManipulation;
#X obj 502 60 declare -path ~/Sync/work/projects/drumcode/pd;
#X obj 502 88 declare -path cyclone;
#X obj 502 116 declare -path else;
#X obj 502 142 declare -path FluidCorpusManipulation;
#X obj 39 96 cnv 15 421 67 empty empty written\ by\ Timo\ Hoogland\,\ 2024\,\ www.timohoogland.com 7 12 0 12 #efefef #000000 0;
#X obj 39 39 cnv 15 421 41 empty empty ./drum.code\ -\ project\ template 20 20 0 24 #00cb9e #ffffff 0;
#X text 39 138 - Funded by Creative Industries Fund NL;
#X text 39 118 - License: GNU GPL-3.0;
#X text 502 38 necessary dependencies (don't delete!);
#X obj 39 298 adc~ 1;
#X text 98 297 microphone input from channel 1;
#X obj 39 352 meter~;
#X obj 479 298 dsponoff~;
#X text 352 297 turn audio on/off;
#X text 139 351 dc.trigger~ here;
#X text 139 389 dc.triggerframe~ here;
#X text 364 431 dc.tempodescriptors here;
#X obj 364 510 dc.speed;
#X obj 364 470 dc.timer;
#X obj 450 510 dc.count 250;
#X text 139 431 dc.timbredescriptors here;
#X text 137 468 pitch \, centroid \, timbre \, noisiness;
#X text 39 178 This project template has everyone you need to get started writing your hybrid drum patches for algorithmic live electronic music.;
#X obj 39 230 cnv 15 419 27 empty empty BEFORE\ YOU\ START:\ SAVE\ THIS\ TEMPLATE\ AS\ A\ NEW\ PATCH! 18 13 0 14 #969696 #000000 0;
#X connect 9 0 11 0;
