#N canvas 827 239 527 327 12;
#X declare -path cyclone;
#X declare -path else;
#X declare -path FluidCorpusManipulation;
#X declare -path ~/Sync/work/projects/drumcode;
#X obj 39 96 cnv 15 421 67 empty empty written\ by\ Timo\ Hoogland\,\ 2024\,\ www.timohoogland.com 7 12 0 12 #efefef #000000 0;
#X obj 39 460 dc.timer;
#X obj 39 320 declare -path cyclone;
#X obj 39 39 cnv 15 421 41 empty empty ./drum.code 20 20 0 24 #00cb9e #ffffff 0;
#X text 39 176 A library of tools for hybrid drums (or other instruments) \, with onset detection \, timbre analysis \, basic algorithmic composition techniques \, midi and osc trigger outputs \, and more;
#X obj 39 424 bng 25 250 50 0 empty empty empty 17 7 0 10 #e4e4e4 #4d4d4d #373737;
#X obj 560 460 dc.inrange 50 100, f 16;
#X obj 563 425 hsl 128 17 0 127 0 0 empty empty empty -2 -8 0 10 #e4e4e4 #4d4d4d #373737 0 1;
#X obj 563 501 hsl 128 17 0 127 0 0 empty empty empty -2 -8 0 10 #e4e4e4 #4d4d4d #373737 0 1;
#X text 39 136 - Funded by Creative Industries Fund NL;
#X text 39 116 - License: GNU GPL-3.0;
#X obj 178 424 bng 25 250 50 0 empty empty empty 17 7 0 10 #e4e4e4 #4d4d4d #373737;
#X floatatom 178 500 5 0 0 0 - - - 12;
#X obj 178 460 dc.count 250;
#X floatatom 39 500 5 0 0 0 - - - 12;
#X obj 338 498 hsl 128 17 0 127 0 0 empty empty empty -2 -8 0 10 #e4e4e4 #4d4d4d #373737 0 1;
#X obj 338 424 hsl 128 17 0 127 0 0 empty empty empty -2 -8 0 10 #e4e4e4 #4d4d4d #373737 0 1;
#X obj 338 528 hsl 128 17 0 127 0 0 empty empty empty -2 -8 0 10 #e4e4e4 #4d4d4d #373737 0 1;
#X obj 335 460 dc.gate 50;
#X text 178 380 count triggers within a timeframe, f 16;
#X text 339 380 output left if value passes threshold \, else output right, f 25;
#X text 560 380 only output if value is within the specified range, f 23;
#X obj 200 320 declare -path else;
#X floatatom 39 639 5 0 0 0 - - - 12;
#X obj 39 601 dc.average 10;
#X text 57 560 get the average over 10 values, f 14;
#X text 195 560 get the speed value from 0-1, f 14;
#X obj 181 639 hsl 128 17 0.01 1 0 0 empty empty empty -2 -8 0 10 #e4e4e4 #4d4d4d #373737 0 1;
#X text 39 379 time from triggers, f 10;
#X obj 178 601 dc.speed;
#X obj 335 320 declare -path FluidCorpusManipulation;
#X text 39 297 Include these in your patch to add the necessary dependencies (copy-paste):, f 68;
#X text 39 247 Getting started: to use this library in your patches include:;
#X obj 181 780 hsl 128 17 0 1 0 0 empty empty empty -2 -8 0 10 #e4e4e4 #000000 #000000 0 1;
#X text 194 702 slide back from the incoming value slowly to 0, f 23;
#X obj 178 743 dc.slide;
#X obj 39 270 declare -path ~/Sync/work/projects/drumcode;
#X msg 391 679 /trigger/speed \$1;
#X text 410 728 send Open Sound Control (OSC) messages over the network or locally, f 24;
#X text 410 657 format an OSC message like so:;
#X text 353 560 use this object to send osc "wireless" to the dc.osc.send object, f 33;
#X obj 335 601 dc.osc.message /slider/low;
#X obj 391 780 dc.osc.send localhost 4880;
#X connect 1 0 14 0;
#X connect 5 0 1 0;
#X connect 6 0 8 0;
#X connect 7 0 6 0;
#X connect 11 0 13 0;
#X connect 13 0 12 0;
#X connect 14 0 24 0;
#X connect 14 0 29 0;
#X connect 16 0 18 0;
#X connect 17 0 41 0;
#X connect 18 0 15 0;
#X connect 18 1 17 0;
#X connect 24 0 23 0;
#X connect 27 0 35 0;
#X connect 27 0 37 0;
#X connect 29 0 27 0;
#X connect 35 0 33 0;
#X connect 37 0 42 0;
