#N canvas 827 239 527 327 12;
#X declare -path ~/Sync/work/projects/drumcode/pd;
#X declare -path cyclone;
#X obj 39 419 dc.timer;
#X obj 39 319 declare -path ~/Sync/work/projects/drumcode/pd;
#X obj 39 259 declare -path cyclone;
#X obj 39 39 cnv 15 421 41 empty empty ./drum.code 20 20 0 24 #00cb9e #ffffff 0;
#X text 39 98 written by Timo Hoogland \, 2024 \, www.timohoogland.com;
#X text 39 178 A library of tools for hybrid drums (or other instruments) \, with onset detection \, timbre analysis \, basic algorithmic composition techniques \, midi and osc trigger outputs \, and more;
#X obj 39 379 bng 25 250 50 0 empty empty empty 17 7 0 10 #e4e4e4 #4d4d4d #373737;
#X obj 479 419 dc.inrange 50 100, f 16;
#X obj 482 379 hsl 128 17 0 127 0 0 empty empty empty -2 -8 0 10 #e4e4e4 #4d4d4d #373737 0 1;
#X obj 482 459 hsl 128 17 0 127 0 0 empty empty empty -2 -8 0 10 #e4e4e4 #4d4d4d #373737 0 1;
#X text 39 138 - Funded by Creative Industries Fund NL;
#X text 39 118 - License: GNU GPL-3.0;
#X obj 139 379 bng 25 250 50 0 empty empty empty 17 7 0 10 #e4e4e4 #4d4d4d #373737;
#X floatatom 139 459 5 0 0 0 - - - 12;
#X obj 139 419 dc.count 250;
#X floatatom 39 459 5 0 0 0 - - - 12;
#X text 39 238 Dependencies:;
#X text 39 298 To use objects in your patch:;
#X obj 272 458 hsl 128 17 0 127 0 0 empty empty empty -2 -8 0 10 #e4e4e4 #4d4d4d #373737 0 1;
#X obj 272 380 hsl 128 17 0 127 0 0 empty empty empty -2 -8 0 10 #e4e4e4 #4d4d4d #373737 0 1;
#X obj 322 486 hsl 128 17 0 127 0 0 empty empty empty -2 -8 0 10 #e4e4e4 #4d4d4d #373737 0 1;
#X obj 269 419 dc.gate 50;
#X connect 0 0 15 0;
#X connect 6 0 0 0;
#X connect 7 0 9 0;
#X connect 8 0 7 0;
#X connect 12 0 14 0;
#X connect 14 0 13 0;
#X connect 19 0 21 0;
#X connect 21 0 18 0;
#X connect 21 1 20 0;
