#N canvas 827 239 527 327 12;
#X declare -path cyclone;
#X declare -path else;
#X declare -path FluidCorpusManipulation;
#X declare -path ~/Sync/work/projects/drumcode/pd;
#X obj 39 96 cnv 15 421 67 empty empty written\ by\ Timo\ Hoogland\,\ 2024\,\ www.timohoogland.com 7 12 0 12 #efefef #000000 0;
#X obj 39 836 dc.timer;
#X obj 39 320 declare -path cyclone;
#X obj 39 39 cnv 15 421 41 empty empty ./drum.code 20 20 0 24 #00cb9e #ffffff 0;
#X text 39 175 A library of tools for hybrid drums (or other instruments) \, with onset detection \, timbre analysis \, basic algorithmic composition techniques \, midi and osc trigger outputs \, and more;
#X obj 39 800 bng 25 250 50 0 empty empty empty 17 7 0 10 #e4e4e4 #4d4d4d #373737;
#X obj 682 836 dc.inrange 50 100, f 16;
#X obj 685 801 hsl 128 17 0 127 0 0 empty empty empty -2 -8 0 10 #e4e4e4 #4d4d4d #373737 0 1;
#X obj 685 877 hsl 128 17 0 127 0 0 empty empty empty -2 -8 0 10 #e4e4e4 #4d4d4d #373737 0 1;
#X text 39 135 - Funded by Creative Industries Fund NL;
#X text 39 115 - License: GNU GPL-3.0;
#X obj 217 800 bng 25 250 50 0 empty empty empty 17 7 0 10 #e4e4e4 #4d4d4d #373737;
#X floatatom 217 876 5 0 0 0 - - - 12;
#X obj 217 836 dc.count 250;
#X floatatom 39 876 5 0 0 0 - - - 12;
#X obj 444 875 hsl 128 17 0 127 0 0 empty empty empty -2 -8 0 10 #e4e4e4 #4d4d4d #373737 0 1;
#X obj 444 801 hsl 128 17 0 127 0 0 empty empty empty -2 -8 0 10 #e4e4e4 #4d4d4d #373737 0 1;
#X obj 444 901 hsl 128 17 0 127 0 0 empty empty empty -2 -8 0 10 #e4e4e4 #4d4d4d #373737 0 1;
#X obj 441 836 dc.gate 50;
#X text 217 755 count triggers within a timeframe, f 16;
#X text 445 755 output left if value passes threshold \, else output right, f 25;
#X text 682 755 only output if value is within the specified range, f 23;
#X obj 200 320 declare -path else;
#X floatatom 39 1015 5 0 0 0 - - - 12;
#X obj 39 977 dc.average 10;
#X text 57 935 get the average over 10 values, f 14;
#X text 234 935 get the speed value from 0-1, f 14;
#X obj 220 1015 hsl 128 17 0.01 1 0 0 empty empty empty -2 -8 0 10 #e4e4e4 #4d4d4d #373737 0 1;
#X text 39 754 time from triggers, f 10;
#X obj 217 977 dc.speed;
#X text 39 296 Include these in your patch to add the necessary dependencies (copy-paste):, f 68;
#X text 39 246 Getting started: to use this library in your patches include:;
#X obj 220 1213 hsl 128 17 0 1 0 0 empty empty empty -2 -8 0 10 #e4e4e4 #000000 #000000 0 1;
#X text 234 1133 slide back from the incoming value slowly to 0, f 23;
#X obj 217 1179 dc.slide;
#X msg 441 1098 /trigger/speed \$1;
#X text 460 1126 send Open Sound Control (OSC) messages over the network or locally, f 24;
#X text 441 1062 format an OSC message like so:;
#X text 460 927 use this object to send osc "wireless" to the dc.osc.send object, f 24;
#X obj 441 977 dc.osc.message /slider/low;
#X obj 441 1179 dc.osc.send localhost 4880;
#X obj 200 599 dc.trigger~;
#X obj 335 320 declare -path FluidCorpusManipulation;
#X obj 39 1142 bng 25 250 50 0 empty empty empty 17 7 0 10 #e4e4e4 #000000 #000000;
#X obj 39 1213 bng 25 250 50 0 empty empty empty 17 7 0 10 #e4e4e4 #000000 #000000;
#X obj 39 1179 dc.wait 2000;
#X obj 200 377 adc~ 1;
#X obj 200 406 meter~;
#X obj 39 270 declare -path ~/Sync/work/projects/drumcode/pd;
#X obj 200 633 bng 25 250 50 0 empty empty empty 17 7 0 10 #e4e4e4 #4d4d4d #373737;
#X text 288 598 detect triggers!;
#X obj 272 548 hsl 128 17 0 1 0 1 empty empty empty -2 -8 0 10 #e4e4e4 #4d4d4d #373737 47 1;
#X text 39 698 Now you can start to use this trigger to control other instruments/sounds/parameters/lights and more. All based on different time/timbre descriptors:, f 66;
#X text 229 634 TRIGGER!;
#X text 269 464 <- [meter~] - useful to see the level of the incoming sound;
#X text 39 412 first turn the audio on, f 19;
#X text 269 376 now start by using a microphone input to detect triggers in the sound, f 23;
#X text 39 1097 reduce speed limit of incoming values, f 17;
#X text 269 523 adjust trigger the sensitivity (0 -> 1), f 31;
#X msg 39 1305 60;
#X text 75 1275 play a MIDI note from a number (pitch) \, with velocity and duration, f 24;
#X obj 682 977 dc.taptempo;
#X obj 682 942 bng 25 250 50 0 empty empty empty 17 7 0 10 #e4e4e4 #4d4d4d #000000;
#X floatatom 682 1013 5 0 0 0 - - - 12;
#X text 727 941 get the estimated BPM;
#X text 727 1012 outputs after 2nd click;
#X text 345 269 (replace with path to drumcode on your computer);
#X obj 682 1179 dc.random note;
#X obj 682 1142 bng 25 250 50 0 empty empty empty 17 7 0 10 #e4e4e4 #4d4d4d #000000;
#X obj 682 1260 dc.note.scale minor eb;
#X obj 39 1340 dc.note.out 120 250;
#X obj 682 1340 dc.note.out 120 300;
#X obj 710 1299 nbx 4 18 -1e+37 1e+37 0 0 empty empty empty 0 -8 0 10 #e4e4e4 #000000 #000000 0 256;
#X obj 710 1213 nbx 4 18 -1e+37 1e+37 0 0 empty empty empty 0 -8 0 10 #e4e4e4 #000000 #000000 0 256;
#X text 714 1133 generate a random note between MIDI 36-72, f 21;
#X text 779 1218 map the note to a minor eb scale, f 17;
#X obj 39 377 dc.audio.onoff~;
#X text 39 435 adjust sound settings for your soundcard, f 18;
#X connect 1 0 14 0;
#X connect 5 0 1 0;
#X connect 6 0 8 0;
#X connect 7 0 6 0;
#X connect 11 0 13 0;
#X connect 13 0 12 0;
#X connect 14 0 24 0;
#X connect 14 0 29 0;
#X connect 16 0 18 0;
#X connect 17 0 39 0;
#X connect 18 0 15 0;
#X connect 18 1 17 0;
#X connect 24 0 23 0;
#X connect 27 0 34 0;
#X connect 27 0 35 0;
#X connect 29 0 27 0;
#X connect 34 0 32 0;
#X connect 35 0 40 0;
#X connect 41 0 49 0;
#X connect 43 0 45 0;
#X connect 44 0 59 0;
#X connect 45 0 44 0;
#X connect 46 0 47 0;
#X connect 47 0 41 0;
#X connect 51 0 41 1;
#X connect 59 0 70 0;
#X connect 61 0 63 0;
#X connect 62 0 61 0;
#X connect 67 0 69 0;
#X connect 67 0 73 0;
#X connect 68 0 67 0;
#X connect 69 0 71 0;
#X connect 69 0 72 0;
