#N canvas 827 239 527 327 12;
#X declare -path ~/Sync/work/projects/drumcode/pd;
#X declare -path ~/path/to/sounds;
#X obj 39 96 cnv 15 421 67 empty empty written\ by\ Timo\ Hoogland\,\ 2024\,\ www.timohoogland.com 7 12 0 12 #efefef #000000 0;
#X obj 39 860 dc.timer;
#X obj 39 39 cnv 15 421 41 empty empty ./drum.code 20 20 0 24 #00cb9e #ffffff 0;
#X text 39 175 A library of tools for hybrid drums (or other instruments) \, with onset detection \, timbre analysis \, basic algorithmic composition techniques \, midi and osc trigger outputs \, and more;
#X obj 39 824 bng 25 250 50 0 empty empty empty 17 7 0 10 #e4e4e4 #4d4d4d #373737;
#X obj 698 860 dc.inrange 50 100, f 16;
#X obj 701 825 hsl 128 17 0 127 0 0 empty empty empty -2 -8 0 10 #e4e4e4 #4d4d4d #373737 0 1;
#X obj 701 901 hsl 128 17 0 127 0 0 empty empty empty -2 -8 0 10 #e4e4e4 #4d4d4d #373737 0 1;
#X text 39 135 - Funded by Creative Industries Fund NL;
#X text 39 115 - License: GNU GPL-3.0;
#X obj 217 824 bng 25 250 50 0 empty empty empty 17 7 0 10 #e4e4e4 #4d4d4d #373737;
#X floatatom 217 900 5 0 0 0 - - - 12;
#X obj 217 860 dc.count 250;
#X floatatom 39 900 5 0 0 0 - - - 12;
#X obj 439 899 hsl 128 17 0 127 0 0 empty empty empty -2 -8 0 10 #e4e4e4 #4d4d4d #373737 0 1;
#X obj 439 825 hsl 128 17 0 127 0 0 empty empty empty -2 -8 0 10 #e4e4e4 #4d4d4d #373737 0 1;
#X obj 439 925 hsl 128 17 0 127 0 0 empty empty empty -2 -8 0 10 #e4e4e4 #4d4d4d #373737 0 1;
#X obj 436 860 dc.gate 50;
#X text 217 779 count triggers within a timeframe, f 16;
#X text 440 779 output left if value passes threshold \, else output right, f 25;
#X text 698 779 only output if value is within the specified range, f 23;
#X floatatom 39 1039 5 0 0 0 - - - 12;
#X obj 39 1001 dc.average 10;
#X text 57 959 get the average over 10 values, f 14;
#X text 234 959 get the speed value from 0-1, f 14;
#X obj 220 1039 hsl 128 17 0.01 1 0 0 empty empty empty -2 -8 0 10 #e4e4e4 #4d4d4d #373737 0 1;
#X text 39 778 time from triggers, f 10;
#X obj 217 1001 dc.speed;
#X text 39 251 Getting started: to use this library in your patches include:;
#X obj 220 1237 hsl 128 17 0 1 0 0 empty empty empty -2 -8 0 10 #e4e4e4 #000000 #000000 0 1;
#X text 234 1157 slide back from the incoming value slowly to 0, f 23;
#X obj 217 1203 dc.slide;
#X msg 436 1122 /trigger/speed \$1;
#X text 455 1150 send Open Sound Control (OSC) messages over the network or locally, f 24;
#X text 436 1086 format an OSC message like so:;
#X text 455 951 use this object to send osc "wireless" to the dc.osc.send object, f 24;
#X obj 436 1001 dc.osc.message /slider/low;
#X obj 436 1203 dc.osc.send localhost 4880;
#X obj 200 599 dc.trigger~;
#X obj 39 1166 bng 25 250 50 0 empty empty empty 17 7 0 10 #e4e4e4 #000000 #000000;
#X obj 39 1237 bng 25 250 50 0 empty empty empty 17 7 0 10 #e4e4e4 #000000 #000000;
#X obj 39 1203 dc.wait 2000;
#X obj 200 377 adc~ 1;
#X obj 200 406 meter~;
#X obj 39 277 declare -path ~/Sync/work/projects/drumcode/pd;
#X obj 200 633 bng 25 250 50 0 empty empty empty 17 7 0 10 #e4e4e4 #4d4d4d #373737;
#X obj 272 548 hsl 128 17 0 1 0 1 empty empty empty -2 -8 0 10 #e4e4e4 #4d4d4d #373737 0 1;
#X text 269 464 <- [meter~] - useful to see the level of the incoming sound;
#X text 39 1121 reduce speed limit of incoming values, f 17;
#X text 269 523 adjust trigger the sensitivity (0 -> 1), f 31;
#X msg 39 1329 60;
#X text 75 1299 play a MIDI note from a number (pitch) \, with velocity and duration, f 24;
#X obj 698 966 bng 25 250 50 0 empty empty empty 17 7 0 10 #e4e4e4 #4d4d4d #000000;
#X floatatom 698 1037 5 0 0 0 - - - 12;
#X text 743 965 get the estimated BPM;
#X text 743 1036 outputs after 2nd click;
#X text 345 276 (replace with path to drumcode on your computer);
#X obj 698 1203 dc.random note;
#X obj 698 1166 bng 25 250 50 0 empty empty empty 17 7 0 10 #e4e4e4 #4d4d4d #000000;
#X obj 698 1284 dc.note.scale minor eb;
#X obj 39 1364 dc.note.out 120 250;
#X obj 698 1364 dc.note.out 120 300;
#X obj 726 1323 nbx 4 18 -1e+37 1e+37 0 0 empty empty empty 0 -8 0 10 #e4e4e4 #000000 #000000 0 256;
#X obj 726 1237 nbx 4 18 -1e+37 1e+37 0 0 empty empty empty 0 -8 0 10 #e4e4e4 #000000 #000000 0 256;
#X text 730 1157 generate a random note between MIDI 36-72, f 21;
#X text 795 1242 map the note to a minor eb scale, f 17;
#X obj 39 377 dc.audio.onoff~;
#X obj 698 1001 dc.tempo;
#X text 229 634 BANG!;
#X obj 436 1364 dc.step 60 63 67 72;
#X obj 436 1316 bng 25 250 50 0 empty empty empty 17 7 0 10 #e4e4e4 #4d4d4d #000000;
#X obj 436 1403 nbx 4 18 -1e+37 1e+37 0 0 empty empty empty 0 -8 0 10 #e4e4e4 #000000 #000000 0 256;
#X msg 578 1316 72 77 79;
#X text 468 1315 step through a list of numbers, f 15;
#X text 578 1340 replace with new numbers, f 13;
#X text 279 598 <- (4) detect triggers!;
#X text 269 376 (3) now start by using a microphone input to detect triggers in the sound, f 24;
#X text 39 412 (1) first turn the audio on, f 14;
#X text 39 457 (2) adjust sound settings for your soundcard in preferences, f 18;
#X text 39 698 (5) Now you can start to use this trigger to control other instruments/sounds/parameters/lights and more. All based on different time/timbre descriptors:, f 67;
#X obj 39 1520 dc.sample~;
#X obj 39 1476 bng 25 250 50 0 empty empty empty 17 7 0 10 #e4e4e4 #4d4d4d #000000;
#X msg 78 1476 read;
#X obj 40 1559 gain~ 1 0 20 0 0;
#A saved;
#X obj 35 1682 dac~;
#X obj 437 1559 gain~ 1 0 20 0 0;
#A saved;
#X obj 432 1682 dac~;
#X obj 436 1520 dc.beep~;
#X text 523 1519 play a synth sound;
#X text 523 1475 set the MIDI note;
#X text 126 1519 play a soundfile from the computer;
#X msg 391 1476 63;
#X msg 578 1284 36 36 48;
#X msg 479 1476 65;
#X text 126 1558 point to a folder of samples with:;
#X obj 126 1652 dc.sample~ bell.aiff;
#X text 126 1616 then easily load the sample with just the filename:, f 25;
#X obj 126 1580 declare -path ~/path/to/sounds;
#X text 126 1475 <- load the file;
#X connect 1 0 13 0;
#X connect 4 0 1 0;
#X connect 5 0 7 0;
#X connect 6 0 5 0;
#X connect 10 0 12 0;
#X connect 12 0 11 0;
#X connect 13 0 22 0;
#X connect 13 0 27 0;
#X connect 15 0 17 0;
#X connect 16 0 36 0;
#X connect 17 0 14 0;
#X connect 17 1 16 0;
#X connect 22 0 21 0;
#X connect 25 0 32 0;
#X connect 25 0 31 0;
#X connect 27 0 25 0;
#X connect 31 0 29 0;
#X connect 32 0 37 0;
#X connect 38 0 45 0;
#X connect 39 0 41 0;
#X connect 40 0 50 0;
#X connect 41 0 40 0;
#X connect 42 0 43 0;
#X connect 43 0 38 0;
#X connect 46 0 38 1;
#X connect 50 0 60 0;
#X connect 52 0 67 0;
#X connect 57 0 63 0;
#X connect 57 0 59 0;
#X connect 58 0 57 0;
#X connect 59 0 62 0;
#X connect 59 0 61 0;
#X connect 67 0 53 0;
#X connect 69 0 71 0;
#X connect 70 0 69 0;
#X connect 71 0 87 0;
#X connect 72 0 69 1;
#X connect 80 0 83 0;
#X connect 81 0 80 0;
#X connect 82 0 80 0;
#X connect 83 0 84 0;
#X connect 83 0 84 1;
#X connect 85 0 86 0;
#X connect 85 0 86 1;
#X connect 87 0 85 0;
#X connect 91 0 87 0;
#X connect 92 0 69 1;
#X connect 93 0 87 0;
