#N canvas 827 239 734 565 12;
#X declare -path drumcode/pd;
#X obj 59 239 adc~ 1;
#X obj 59 281 meter~;
#X text 141 239 [adc~]: Analog to Digital Converter \, Input 1;
#X text 141 280 [meter~]: See the incoming signal volume;
#X obj 141 398 declare -path drumcode/pd;
#X obj 59 459 dc.trigger~;
#X obj 59 499 bng 25 250 50 0 empty empty empty 17 7 0 10 #e4e4e4 #4d4d4d #000000;
#X text 141 498 [bng]: a button/bang;
#X text 141 374 include the drumcode objects in the project;
#X msg 59 560 60;
#X obj 59 600 dc.synth~;
#X obj 60 641 gain~ 1 0 20 0 0;
#A saved;
#X obj 60 778 dac~ 1 2;
#X text 141 599 create a synth sound from the MIDI note input;
#X text 141 559 [msg]: a message containing the midi number 60 (note C);
#X text 141 640 [gain~]: a volume slider so we can control how loud the sound is;
#X text 141 777 [dac~]: Digital to Analog Converter \, Outputs 1 (Left) & 2 (Right);
#X text 141 458 analyse for incoming triggers;
#X text 141 724 <- make sure the slider connects to Left and Right speaker inputs;
#X obj 59 59 cnv 15 421 41 empty empty ./drum.code\ -\ Getting\ Started\ 0 20 20 0 24 #00cb9e #ffffff 0;
#X text 499 58 Written by Timo Hoogland \, 2024 \, www.timohoogland.com;
#X text 499 78 License: GNU GPL-3.0;
#X text 499 98 Funded by Creative Industries Fund NL;
#X obj 59 109 cnv 15 421 31 empty empty Setting\ up 20 14 0 20 #838383 #ffffff 0;
#X text 59 157 This template is the end result of the Setup Guide from the documentation. Please follow along with that guide to understand how everything is connected and works.;
#X connect 0 0 1 0;
#X connect 1 0 5 0;
#X connect 5 0 6 0;
#X connect 6 0 9 0;
#X connect 9 0 10 0;
#X connect 10 0 11 0;
#X connect 11 0 12 0;
#X connect 11 0 12 1;
