#N canvas 827 239 527 327 12;
#X declare -path ~/Sync/work/projects/drumcode/pd;
#X obj 59 59 declare -path ~/Sync/work/projects/drumcode/pd;
#X obj 57 160 meter~;
#X obj 57 321 dc.trigger~;
#X obj 137 279 hsl 128 17 0 1 0 0 empty empty empty -2 -8 0 10 #e4e4e4 #4d4d4d #000000 0 1;
#X text 659 101 dc.slider? with range 0-1 by default;
#X text 659 125 or change range 0-127 in dc.trigger?;
#X text 658 149 display for triggers/thresholds?;
#X obj 57 359 bng 25 250 50 0 empty empty empty 17 7 0 10 #e4e4e4 #4d4d4d #000000;
#X obj 57 122 adc~ 2;
#X obj 57 837 dac~ 1 2;
#X text 658 198 dc.gain~? like meter~ + gain~;
#X text 659 58 ideas:;
#X obj 57 660 dc.beep~ 120 30 0;
#X floatatom 182 311 5 0 0 0 - - - 12;
#X obj 659 239 savestate;
#X text 733 238 presets/savestate for storing state of patcher;
#X obj 62 707 gain2~ 1 0 20 0 0;
#A saved;
#X obj 319 462 dc.random velocity;
#X obj 57 397 trigger b b b;
#X obj 57 462 dc.step 36 60 36 63 36 72 48 67 63 62 36;
#X obj 453 461 dc.step 10 10 60;
#X connect 1 0 2 0;
#X connect 2 0 7 0;
#X connect 3 0 2 1;
#X connect 7 0 18 0;
#X connect 8 0 1 0;
#X connect 12 0 16 0;
#X connect 12 0 16 1;
#X connect 13 0 2 3;
#X connect 16 0 9 0;
#X connect 16 1 9 1;
#X connect 17 0 12 1;
#X connect 18 0 19 0;
#X connect 18 1 17 0;
#X connect 18 2 20 0;
#X connect 19 0 12 0;
#X connect 20 0 12 2;
