#N canvas 827 239 734 565 12;
#X declare -path drumcode/pd;
#X obj 59 239 adc~ 1;
#X text 124 262 select input 1 from the soundcard;
#X obj 59 298 meter~;
#X text 124 297 the [meter~] gives the volume measure of the input, f 25;
#X obj 59 476 dc.trigger~;
#X text 142 475 use this object to detect triggers from the sound;
#X obj 147 395 hsl 128 17 0 1 0 1 empty empty empty -2 -8 0 10 #e4e4e4 #4d4d4d #000000 4225 1;
#X text 307 431 adjust the gate (-60 - 0dB) \, sound below this level is not detected, f 31;
#X obj 171 432 hsl 128 17 -60 0 0 1 empty empty empty -2 -8 0 10 #e4e4e4 #4d4d4d #000000 2331 1;
#X obj 59 59 cnv 15 421 41 empty empty ./drum.code\ -\ Getting\ Started\ 1 20 20 0 24 #00cb9e #ffffff 0;
#X text 499 58 Written by Timo Hoogland \, 2024 \, www.timohoogland.com;
#X text 499 78 License: GNU GPL-3.0;
#X text 499 98 Funded by Creative Industries Fund NL;
#X obj 59 639 bng 25 250 50 0 empty empty empty 17 7 0 10 #e4e4e4 #4d4d4d #000000;
#X text 93 638 display the trigger with a button;
#X obj 55 977 dac~ 1 2;
#X text 138 976 send sound to the speaker output;
#X text 138 999 dac = Digital -> Analog Converter;
#X text 124 238 adc = Analog -> Digital Converter;
#X obj 60 850 gain~ 1 0 20 0 0.825185;
#A saved;
#X text 89 849 a [gain~] slider to control the sound output;
#X text 59 157 In this template one trigger input is detected and used to trigger some MIDI notes send to a little synth. We can trigger notes specified as a list \, or we can also use random numbers. You can try to adjust values to hear the differences.;
#X obj 171 742 hsl 128 17 0 127 0 1 empty empty empty -2 -8 0 10 #e4e4e4 #4d4d4d #000000 5296 1;
#X text 312 741 adjust the note length;
#X obj 212 770 hsl 128 17 0 127 0 1 empty empty empty -2 -8 0 10 #e4e4e4 #4d4d4d #000000 2336 1;
#X obj 59 682 dc.step 60 63 62 62 67 67 63 59;
#X text 353 769 adjust the distortion;
#X text 263 681 some MIDI notes to step through every time a trigger is send, f 30;
#X text 499 214 Don't delete! This is needed to be able to use the [dc.*] objects;
#X obj 59 109 cnv 15 421 31 empty empty One\ Trigger\ to\ Synth 20 14 0 20 #838383 #ffffff 0;
#X text 141 375 adjust the [hslider] to change trigger sensitivity;
#X obj 542 682 dc.random 36 72;
#X obj 542 642 bng 25 250 50 0 empty empty empty 17 7 0 10 #e4e4e4 #4d4d4d #000000;
#X obj 542 718 dc.note.scale minor;
#X floatatom 542 758 5 0 0 0 - - - 12;
#X text 681 681 Try replacing the [dc.step] for this random and scale connected objects, f 17;
#X text 542 613 EXTRA;
#X obj 499 280 dc.audio.onoff~;
#X text 639 280 [dc.audio.onoff~] object transforms into this user interface to turn on/off the sound, f 29;
#X obj 499 239 declare -path drumcode/pd;
#X obj 59 802 dc.synth~;
#X obj 110 520 dc.trigger.display;
#X text 252 519 [dc.trigger.display];
#X text 252 545 Allows to see better the incoming signal and the adjust sensitivity and range, f 21;
#X connect 0 0 2 0;
#X connect 2 0 4 0;
#X connect 4 0 13 0;
#X connect 4 2 41 0;
#X connect 6 0 4 1;
#X connect 8 0 4 3;
#X connect 13 0 25 0;
#X connect 19 0 15 0;
#X connect 19 0 15 1;
#X connect 22 0 40 2;
#X connect 24 0 40 3;
#X connect 25 0 40 0;
#X connect 31 0 33 0;
#X connect 32 0 31 0;
#X connect 33 0 34 0;
#X connect 40 0 19 0;
