#N canvas 827 239 734 565 12;
#X declare -path drumcode/pd;
#X obj 59 239 adc~ 1;
#X text 124 262 select input 1 from the soundcard;
#X obj 59 298 meter~;
#X text 124 297 the [meter~] gives the volume measure of the input, f 25;
#X obj 59 476 dc.trigger~;
#X text 142 475 use this object to detect triggers from the sound;
#X obj 147 395 hsl 128 17 0 1 0 1 empty empty empty -2 -8 0 10 #e4e4e4 #4d4d4d #000000 7090 1;
#X text 307 431 adjust the gate (-60 - 0dB) \, sound below this level is not detected, f 31;
#X obj 171 432 hsl 128 17 -60 0 0 1 empty empty empty -2 -8 0 10 #e4e4e4 #4d4d4d #000000 2722 1;
#X obj 59 59 cnv 15 421 41 empty empty ./drum.code\ -\ Getting\ Started\ 2 20 20 0 24 #00cb9e #ffffff 0;
#X text 499 58 Written by Timo Hoogland \, 2024 \, www.timohoogland.com;
#X text 499 78 License: GNU GPL-3.0;
#X text 499 98 Funded by Creative Industries Fund NL;
#X obj 59 518 bng 25 250 50 0 empty empty empty 17 7 0 10 #e4e4e4 #4d4d4d #000000;
#X text 93 517 display the trigger with a button;
#X obj 55 1057 dac~ 1 2;
#X text 127 1056 send sound to the speaker output;
#X text 127 1079 dac = Digital -> Analog Converter;
#X text 124 238 adc = Analog -> Digital Converter;
#X obj 60 930 gain~ 1 0 20 0 0.797278;
#A saved;
#X text 89 929 a [gain~] slider to control the sound output;
#X text 59 157 In this template one trigger input is detected and used to trigger some MIDI notes send to a little synth. We can trigger notes specified as a list \, or we can also use random numbers. You can try to adjust values to hear the differences.;
#X obj 93 817 hsl 128 17 0 127 0 1 empty empty empty -2 -8 0 10 #e4e4e4 #4d4d4d #000000 5884 1;
#X text 99 841 adjust the note length;
#X obj 246 817 hsl 128 17 0 127 0 1 empty empty empty -2 -8 0 10 #e4e4e4 #4d4d4d #000000 0 1;
#X text 499 214 Don't delete! This is needed to be able to use the [dc.*] objects;
#X obj 59 109 cnv 15 421 31 empty empty Trigger\ Speed\ Controls\ Sound 20 14 0 20 #838383 #ffffff 0;
#X text 141 375 adjust the [hslider] to change trigger sensitivity;
#X obj 246 661 hsl 128 17 0 127 0 1 empty empty empty -2 -8 0 10 #e4e4e4 #4d4d4d #000000 0 1;
#X text 93 761 we just play the same MIDI note, f 15;
#X text 381 660 slider goes up when playing faster;
#X text 288 841 adjust the distortion (between 0-127);
#X floatatom 243 842 5 0 0 0 - - - 12;
#X obj 499 278 dc.audio.onoff~;
#X text 639 278 [dc.audio.onoff~] object transforms into this user interface to turn on/off the sound, f 29;
#X obj 499 239 declare -path drumcode/pd;
#X obj 59 882 dc.synth~;
#X obj 59 603 dc.trigger.controls;
#X text 243 580 The trigger.controls gets the time between triggers in milliseconds. Then converts the time interval to a "speed" value between 0 and 127 And slowly slides back to 0 automatically while playing. The slider reaches a larger value if the speed increases.;
#X msg 59 762 67;
#X connect 0 0 2 0;
#X connect 2 0 4 0;
#X connect 4 0 13 0;
#X connect 6 0 4 1;
#X connect 8 0 4 3;
#X connect 13 0 37 0;
#X connect 19 0 15 0;
#X connect 19 0 15 1;
#X connect 22 0 36 2;
#X connect 24 0 32 0;
#X connect 28 0 24 0;
#X connect 32 0 36 3;
#X connect 36 0 19 0;
#X connect 37 0 39 0;
#X connect 37 3 28 0;
#X connect 39 0 36 0;
