#N canvas 827 239 734 565 12;
#X declare -path drumcode/pd;
#X obj 59 239 adc~ 1;
#X text 124 262 select input 1 from the soundcard;
#X obj 59 298 meter~;
#X text 124 297 the [meter~] gives the volume measure of the input, f 25;
#X obj 59 476 dc.trigger~;
#X text 142 475 use this object to detect triggers from the sound;
#X obj 147 395 hsl 128 17 0 1 0 1 empty empty empty -2 -8 0 10 #e4e4e4 #4d4d4d #000000 7090 1;
#X text 307 431 adjust the gate (-60 - 0dB) \, sound below this level is not detected, f 31;
#X obj 171 432 hsl 128 17 -60 0 0 1 empty empty empty -2 -8 0 10 #e4e4e4 #4d4d4d #000000 2722 1;
#X obj 59 59 cnv 15 421 41 empty empty ./drum.code\ -\ Getting\ Started\ 4 20 20 0 24 #00cb9e #ffffff 0;
#X text 499 58 Written by Timo Hoogland \, 2024 \, www.timohoogland.com;
#X text 499 78 License: GNU GPL-3.0;
#X text 499 98 Funded by Creative Industries Fund NL;
#X obj 59 518 bng 25 250 50 0 empty empty empty 17 7 0 10 #e4e4e4 #4d4d4d #000000;
#X text 93 517 display the trigger with a button;
#X obj 44 1187 dac~ 1 2;
#X text 116 1186 send sound to the speaker output;
#X text 116 1209 dac = Digital -> Analog Converter;
#X text 124 238 adc = Analog -> Digital Converter;
#X obj 49 1060 gain~ 1 0 20 0 0;
#A saved;
#X text 78 1059 a [gain~] slider to control the sound output;
#X obj 82 955 hsl 128 17 0 127 0 1 empty empty empty -2 -8 0 10 #e4e4e4 #4d4d4d #000000 0 1;
#X text 88 979 adjust the note length;
#X text 499 214 Don't delete! This is needed to be able to use the [dc.*] objects;
#X obj 59 109 cnv 15 421 31 empty empty Use\ Hit\ Count\ To\ Change\ Parameters 20 14 0 20 #838383 #ffffff 0;
#X text 141 374 adjust the [hslider] to change trigger sensitivity;
#X obj 243 955 hsl 128 17 0 127 0 1 empty empty empty -2 -8 0 10 #e4e4e4 #4d4d4d #000000 11000 1;
#X text 250 979 adjust the distortion (between 0-127);
#X obj 499 278 dc.audio.onoff~;
#X text 639 278 [dc.audio.onoff~] object transforms into this user interface to turn on/off the sound, f 29;
#X obj 499 239 declare -path drumcode/pd;
#X obj 48 1020 dc.synth~;
#X obj 179 779 dc.trigger.timecontrols;
#X text 59 157 In this template one trigger input is detected and the hits are counted when received quickly (within 250 milliseconds). Based on the number of hits some melody is swapped and other parameters are adjusted in the composition.;
#X obj 48 697 dc.tempo;
#X floatatom 48 738 5 0 0 0 - - - 12;
#X obj 48 819 bng 25 250 50 0 empty empty empty 17 7 0 10 #e4e4e4 #4d4d4d #000000;
#X msg 48 918 48;
#X text 205 696 dc.tempo measures the tempo of the received triggers in BPM;
#X text 205 721 this can be used to control the tempo of a metronome that continuously triggers a note, f 39;
#N canvas 733 172 450 300 metronome 0;
#X obj 201 98 tgl 25 0 empty empty empty 17 7 0 10 #e4e4e4 #4d4d4d #000000 0 1;
#X obj 201 59 loadmess 1;
#X msg 59 104 tempo \$1 permin;
#X obj 59 159 metro 1 120 permin;
#X obj 59 59 inlet;
#X obj 59 194 outlet;
#X connect 0 0 3 0;
#X connect 1 0 0 0;
#X connect 2 0 3 0;
#X connect 3 0 5 0;
#X connect 4 0 2 0;
#X restore 48 779 pd metronome;
#X obj 88 609 tgl 25 1 empty empty empty 17 7 0 10 #e4e4e4 #4d4d4d #000000 0 1;
#X obj 48 658 gate;
#X text 216 597 disable the tempo measurement by clicking the gate off;
#N canvas 733 172 450 300 spacebar 0;
#X obj 553 518 key;
#X obj 553 548 sel 32;
#X obj 109 598 outlet;
#X connect 0 0 1 0;
#X connect 1 0 2 0;
#X restore 88 577 pd spacebar;
#X text 244 881 change the distortion amount for every step, f 20;
#X obj 240 918 dc.step 20 50 110;
#X connect 0 0 2 0;
#X connect 2 0 4 0;
#X connect 4 0 13 0;
#X connect 6 0 4 1;
#X connect 8 0 4 3;
#X connect 13 0 42 1;
#X connect 13 0 32 0 32.................Q....jG...PD....4A...jM....;
#X connect 19 0 15 0;
#X connect 19 0 15 1;
#X connect 21 0 31 2;
#X connect 26 0 31 3;
#X connect 31 0 19 0;
#X connect 32 0 46 0;
#X connect 32 3 21 0;
#X connect 34 0 35 0;
#X connect 35 0 40 0;
#X connect 36 0 37 0;
#X connect 37 0 31 0;
#X connect 40 0 36 0;
#X connect 41 0 42 0;
#X connect 42 0 34 0;
#X connect 44 0 41 0;
#X connect 46 0 26 0;
