#N canvas 827 239 734 565 12;
#X declare -path drumcode/pd;
#X obj 59 279 adc~ 1;
#X text 124 302 select input 1 from the soundcard;
#X obj 59 338 meter~;
#X text 124 337 the [meter~] gives the volume measure of the input, f 25;
#X obj 59 516 dc.trigger~;
#X text 142 515 use this object to detect triggers from the sound;
#X obj 147 435 hsl 128 17 0 1 0 1 empty empty empty -2 -8 0 10 #e4e4e4 #4d4d4d #000000 7090 1;
#X text 307 471 adjust the gate (-60 - 0dB) \, sound below this level is not detected, f 31;
#X obj 171 472 hsl 128 17 -60 0 0 1 empty empty empty -2 -8 0 10 #e4e4e4 #4d4d4d #000000 2722 1;
#X obj 59 59 cnv 15 421 41 empty empty ./drum.code\ -\ Getting\ Started\ 6 20 20 0 24 #00cb9e #ffffff 0;
#X text 499 58 Written by Timo Hoogland \, 2024 \, www.timohoogland.com;
#X text 499 78 License: GNU GPL-3.0;
#X text 499 98 Funded by Creative Industries Fund NL;
#X obj 59 558 bng 25 250 50 0 empty empty empty 17 7 0 10 #e4e4e4 #4d4d4d #000000;
#X text 93 557 display the trigger with a button;
#X obj 55 1248 dac~ 1 2;
#X text 127 1247 send sound to the speaker output;
#X text 127 1270 dac = Digital -> Analog Converter;
#X text 124 278 adc = Analog -> Digital Converter;
#X obj 60 1121 gain~ 1 0 20 0 0;
#A saved;
#X text 89 1120 a [gain~] slider to control the sound output;
#X obj 93 1016 hsl 128 17 0 127 0 1 empty empty empty -2 -8 0 10 #e4e4e4 #4d4d4d #000000 4836 1;
#X text 99 1040 adjust the note length;
#X text 499 254 Don't delete! This is needed to be able to use the [dc.*] objects;
#X obj 59 109 cnv 15 421 31 empty empty Play\ synths\ with\ clicktrack 20 14 0 20 #838383 #ffffff 0;
#X text 141 414 adjust the [hslider] to change trigger sensitivity;
#X obj 268 1016 hsl 128 17 0 127 0 1 empty empty empty -2 -8 0 10 #e4e4e4 #4d4d4d #000000 2780 1;
#X text 275 1040 adjust the distortion (between 0-127);
#X obj 499 318 dc.audio.onoff~;
#X text 639 318 [dc.audio.onoff~] object transforms into this user interface to turn on/off the sound, f 29;
#X obj 499 279 declare -path drumcode/pd;
#X obj 59 1081 dc.synth~;
#X text 59 157 This template demonstrates how to setup the global transport \, metronome and clicktrack. The transport allows you to specify the BPM and measure signature. The metronome allows you to trigger synths at the specified time interval. The clicktrack allows you to listen and play drums in sync with the transport.;
#X obj 539 598 dc.transport;
#X obj 539 399 tgl 25 0 empty empty empty 17 7 0 10 #e4e4e4 #4d4d4d #373737 0 1;
#X floatatom 568 474 5 0 0 0 - - - 12;
#X obj 568 444 loadmess 105;
#X msg 597 551 4 4;
#X msg 644 551 7 8;
#X msg 692 551 3 4;
#X obj 597 520 loadbang;
#X text 568 398 1) start/stop the transport;
#X text 616 473 2) set the BPM;
#X text 732 550 3) set a timesignature;
#X msg 492 551 reset;
#X floatatom 539 701 5 0 0 0 - - - 12;
#X floatatom 568 662 5 0 0 0 - - - 12;
#X text 585 700 bars;
#X text 610 661 beats;
#X obj 600 629 hsl 128 17 0 1 0 0 empty empty empty -2 -8 0 10 #e4e4e4 #4d4d4d #373737 0 1;
#X text 732 628 progress in bar;
#X obj 539 822 dc.clicktrack~;
#X obj 540 863 gain~ 1 0 20 0 0;
#A saved;
#X obj 540 999 dac~ 1 2;
#X obj 542 783 hsl 128 17 0 127 0 0 empty empty empty -2 -8 0 10 #e4e4e4 #4d4d4d #373737 0 1;
#X text 573 862 5) adjust clicktrack volume;
#X obj 626 999 dac~ 3 4;
#X text 626 928 It can be useful to send the click to a different output so it doesn't mix with the main speaker output \, but this depends on your soundcard options, f 36;
#X text 679 782 6) adjust 8th note volume;
#X obj 142 839 dc.metronome 16;
#X floatatom 142 800 5 0 0 0 - - - 12;
#X obj 142 767 loadmess 16;
#X obj 142 872 bng 25 250 50 0 empty empty empty 17 7 0 10 #e4e4e4 #4d4d4d #373737;
#X floatatom 230 872 5 0 0 0 - - - 12;
#X text 162 904 outputs a trigger;
#X text 271 871 outputs the step number in the transport;
#X floatatom 230 796 5 0 0 0 - - - 12;
#X text 271 795 adjust this to reset the step counter after n-bars, f 24;
#X obj 59 619 dc.trigger.timecontrols;
#X obj 92 662 hsl 128 17 0 127 0 0 empty empty empty -2 -8 0 10 #e4e4e4 #4d4d4d #373737 0 1;
#X obj 59 939 dc.hold;
#X obj 59 973 dc.note.scale minor c;
#X obj 89 701 scale 0 127 48 60;
#X text 215 700 the speed 0-127 is scaled to a MIDI note value 48 60, f 24;
#X connect 0 0 2 0;
#X connect 2 0 4 0;
#X connect 4 0 13 0;
#X connect 6 0 4 1;
#X connect 8 0 4 3;
#X connect 13 0 68 0;
#X connect 19 0 15 0;
#X connect 19 0 15 1;
#X connect 21 0 31 2;
#X connect 26 0 31 3;
#X connect 31 0 19 0;
#X connect 33 0 45 0;
#X connect 33 1 46 0;
#X connect 33 2 49 0;
#X connect 34 0 33 0;
#X connect 35 0 33 1;
#X connect 36 0 35 0;
#X connect 37 0 33 2;
#X connect 38 0 33 2;
#X connect 39 0 33 2;
#X connect 40 0 37 0;
#X connect 44 0 33 0;
#X connect 51 0 52 0;
#X connect 52 0 53 0;
#X connect 52 0 53 1;
#X connect 54 0 51 0;
#X connect 59 0 62 0;
#X connect 59 1 63 0;
#X connect 60 0 59 0;
#X connect 61 0 60 0;
#X connect 62 0 70 0;
#X connect 66 0 59 1;
#X connect 68 3 69 0;
#X connect 69 0 72 0;
#X connect 70 0 71 0;
#X connect 71 0 31 0;
#X connect 72 0 70 1;
