#N canvas 827 239 734 565 12;
#X declare -path drumcode/pd;
#X obj 59 239 adc~ 1;
#X text 124 262 select input 1 from the soundcard;
#X obj 59 298 meter~;
#X text 124 297 the [meter~] gives the volume measure of the input, f 25;
#X obj 106 481 dc.trigger~;
#X text 189 480 use this object to detect triggers from the sound;
#X obj 142 399 hsl 128 17 0 1 0 1 empty empty empty -2 -8 0 10 #e4e4e4 #4d4d4d #000000 6451 1;
#X obj 59 59 cnv 15 421 41 empty empty ./drum.code\ -\ Getting\ Started\ 7 20 20 0 24 #00cb9e #ffffff 0;
#X text 499 58 Written by Timo Hoogland \, 2024 \, www.timohoogland.com;
#X text 499 78 License: GNU GPL-3.0;
#X text 499 98 Funded by Creative Industries Fund NL;
#X obj 55 1072 dac~ 1 2;
#X text 138 1071 send sound to the speaker output;
#X text 138 1094 dac = Digital -> Analog Converter;
#X text 124 238 adc = Analog -> Digital Converter;
#X obj 60 945 gain~ 1 0 20 0 1;
#A saved;
#X text 89 944 a [gain~] slider to control the sound output;
#X text 173 776 some MIDI notes to step through every time a trigger is send, f 13;
#X text 499 214 Don't delete! This is needed to be able to use the [dc.*] objects;
#X obj 59 109 cnv 15 421 31 empty empty Trigger\ a\ Synth\ with\ Velocity 20 14 0 20 #838383 #ffffff 0;
#X text 136 379 adjust the [hslider] to change trigger sensitivity;
#X obj 499 280 dc.audio.onoff~;
#X text 639 280 [dc.audio.onoff~] object transforms into this user interface to turn on/off the sound, f 29;
#X obj 499 239 declare -path drumcode/pd;
#X obj 59 897 dc.synth~;
#X text 59 157 In this template you can see how to add velocity measuring on the trigger. This allows for more dynamic play with other instruments because you can adjust the velocity of the MIDI notes.;
#X obj 499 531 dc.trigger.display;
#X text 641 530 [dc.trigger.display];
#X text 641 556 Allows to see better the incoming signal and the adjust sensitivity and range, f 21;
#X obj 59 575 dc.trigger.velocity~;
#X obj 176 428 hsl 128 17 0 1 0 1 empty empty empty -2 -8 0 10 #e4e4e4 #4d4d4d #000000 3971 1;
#X text 310 411 adjust this slider to change the retrigger range, f 23;
#X obj 59 686 bng 25 250 50 0 empty empty empty 17 7 0 10 #e4e4e4 #4d4d4d #373737;
#X text 89 638 the dc.trigger.velocity also outputs a bang when the note is played. Use this one instead of the one from dc.trigger when using velocity!, f 18;
#X obj 191 531 tgl 25 0 empty empty empty 17 7 0 10 #e4e4e4 #4d4d4d #373737 0 1;
#X text 223 530 enable this toggle to calibrate the velocity. Play soft notes and the loudest notes you want. Then disable to finish calibration, f 37;
#X obj 310 688 vsl 17 128 0 127 0 0 empty empty empty 0 -9 0 10 #e4e4e4 #4d4d4d #373737 0 1;
#X text 335 685 see the velocity response, f 10;
#X obj 59 777 dc.step 60 63 62;
#X text 335 800 the velocity controls the velocity and the distortion, f 18;
#X floatatom 305 652 5 0 0 0 - - - 12;
#X connect 0 0 2 0;
#X connect 2 0 29 0;
#X connect 2 0 4 0;
#X connect 4 1 29 1;
#X connect 4 2 26 0;
#X connect 6 0 4 1;
#X connect 15 0 11 0;
#X connect 15 0 11 1;
#X connect 24 0 15 0;
#X connect 29 0 32 0;
#X connect 29 1 40 0;
#X connect 30 0 4 2;
#X connect 32 0 38 0;
#X connect 34 0 29 2;
#X connect 36 0 24 1;
#X connect 36 0 24 3;
#X connect 38 0 24 0;
#X connect 40 0 36 0;
