#N canvas 827 239 734 565 12;
#X declare -path drumcode/pd;
#X obj 59 180 adc~ 1;
#X obj 59 217 meter~;
#X obj 83 401 dc.trigger~;
#X obj 142 299 hsl 128 17 0 1 0 1 empty empty empty -2 -8 0 10 #e4e4e4 #4d4d4d #000000 6323 1;
#X obj 190 360 hsl 128 17 -60 0 0 1 empty empty empty -2 -8 0 10 #e4e4e4 #4d4d4d #000000 2568 1;
#X obj 59 59 cnv 15 421 41 empty empty ./drum.code\ -\ Clean\ Template 20 20 0 24 #00cb9e #ffffff 0;
#X text 499 58 Written by Timo Hoogland \, 2024 \, www.timohoogland.com;
#X text 499 78 License: GNU GPL-3.0;
#X text 499 98 Funded by Creative Industries Fund NL;
#X obj 59 535 bng 25 250 50 0 empty empty empty 17 7 0 10 #e4e4e4 #4d4d4d #000000;
#X obj 55 857 dac~ 1 2;
#X obj 60 730 gain~ 1 0 20 0 0;
#A saved;
#X obj 59 109 cnv 15 421 31 empty empty Just\ the\ most\ important\ objects 20 14 0 20 #838383 #ffffff 0;
#X text 140 274 sensitivity;
#X text 184 338 gate floor;
#X text 676 179 Don't delete!;
#X obj 59 580 dc.random 48 72;
#X obj 59 613 dc.note.scale major;
#X text 145 681 OR;
#X obj 184 682 dc.sample~;
#X obj 140 180 dc.audio.onoff~;
#X text 273 681 OR;
#X obj 314 682 dc.note.out;
#X obj 499 180 declare -path drumcode/pd;
#X obj 59 682 dc.synth~;
#X obj 264 401 dc.trigger.display;
#X obj 59 498 dc.trigger.velocity~;
#X obj 157 457 tgl 25 0 empty empty empty 17 7 0 10 #e4e4e4 #4d4d4d #373737 0 1;
#X floatatom 200 613 5 0 0 0 - - - 12;
#X text 187 456 calibrate velocity, f 9;
#X connect 0 0 1 0;
#X connect 1 0 2 0;
#X connect 1 0 26 0;
#X connect 2 1 26 1;
#X connect 2 2 25 0;
#X connect 3 0 2 1;
#X connect 4 0 2 3;
#X connect 9 0 16 0;
#X connect 11 0 10 0;
#X connect 11 0 10 1;
#X connect 16 0 17 0;
#X connect 17 0 24 0;
#X connect 24 0 11 0;
#X connect 26 0 9 0;
#X connect 26 1 28 0;
#X connect 27 0 26 2;
#X connect 28 0 24 1;
